<svg version="1.1" xmlns="http://www.w3.org/2000/svg" xmlns:xlink="http://www.w3.org/1999/xlink" width="157.57121" height="243.79909" viewBox="0,0,157.57121,243.79909"><g transform="translate(-170.9288,-28.66403)"><g data-paper-data="{&quot;isPaintingLayer&quot;:true}" fill-rule="nonzero" stroke-linecap="butt" stroke-linejoin="miter" stroke-miterlimit="10" stroke-dasharray="" stroke-dashoffset="0" style="mix-blend-mode: normal"><g><path d="M194,259.5c0,0 14.22755,-18.0579 18.03644,-33.89483c1.47558,-6.13528 -0.1018,-17.46432 3.09813,-23.60056c3.57143,-6.84864 11.86544,-8.4571 11.86544,-14.28795c0,-10.23102 -7.98758,-26.60584 -11.52845,-41.23515c-1.53379,-6.33695 5.8286,-16.53402 4.28503,-22.11254c-3.63972,-13.15409 -15.75658,-18.86897 -15.75658,-18.86897h70c0,0 3.88316,10.61383 0.33203,22.16502c-1.88708,6.13834 -12.33203,11.10617 -12.33203,18.05164c0,13.52304 12,25.8743 12,36c0,6.25478 -8.93445,11.9822 -11.77208,19.09335c-2.65638,6.65692 0.77208,14.65012 0.77208,21.90665c0,15.40551 11,31.78334 11,31.78334c0,0 -9.92476,11 -25.5,11c-6.29566,0 -10.85755,9.52088 -17.55719,6.29656c-2.79312,-1.34424 -24.08875,-0.29656 -25.44281,-0.29656c-6.7393,0 -11.5,-12 -11.5,-12z" fill="#7b3000" stroke="none" stroke-width="0"/><path d="M328.5,96.21666c0,10.85225 -9.61338,14.35312 -15.92554,23.5511c-6.5534,9.54951 -2.01581,29.69465 -13.36371,35.3706c-10.81879,5.4113 -34.35135,6.5783 -47.71075,6.5783c-10.96995,0 -20.05116,-14.77163 -34.78014,-20.55949c-11.56554,-4.54477 -26.29733,-2.33269 -33.06604,-8.51389c-16.72583,-15.27405 -12.15381,-33.31211 -12.15381,-50.42662c0,-15.04249 9.94245,-17.78121 21.39163,-28.2577c7.05924,-6.45951 21.1027,2.32115 31.2774,-1.19895c9.37265,-3.24262 14.70522,-19.04335 25.33097,-19.04335c10.2124,0 29.94162,-7.33665 38.79148,-4.3285c15.54173,5.28278 18.37142,34.71301 26.34321,46.56531c5.65489,8.40758 13.86531,10.03393 13.86531,20.26319z" fill="#4bd45d" stroke="none" stroke-width="0"/><path d="M328.5,96.21666c0,10.85225 -9.61338,14.35312 -15.92554,23.5511c-6.5534,9.54951 -2.01581,29.69465 -13.36371,35.3706c-10.81879,5.4113 -34.35135,6.5783 -47.71075,6.5783c-10.96995,0 -20.05116,-14.77163 -34.78014,-20.55949c-11.56554,-4.54477 -26.29733,-2.33269 -33.06604,-8.51389c-16.72583,-15.27405 -12.15381,-33.31211 -12.15381,-50.42662c0,-15.04249 9.94245,-17.78121 21.39163,-28.2577c7.05924,-6.45951 21.1027,2.32115 31.2774,-1.19895c9.37265,-3.24262 14.70522,-19.04335 25.33097,-19.04335c10.2124,0 29.94162,-7.33665 38.79148,-4.3285c15.54173,5.28278 18.37142,34.71301 26.34321,46.56531c5.65489,8.40758 13.86531,10.03393 13.86531,20.26319z" fill="#4bd45d" stroke="none" stroke-width="0"/><path d="M217.30133,252.374c-1,0 -1,-1 -1,-1v-0.49486c0,-3.42386 0.95965,-6.26578 1.49748,-9.56245c0.29745,-1.82321 0.16296,-3.8318 1.00355,-5.51298c-0.04153,-3.91306 1.84253,-7.52463 2.46044,-11.31212c0.44984,-2.75731 0.42745,-5.6861 1.00355,-8.48212c0.72016,-3.49515 2.97528,-7.43162 4.50307,-10.54491c1.52166,-4.59074 2.95091,-8.61187 3.90948,-13.20818c0.98067,-4.70224 -0.54261,-10.1716 -0.50869,-14.9506c-0.98811,-2.96434 -0.89144,-6.31409 -1.47073,-9.3327c-0.37545,-1.95639 -1.68098,-3.92883 -2.42491,-5.78534c-1.03578,-2.58482 -1.68664,-5.36223 -2.93968,-7.85317c0,0 -0.44721,-0.89443 0.44721,-1.34164c0.89443,-0.44721 1.34164,0.44721 1.34164,0.44721c1.26486,2.5433 1.94733,5.34884 2.99859,7.98223c0.78554,1.96777 2.09299,4.01224 2.52365,6.09121c0.63583,3.06945 0.49005,6.44679 1.4984,9.47183c0.03062,5.07308 1.44881,10.71342 0.48102,15.73048c-0.90499,4.6915 -2.44529,8.8492 -4.00822,13.51404c-1.48352,2.90586 -3.76756,6.93169 -4.40434,10.23905c-0.52949,2.75012 -0.5161,5.63827 -0.97588,8.34298c-0.65437,3.84951 -2.45009,7.47809 -2.48812,11.45126c-0.82867,1.65733 -0.67317,3.59314 -0.97587,5.37385c-0.54246,3.19114 -1.47166,5.93494 -1.47166,9.24209v0.49486c0,0 0,1 -1,1z" fill="#6c2900" stroke="none" stroke-width="0.5"/><path d="M235.11615,162.28962c1,0 1,1 1,1l-0.05132,0.67348c0.16495,0.49486 0.3299,0.98971 0.49486,1.48457c1.53823,4.6407 3.06802,9.19699 3.98342,13.94244c0.39191,2.03169 0.02674,4.59653 0.02678,6.66088c0.00006,3.04774 0.50943,5.89631 0.49473,8.93046c-0.0092,1.89875 -0.50505,3.55108 -0.49477,5.42237c-0.02719,3.77944 -1.53003,7.26118 -1.98707,10.98967c-0.3785,3.08777 -0.88022,6.0449 -1.50368,9.03433c-0.29219,1.40103 0.53846,1.5464 -0.04937,3.12206c-0.16307,0.43713 -0.84217,0.5471 -0.98971,0.98971c-0.20865,0.62595 0.20865,1.35348 0,1.97943c-0.14754,0.44261 -0.81454,0.55729 -0.98971,0.98971c-0.54288,1.34016 -0.97634,3.42388 -1.48457,4.94856c-4.25867,8.51733 -4.67648,17.63368 -6.88172,26.58208c0,0 -0.24254,0.97014 -1.21268,0.72761c-0.97015,-0.24253 -0.72761,-1.21268 -0.72761,-1.21268c1.02113,-4.01991 1.27472,-8.20668 1.95765,-12.25577c0.51984,-3.0821 2.05425,-5.73023 3.02317,-8.6326c0.67329,-2.01684 1.0326,-4.05236 1.99343,-5.97401c0.51207,-1.53619 0.93426,-3.55716 1.48457,-4.94856c0.17159,-0.43385 0.84217,-0.5471 0.98971,-0.98972c0.20865,-0.62595 -0.20865,-1.35348 0,-1.97942c0.14754,-0.44261 0.80297,-0.56216 0.98971,-0.98971c0.37581,-0.86039 -0.2272,-1.89432 -0.04937,-2.8162c0.56149,-2.91079 1.08658,-5.81616 1.46546,-8.82164c0.45809,-3.63377 2.00433,-7.06422 1.97178,-10.74285c0.02236,-4.79445 0.00012,-9.52491 0.00003,-14.35279c-0.00004,-1.86581 0.40837,-4.37146 0.02672,-6.20141c-0.97677,-4.6835 -2.39614,-9.17861 -3.93428,-13.7695c-0.16495,-0.49486 -0.3299,-0.98971 -0.49486,-1.48457l-0.05132,-1.30594c0,0 0,-1 1,-1z" fill="#6c2900" stroke="none" stroke-width="0.5"/><path d="M245.01327,247.92029c-1,0 -1,-1 -1,-1v-0.49486c0,-2.03439 -0.00417,-4.06849 0.01767,-6.10278c1.2583,-5.04409 3.15148,-10.16813 4.00786,-15.30898c1.09082,-6.54819 0.73447,-13.37403 2.03479,-19.87567c1.21619,-6.03492 1.8173,-14.18446 0.21591,-20.19855c-0.33336,-1.25197 -1.25986,-2.27094 -1.75312,-3.46896c-1.15564,-2.80684 -2.05211,-5.58686 -3.42783,-8.33139c0,0 -0.44721,-0.89443 0.44721,-1.34164c0.89443,-0.44721 1.34164,0.44721 1.34164,0.44721c1.3956,2.79782 2.31748,5.63555 3.50016,8.49372c0.18738,0.45284 1.73147,3.33674 1.82459,3.68645c1.68623,6.33273 1.07468,14.75001 -0.18741,21.1054c-1.2954,6.477 -0.93956,13.28399 -2.02303,19.8115c-0.84836,5.11102 -2.74007,10.21935 -3.99655,15.23166c-0.00265,1.95068 -0.00189,3.90136 -0.00189,5.85205v0.49486c0,0 0,1 -1,1z" fill="#6c2900" stroke="none" stroke-width="0.5"/><path d="M255.193,174.45906c0.70711,-0.70711 1.41421,0 1.41421,0l0.23496,0.30754c2.4451,1.38288 4.4738,8.18708 4.97974,11.05665c0.30442,1.72659 -0.49445,2.95991 -0.4681,4.68346c-0.02603,3.2342 -0.95559,6.4041 -1.49748,9.56244c-0.86134,5.02025 -0.52105,10.34346 -1.4984,15.41011c-0.44187,2.29071 -0.98012,4.7753 -0.96296,7.19308c0,3.22351 -0.47037,5.96538 -1.00263,9.0676c-0.67684,3.94492 0.61013,7.78014 0.99776,11.61783c0.30156,2.98564 -0.01169,5.85471 0.48612,8.84154c0,0 0.1644,0.98639 -0.822,1.15079c-0.9864,0.1644 -1.15079,-0.82199 -1.15079,-0.82199c-0.50517,-3.03102 -0.20065,-5.9475 -0.50359,-8.97327c-0.40345,-4.02964 -1.65363,-7.99405 -0.98167,-12.13527c0.48857,-3.01101 0.9768,-5.62239 0.9768,-8.74723c0.01549,-2.56741 0.50797,-5.21437 1.01647,-7.65259c1.03765,-4.97546 0.66503,-10.30553 1.47073,-15.27097c0.49306,-3.03863 1.50274,-6.14042 1.47165,-9.24208c0.01303,-1.07598 0.77535,-3.16347 0.5216,-4.22395c-0.41641,-1.74032 -1.37719,-3.62394 -1.95485,-5.35694c-0.38932,-1.16795 -0.75294,-3.91277 -1.97281,-4.37036l-0.75475,-0.68218c0,0 -0.70711,-0.7071 0,-1.41421z" fill="#6c2900" stroke="none" stroke-width="0.5"/><path d="M214.57963,81.63836c5.77062,0 10.51591,4.38994 11.07845,10.01241c-0.98783,0.13266 -1.97566,0.26793 -2.95996,0.39848c-0.61543,-1.24668 -0.99905,-2.68263 -2.03718,-3.58422c-3.42531,-2.97477 -6.74023,-1.60423 -10.47914,-0.85645c0,0 -3.43203,0.68641 -2.74562,4.11844c0.04964,0.24819 0.11364,0.47485 0.18966,0.68179c-1.36407,-0.31275 -2.72902,-0.70967 -4.09574,-1.01658c0.67982,-5.49793 5.36766,-9.75388 11.04953,-9.75388z" fill="#41bb52" stroke="#000000" stroke-width="0"/><path d="M247.73498,109.84516c5.77062,0 10.51591,4.38994 11.07844,10.01241c-0.98784,0.13266 -1.97566,0.26793 -2.95996,0.39848c-0.61543,-1.24668 -0.99905,-2.68263 -2.03718,-3.58422c-3.42531,-2.97477 -6.74022,-1.60423 -10.47913,-0.85645c0,0 -3.43203,0.68641 -2.74563,4.11844c0.04964,0.24819 0.11364,0.47486 0.18966,0.68179c-1.36407,-0.31275 -2.72902,-0.70968 -4.09574,-1.01658c0.67982,-5.49793 5.36767,-9.75388 11.04954,-9.75388z" fill="#41bb52" stroke="#000000" stroke-width="0"/><path d="M290.78746,78.66923c5.77062,0 10.51591,4.38994 11.07844,10.01241c-0.98784,0.13266 -1.97565,0.26792 -2.95995,0.39848c-0.61543,-1.24668 -0.99905,-2.68263 -2.03719,-3.58422c-3.42531,-2.97477 -6.74023,-1.60422 -10.47913,-0.85644c0,0 -3.43203,0.68641 -2.74563,4.11844c0.04964,0.24819 0.11364,0.47485 0.18966,0.68179c-1.36407,-0.31275 -2.72902,-0.70968 -4.09574,-1.01658c0.67982,-5.49793 5.36766,-9.75388 11.04953,-9.75388z" fill="#41bb52" stroke="#000000" stroke-width="0"/><path d="M285.8389,129.63941c5.77062,0 10.51591,4.38994 11.07844,10.01241c-0.98784,0.13266 -1.97566,0.26793 -2.95996,0.39848c-0.61543,-1.24669 -0.99905,-2.68263 -2.03718,-3.58422c-3.42531,-2.97476 -6.74023,-1.60423 -10.47913,-0.85645c0,0 -3.43203,0.68641 -2.74563,4.11844c0.04964,0.2482 0.11364,0.47486 0.18966,0.68179c-1.36407,-0.31276 -2.72902,-0.70968 -4.09574,-1.01658c0.67982,-5.49793 5.36767,-9.75388 11.04954,-9.75388z" fill="#41bb52" stroke="#000000" stroke-width="0"/><path d="M241.79671,69.76182c5.77062,0 10.51591,4.38994 11.07845,10.01241c-0.98783,0.13266 -1.97566,0.26792 -2.95996,0.39848c-0.61543,-1.24668 -0.99905,-2.68263 -2.03718,-3.58422c-3.42531,-2.97477 -6.74023,-1.60422 -10.47914,-0.85644c0,0 -3.43203,0.68641 -2.74562,4.11844c0.04964,0.24819 0.11364,0.47486 0.18966,0.68179c-1.36407,-0.31275 -2.72902,-0.70968 -4.09574,-1.01658c0.67982,-5.49793 5.36766,-9.75388 11.04953,-9.75388z" fill="#41bb52" stroke="#000000" stroke-width="0"/><path d="M282.37491,46.50359c5.77062,0 10.51591,4.38994 11.07844,10.01241c-0.98784,0.13266 -1.97565,0.26793 -2.95995,0.39848c-0.61543,-1.24668 -0.99905,-2.68263 -2.03719,-3.58422c-3.42531,-2.97476 -6.74023,-1.60422 -10.47913,-0.85645c0,0 -3.43203,0.68641 -2.74563,4.11844c0.04964,0.2482 0.11364,0.47485 0.18966,0.68179c-1.36407,-0.31276 -2.72902,-0.70967 -4.09574,-1.01658c0.67982,-5.49793 5.36766,-9.75388 11.04953,-9.75388z" fill="#41bb52" stroke="#000000" stroke-width="0"/><path d="M222.49732,124.69085c5.77062,0 10.51591,4.38995 11.07844,10.01241c-0.98783,0.13266 -1.97565,0.26792 -2.95995,0.39848c-0.61543,-1.24669 -0.99905,-2.68263 -2.03719,-3.58422c-3.42531,-2.97476 -6.74022,-1.60422 -10.47913,-0.85644c0,0 -3.43203,0.68641 -2.74562,4.11844c0.04964,0.2482 0.11364,0.47486 0.18966,0.68179c-1.36407,-0.31276 -2.72902,-0.70968 -4.09574,-1.01658c0.67982,-5.49793 5.36766,-9.75388 11.04953,-9.75388z" fill="#41bb52" stroke="#000000" stroke-width="0"/><path d="M309.09713,99.45318c5.77062,0 10.51591,4.38994 11.07844,10.01241c-0.98783,0.13266 -1.97566,0.26792 -2.95995,0.39848c-0.61544,-1.24669 -0.99905,-2.68263 -2.03719,-3.58422c-3.42531,-2.97477 -6.74023,-1.60423 -10.47914,-0.85645c0,0 -3.43203,0.68641 -2.74562,4.11844c0.04964,0.2482 0.11364,0.47485 0.18966,0.68179c-1.36407,-0.31275 -2.72902,-0.70967 -4.09574,-1.01658c0.67982,-5.49793 5.36766,-9.75388 11.04953,-9.75388z" fill="#41bb52" stroke="#000000" stroke-width="0"/><path d="M197.25966,102.42232c5.77062,0 10.51591,4.38994 11.07845,10.01241c-0.98783,0.13266 -1.97566,0.26793 -2.95996,0.39848c-0.61543,-1.24668 -0.99905,-2.68263 -2.03718,-3.58422c-3.42531,-2.97477 -6.74023,-1.60423 -10.47914,-0.85645c0,0 -3.43203,0.68641 -2.74562,4.11844c0.04964,0.24819 0.11364,0.47485 0.18966,0.68179c-1.36407,-0.31275 -2.72902,-0.70967 -4.09574,-1.01658c0.67982,-5.49793 5.36766,-9.75388 11.04953,-9.75388z" fill="#41bb52" stroke="#000000" stroke-width="0"/><path d="M196.26995,64.81326c5.77062,0 10.51591,4.38994 11.07845,10.01241c-0.98783,0.13266 -1.97566,0.26792 -2.95996,0.39848c-0.61543,-1.24669 -0.99905,-2.68263 -2.03718,-3.58422c-3.42531,-2.97476 -6.74023,-1.60423 -10.47914,-0.85645c0,0 -3.43203,0.68641 -2.74562,4.11844c0.04964,0.2482 0.11364,0.47485 0.18966,0.68179c-1.36407,-0.31276 -2.72902,-0.70968 -4.09574,-1.01658c0.67982,-5.49793 5.36766,-9.75388 11.04953,-9.75388z" fill="#41bb52" stroke="#000000" stroke-width="0"/><path d="M249.71441,48.48301c5.77062,0 10.51591,4.38994 11.07845,10.01241c-0.98784,0.13266 -1.97566,0.26793 -2.95996,0.39848c-0.61543,-1.24668 -0.99905,-2.68263 -2.03718,-3.58422c-3.42531,-2.97477 -6.74023,-1.60423 -10.47914,-0.85645c0,0 -3.43203,0.68641 -2.74562,4.11844c0.04964,0.24819 0.11364,0.47485 0.18966,0.68179c-1.36407,-0.31275 -2.72902,-0.70967 -4.09574,-1.01658c0.67982,-5.49793 5.36766,-9.75388 11.04953,-9.75388z" fill="#41bb52" stroke="#000000" stroke-width="0"/></g></g></g></svg>