<svg version="1.1" xmlns="http://www.w3.org/2000/svg" xmlns:xlink="http://www.w3.org/1999/xlink" width="128.98507" height="221.51968" viewBox="0,0,128.98507,221.51968"><defs><linearGradient x1="287.1839" y1="147.4002" x2="271.80962" y2="163.33388" gradientUnits="userSpaceOnUse" id="color-1"><stop offset="0" stop-color="#ff3100"/><stop offset="1" stop-color="#f7ff00"/></linearGradient></defs><g transform="translate(-200.8525,-105.98648)"><g data-paper-data="{&quot;isPaintingLayer&quot;:true}" fill-rule="nonzero" stroke-linejoin="miter" stroke-miterlimit="10" stroke-dasharray="" stroke-dashoffset="0" style="mix-blend-mode: normal"><g><path d="M230.85211,157.04835l47.56379,-49.29438l49.6542,47.91097l-47.56379,49.29438z" fill="#000000" stroke="#2b005d" stroke-width="2.5" stroke-linecap="butt"/><path d="M301.04429,182.81318l-39.53639,-38.72659l26.30277,-26.66054" fill="none" stroke="#2b005d" stroke-width="2.5" stroke-linecap="round"/><path d="M268.13726,119.83749l28.76711,28.91362l-14.4463,14.97192" fill="none" stroke="#2b005d" stroke-width="2.5" stroke-linecap="round"/><path d="M273.77437,155.34418l-20.80266,21.55956" fill="none" stroke="#2b005d" stroke-width="2.5" stroke-linecap="round"/><path d="M279.83164,181.42652l-21.27064,-21.1021" fill="none" stroke="#2b005d" stroke-width="2.5" stroke-linecap="round"/><path d="M292.45089,168.09722c-7.40924,7.67883 -19.13446,8.38569 -26.18899,1.57883c-7.05453,-6.80686 -6.76698,-18.54985 0.64226,-26.22867c7.40924,-7.67883 19.13446,-8.38569 26.18899,-1.57883c7.05453,6.80686 6.76698,18.54985 -0.64226,26.22867z" fill="#ff0000" stroke="#000000" stroke-width="2.5" stroke-linecap="butt"/><path d="M286.81588,162.42921c-4.24549,4.39996 -10.96402,4.805 -15.00626,0.90467c-4.04224,-3.90033 -3.87748,-10.62904 0.36802,-15.029c4.24549,-4.39996 10.96402,-4.805 15.00626,-0.90467c4.04224,3.90033 3.87747,10.62904 -0.36802,15.029z" fill="url(#color-1)" stroke="#000000" stroke-width="0" stroke-linecap="butt"/><path d="M284.71744,159.5371c-2.72958,2.82889 -7.04917,3.08931 -9.64808,0.58164c-2.59891,-2.50767 -2.49298,-6.8338 0.23661,-9.6627c2.72958,-2.82889 7.04917,-3.08931 9.64808,-0.58164c2.59891,2.50767 2.49297,6.8338 -0.23661,9.6627z" fill="#2b005d" stroke="#000000" stroke-width="0" stroke-linecap="butt"/></g><path d="M210.00846,326.25616v-68.5h69v68.5z" fill="#000000" stroke="#2b005d" stroke-width="2.5" stroke-linecap="butt"/><path d="M278.41069,296.05843l-55.34168,-0.4161l0.41611,-37.44926" fill="none" stroke="#2b005d" stroke-width="2.5" stroke-linecap="round"/><path d="M211.00203,273.58888l40.77808,0.8322v20.80514" fill="none" stroke="#2b005d" stroke-width="2.5" stroke-linecap="round"/><path d="M239.71313,325.18562v-29.9594" fill="none" stroke="#2b005d" stroke-width="2.5" stroke-linecap="round"/><path d="M262.18267,309.78982l-29.9594,-0.4161" fill="none" stroke="#2b005d" stroke-width="2.5" stroke-linecap="round"/><path d="M262.00846,291.43537c0,10.67058 -7.94695,19.3208 -17.75,19.3208c-9.80305,0 -17.75,-8.65022 -17.75,-19.3208c0,-10.67058 7.94695,-19.3208 17.75,-19.3208c9.80305,0 17.75,8.65022 17.75,19.3208z" fill="#ff0000" stroke="#000000" stroke-width="2.5" stroke-linecap="butt"/><path d="M202.1025,257.5992v-68.5h69v68.5z" fill="#000000" stroke="#2b005d" stroke-width="2.5" stroke-linecap="butt"/><path d="M270.50473,227.40145l-55.34168,-0.4161l0.41611,-37.44925" fill="none" stroke="#2b005d" stroke-width="2.5" stroke-linecap="round"/><path d="M203.09607,204.9319l40.77808,0.83221v20.80515" fill="none" stroke="#2b005d" stroke-width="2.5" stroke-linecap="round"/><path d="M231.80717,226.56926v29.95941" fill="none" stroke="#2b005d" stroke-width="2.5" stroke-linecap="round"/><path d="M224.31732,240.71675l29.95941,0.4161" fill="none" stroke="#2b005d" stroke-width="2.5" stroke-linecap="round"/><path d="M252.25,223.03754c0,10.67058 -7.94694,19.3208 -17.75,19.3208c-9.80305,0 -17.75,-8.65022 -17.75,-19.3208c0,-10.67058 7.94695,-19.3208 17.75,-19.3208c9.80306,0 17.75,8.65022 17.75,19.3208z" fill="#ff0000" stroke="#000000" stroke-width="2.5" stroke-linecap="butt"/></g></g></svg>