<svg version="1.1" xmlns="http://www.w3.org/2000/svg" xmlns:xlink="http://www.w3.org/1999/xlink" width="740" height="619" viewBox="0,0,740,619"><defs><linearGradient x1="240" y1="-129.5" x2="240" y2="489.5" gradientUnits="userSpaceOnUse" id="color-1"><stop offset="0" stop-color="#00ffe7"/><stop offset="1" stop-color="#1012fd"/></linearGradient></defs><g transform="translate(130,129.5)"><g data-paper-data="{&quot;isPaintingLayer&quot;:true}" stroke-miterlimit="10" stroke-dasharray="" stroke-dashoffset="0" style="mix-blend-mode: normal"><g><path d="M-130,489.5v-619h740v619z" fill="url(#color-1)" fill-rule="nonzero" stroke="none" stroke-width="0" stroke-linecap="butt" stroke-linejoin="miter"/><text transform="translate(-0.39067,356.49715) rotate(0.32571) scale(0.31048,0.37293) skewX(0.9909)" font-size="40" xml:space="preserve" fill="#000000" fill-rule="nonzero" stroke="none" stroke-width="1" stroke-linecap="butt" stroke-linejoin="miter" stroke-miterlimit="10" stroke-dasharray="" stroke-dashoffset="0" font-family="Pixel" font-weight="normal" text-anchor="start" style="mix-blend-mode: normal"><tspan x="0" dy="0">©2023 Microzeg</tspan></text><text transform="translate(269.1344,-35.50443) rotate(-179.02799) scale(0.10316,0.72156) skewX(4.50157)" font-size="40" xml:space="preserve" fill="#00ff22" fill-rule="nonzero" stroke="none" stroke-width="1" stroke-linecap="butt" stroke-linejoin="miter" stroke-miterlimit="10" stroke-dasharray="" stroke-dashoffset="0" font-family="Pixel" font-weight="normal" text-anchor="start" style="mix-blend-mode: normal"><tspan x="0" dy="0">https://scratch.mit.edu/projects/774252052</tspan></text><g stroke="#000000"><path d="M141.64394,219.18275c2.81333,-14.43376 16.79488,-23.85397 31.22862,-21.04065c14.43374,2.81332 23.85398,16.79486 21.04065,31.22862c-2.81333,14.43376 -16.79488,23.85397 -31.22862,21.04065c-14.43374,-2.81332 -23.85398,-16.79484 -21.04065,-31.22862z" fill="#ffeaa2" fill-rule="nonzero" stroke-width="4" stroke-linecap="butt" stroke-linejoin="miter"/><path d="M284.1848,147.78611c2.81333,-14.43376 16.79485,-23.85398 31.22861,-21.04065c14.43376,2.81333 23.85399,16.79484 21.04066,31.22862c-2.81333,14.43379 -16.79486,23.85398 -31.22862,21.04065c-14.43376,-2.81333 -23.85398,-16.79484 -21.04065,-31.22861z" fill="#ffeaa2" fill-rule="nonzero" stroke-width="4" stroke-linecap="butt" stroke-linejoin="miter"/><path d="M176.30483,242.63078l13.7679,-79.46233l57.17497,11.14415l-14.2679,77.46234c0,0 -19.2785,-0.6502 -28.99865,-2.4441c-9.49979,-1.75322 -27.67632,-6.70006 -27.67632,-6.70006z" fill="#ff0000" fill-rule="nonzero" stroke-width="1.2" stroke-linecap="butt" stroke-linejoin="miter"/><path d="M274.12257,151.92375c-3.78481,19.41795 -28.33189,30.97281 -54.82741,25.80848c-26.49553,-5.16432 -44.90618,-25.09222 -41.12137,-44.51016c3.78482,-19.41795 28.33189,-30.9728 54.8274,-25.80847c26.49552,5.16433 44.90621,25.0922 41.12139,44.51015z" fill="#ffeaa2" fill-rule="nonzero" stroke-width="1.2" stroke-linecap="butt" stroke-linejoin="miter"/><path d="M227.64141,136.33081c-15.78738,-4.26422 -41.08689,8.80799 -49.88194,-14.07514c-8.83219,-22.69252 18.43631,-45.86646 62.70369,-27.34619c34.11399,13.77148 39.43621,35.1864 35.03147,45.60473c-4.40474,10.4183 -18.22476,11.28572 -18.22476,11.28572c-16.90672,0.46363 -16.09107,-11.84129 -29.62846,-15.46911z" data-paper-data="{&quot;index&quot;:null}" fill="#ffffff" fill-rule="evenodd" stroke-width="1.5" stroke-linecap="butt" stroke-linejoin="miter"/><path d="M264.45243,129.78186c-1.05349,5.40489 -5.84623,9.06086 -10.75972,8.10315c-4.91349,-0.95771 -7.98237,-6.14601 -6.9289,-11.55088c1.05349,-5.40489 5.84622,-9.06084 10.75972,-8.10313c4.81772,1.44904 7.98237,6.14601 6.92889,11.55089" fill="#008eff" fill-rule="evenodd" stroke-width="2" stroke-linecap="butt" stroke-linejoin="miter"/><path d="M221.18127,162.11337c0,0 -16.9207,-0.06337 -22.68567,-3.71586c-5.84057,-3.70039 -12.13389,-18.34467 -12.13389,-18.34467c0,0 6.96192,14.51539 12.71357,18.15945c5.85311,3.70833 22.106,3.90107 22.106,3.90107z" fill="#ffffff" fill-rule="evenodd" stroke-width="3" stroke-linecap="round" stroke-linejoin="round"/><path d="M216.21007,117.91264c-1.05348,5.40489 -5.84623,9.06085 -10.75972,8.10315c-4.91349,-0.95771 -7.98237,-6.14601 -6.92889,-11.55088c1.05348,-5.40489 5.84622,-9.06084 10.75972,-8.10313c4.81772,1.44904 7.98237,6.14601 6.92889,11.55089" fill="#008eff" fill-rule="evenodd" stroke-width="2" stroke-linecap="butt" stroke-linejoin="miter"/></g><path d="M478.90264,345.36186c0,1.50462 5.02139,10.73616 11.23792,12.06024c3.78031,0.80519 8.59743,-6.96493 11.27859,-4.8588c8.32262,6.53764 8.36922,19.51631 6.1773,22.28795c-8.88678,11.23719 -37.20358,5.57115 -61.20342,9.66494c-14.47434,2.46898 -33.89257,-1.86983 -50.52453,-1.86983c-7.85666,0 -9.45587,8.77309 -16.93033,7.70763c-15.79439,-2.25144 -31.84287,-11.94988 -44.01017,-15.25282c-11.9695,-3.24926 -21.29167,-3.43641 -27.95044,-9.19112c-6.52951,-5.643 -9.24579,-15.74885 -9.24579,-22.43601c0,-7.34618 -7.38172,-12.37375 0.4041,-18.42055c8.92656,-6.93274 35.49594,-9.42002 51.69843,-13.40941c10.83944,-2.66889 19.64977,-18.21818 32.56525,-19.07688c5.30909,-0.35298 12.64143,7.95887 18.1885,7.95887c5.11237,0 24.81989,-7.19169 29.72239,-4.41719c7.3908,4.18272 -0.2454,19.00244 5.87669,19.68652c17.67409,1.97487 29.97723,-7.64915 37.2152,-0.2005c7.07074,7.27656 5.50031,20.69097 5.50031,29.76696z" fill="#03ff00" fill-rule="nonzero" stroke="none" stroke-width="0" stroke-linecap="butt" stroke-linejoin="miter"/><g fill-rule="nonzero" stroke-linecap="butt" stroke-linejoin="miter"><path d="M373.65953,342.20603c0,0 7.96503,-10.10938 10.09737,-18.97539c0.82608,-3.43472 -0.05699,-9.77708 1.73443,-13.21233c1.9994,-3.83408 6.64265,-4.73455 6.64265,-7.99885c0,-5.72765 -4.47169,-14.89478 -6.45398,-23.08473c-0.85867,-3.54762 3.26303,-9.25626 2.39889,-12.37929c-2.03762,-7.36407 -8.82103,-10.56344 -8.82103,-10.56344h39.1882c0,0 2.17392,5.94195 0.18589,12.40868c-1.05644,3.43643 -6.90386,6.21758 -6.90386,10.10588c0,7.57061 6.71797,14.48524 6.71797,20.15393c0,3.50162 -5.00178,6.70801 -6.59038,10.68905c-1.48712,3.72675 0.43223,8.20159 0.43223,12.26402c0,8.62449 6.15815,17.79331 6.15815,17.79331c0,0 -5.55619,6.15815 -14.2757,6.15815c-3.52451,0 -6.07839,5.33008 -9.82907,3.52501c-1.56368,-0.75255 -13.48564,-0.16603 -14.24368,-0.16603c-3.77287,0 -6.43806,-6.71797 -6.43806,-6.71797z" fill="#7b3000" stroke="none" stroke-width="0"/><path d="M448.95684,250.7949c0,6.07543 -5.38187,8.03533 -8.91561,13.18464c-3.6688,5.34612 -1.12851,16.62399 -7.48143,19.80156c-6.0567,3.02942 -19.23096,3.68274 -26.70997,3.68274c-6.14132,0 -11.22527,-8.26963 -19.47101,-11.50984c-6.47475,-2.5443 -14.72207,-1.30591 -18.51141,-4.76635c-9.36365,-8.55089 -6.80408,-18.64915 -6.80408,-28.2304c0,-8.42126 5.56609,-9.95447 11.9757,-15.81954c3.95198,-3.61624 11.81395,1.29945 17.51007,-0.67121c5.2471,-1.81532 8.23244,-10.66106 14.18107,-10.66106c5.71722,0 16.76227,-4.10729 21.71669,-2.42323c8.70075,2.95747 10.2849,19.43344 14.74775,26.06873c3.16579,4.70683 7.76224,5.6173 7.76224,11.34397z" fill="#4bd45d" stroke="none" stroke-width="0"/><path d="M448.95684,250.7949c0,6.07543 -5.38187,8.03533 -8.91561,13.18464c-3.6688,5.34612 -1.12851,16.62399 -7.48143,19.80156c-6.0567,3.02942 -19.23096,3.68274 -26.70997,3.68274c-6.14132,0 -11.22527,-8.26963 -19.47101,-11.50984c-6.47475,-2.5443 -14.72207,-1.30591 -18.51141,-4.76635c-9.36365,-8.55089 -6.80408,-18.64915 -6.80408,-28.2304c0,-8.42126 5.56609,-9.95447 11.9757,-15.81954c3.95198,-3.61624 11.81395,1.29945 17.51007,-0.67121c5.2471,-1.81532 8.23244,-10.66106 14.18107,-10.66106c5.71722,0 16.76227,-4.10729 21.71669,-2.42323c8.70075,2.95747 10.2849,19.43344 14.74775,26.06873c3.16579,4.70683 7.76224,5.6173 7.76224,11.34397z" fill="#4bd45d" stroke="none" stroke-width="0"/><path d="M386.70434,338.21669c-0.55983,0 -0.55984,-0.55984 -0.55984,-0.55984v-0.27704c0,-1.91679 0.53724,-3.50778 0.83834,-5.35336c0.16652,-1.02069 0.09123,-2.14516 0.56182,-3.08634c-0.02325,-2.19065 1.0315,-4.21252 1.37743,-6.33288c0.25183,-1.54363 0.23929,-3.18326 0.56182,-4.74856c0.40316,-1.9567 1.66566,-4.16045 2.52095,-5.90338c0.85187,-2.57004 1.65201,-4.82119 2.18864,-7.39435c0.54901,-2.63247 -0.30377,-5.69438 -0.28478,-8.36982c-0.55318,-1.65953 -0.49906,-3.53482 -0.82336,-5.22473c-0.21019,-1.09525 -0.94106,-2.19947 -1.35754,-3.23881c-0.57987,-1.44706 -0.94424,-3.00194 -1.64572,-4.39645c0,0 -0.25037,-0.50074 0.25037,-0.75109c0.50074,-0.25037 0.75109,0.25037 0.75109,0.25037c0.70811,1.42382 1.09017,2.99444 1.67871,4.4687c0.43977,1.10162 1.17172,2.24618 1.41282,3.41005c0.35595,1.71837 0.27434,3.60911 0.83885,5.30262c0.01714,2.84007 0.81108,5.99771 0.26929,8.80642c-0.50665,2.62645 -1.36896,4.95405 -2.24392,7.56558c-0.83052,1.62679 -2.1092,3.88057 -2.46568,5.73214c-0.29642,1.5396 -0.28893,3.15648 -0.54632,4.67066c-0.36633,2.15508 -1.37164,4.18647 -1.39293,6.41078c-0.46391,0.92782 -0.37686,2.01155 -0.54632,3.00845c-0.30368,1.7865 -0.82389,3.32257 -0.82389,5.17401v0.27704c0,0 0,0.55984 -0.55983,0.55984z" fill="#6c2900" stroke="none" stroke-width="0.5"/><path d="M396.67763,287.78461c0.55983,0 0.55983,0.55983 0.55983,0.55983l-0.02873,0.37703c0.09235,0.27704 0.18468,0.55407 0.27704,0.83111c0.86115,2.59801 1.71758,5.14876 2.23005,7.80542c0.21941,1.13741 0.01497,2.57329 0.01498,3.72897c0.00003,1.70623 0.2852,3.30093 0.27697,4.99955c-0.00515,1.06299 -0.28274,1.98801 -0.27698,3.03561c-0.01523,2.11584 -0.85656,4.06504 -1.11243,6.15236c-0.2119,1.72862 -0.49277,3.38413 -0.84181,5.0577c-0.16358,0.78434 0.30145,0.86572 -0.02764,1.74783c-0.09129,0.24472 -0.47147,0.30628 -0.55407,0.55407c-0.11681,0.35043 0.11681,0.75772 0,1.10815c-0.0826,0.24778 -0.456,0.31199 -0.55407,0.55407c-0.30393,0.75026 -0.54658,1.9168 -0.83111,2.77036c-2.38414,4.76827 -2.61804,9.87189 -3.8526,14.88148c0,0 -0.13578,0.54312 -0.6789,0.40734c-0.54312,-0.13577 -0.40734,-0.6789 -0.40734,-0.6789c0.57165,-2.25047 0.71362,-4.59436 1.09595,-6.86116c0.29103,-1.72546 1.15003,-3.20796 1.69247,-4.8328c0.37693,-1.12909 0.57808,-2.26864 1.11599,-3.34444c0.28667,-0.86001 0.52303,-1.99141 0.83111,-2.77036c0.09606,-0.24288 0.47146,-0.30628 0.55407,-0.55408c0.11681,-0.35043 -0.11681,-0.75772 0,-1.10815c0.0826,-0.24778 0.44953,-0.31471 0.55407,-0.55407c0.21039,-0.48167 -0.1272,-1.0605 -0.02764,-1.5766c0.31434,-1.62955 0.60831,-3.25606 0.82041,-4.93863c0.25645,-2.0343 1.12209,-3.95477 1.10386,-6.01418c0.01251,-2.68408 0.00007,-5.33235 0.00002,-8.03514c-0.00002,-1.04454 0.22862,-2.44728 0.01496,-3.47174c-0.54682,-2.62197 -1.34143,-5.13848 -2.20254,-7.7086c-0.09235,-0.27704 -0.18468,-0.55407 -0.27704,-0.83111l-0.02873,-0.73111c0,0 0,-0.55983 0.55983,-0.55983z" fill="#6c2900" stroke="none" stroke-width="0.5"/><path d="M402.21835,335.72335c-0.55983,0 -0.55983,-0.55983 -0.55983,-0.55983v-0.27704c0,-1.13892 -0.00233,-2.27767 0.00989,-3.41653c0.70443,-2.82384 1.76429,-5.69244 2.24372,-8.57045c0.61067,-3.66587 0.41118,-7.48719 1.13914,-11.12702c0.68086,-3.37854 1.01738,-7.9409 0.12087,-11.30779c-0.18662,-0.70089 -0.70531,-1.27134 -0.98145,-1.94203c-0.64696,-1.57135 -1.14883,-3.1277 -1.919,-4.66417c0,0 -0.25037,-0.50074 0.25037,-0.75109c0.50074,-0.25037 0.75109,0.25037 0.75109,0.25037c0.7813,1.56631 1.29739,3.15495 1.9595,4.75505c0.10491,0.25351 0.96932,1.868 1.02146,2.06379c0.944,3.54527 0.60164,8.25752 -0.10491,11.81547c-0.7252,3.62603 -0.52599,7.43679 -1.13256,11.0911c-0.47494,2.86131 -1.53398,5.72111 -2.2374,8.52716c-0.00148,1.09205 -0.00105,2.18411 -0.00105,3.27616v0.27704c0,0 0,0.55983 -0.55983,0.55983z" fill="#6c2900" stroke="none" stroke-width="0.5"/><path d="M407.91728,294.59745c0.39586,-0.39586 0.79171,0 0.79171,0l0.13154,0.17217c1.36884,0.77418 2.50457,4.58339 2.78781,6.18986c0.17042,0.9666 -0.2768,1.65705 -0.26206,2.62194c-0.01457,1.81061 -0.53497,3.58522 -0.83834,5.35335c-0.48221,2.8105 -0.2917,5.79059 -0.83885,8.62707c-0.24737,1.28241 -0.5487,2.67336 -0.5391,4.02691c0,1.80462 -0.26333,3.3396 -0.56131,5.07632c-0.37892,2.2085 0.34157,4.35557 0.55858,6.50403c0.16882,1.67145 -0.00655,3.27765 0.27214,4.94977c0,0 0.09204,0.55221 -0.46018,0.64425c-0.55222,0.09204 -0.64425,-0.46018 -0.64425,-0.46018c-0.28281,-1.69687 -0.11234,-3.3296 -0.28193,-5.02352c-0.22586,-2.25592 -0.92576,-4.47533 -0.54957,-6.79371c0.27352,-1.68566 0.54684,-3.14759 0.54684,-4.89698c0.00867,-1.43731 0.28438,-2.91917 0.56904,-4.28416c0.58091,-2.78542 0.3723,-5.76936 0.82336,-8.54917c0.27603,-1.70112 0.84128,-3.43761 0.82387,-5.17401c0.00729,-0.60236 0.43406,-1.77101 0.29201,-2.3647c-0.23312,-0.97428 -0.771,-2.0288 -1.09439,-2.99898c-0.21795,-0.65385 -0.42152,-2.19049 -1.10444,-2.44667l-0.42253,-0.3819c0,0 -0.39586,-0.39585 0,-0.79171z" fill="#6c2900" stroke="none" stroke-width="0.5"/><path d="M385.18065,242.6335c3.23057,0 5.88713,2.45763 6.20207,5.60526c-0.55301,0.07427 -1.10604,0.14999 -1.65708,0.22307c-0.34454,-0.69793 -0.5593,-1.50183 -1.14048,-2.00656c-1.9176,-1.66536 -3.77339,-0.8981 -5.86655,-0.47946c0,0 -1.92136,0.38427 -1.53708,2.30563c0.02779,0.13894 0.06362,0.26584 0.10618,0.38169c-0.76365,-0.17508 -1.52779,-0.3973 -2.29292,-0.56911c0.38058,-3.07791 3.00499,-5.46052 6.18587,-5.46052z" fill="#41bb52" stroke="#000000" stroke-width="0"/><path d="M403.74205,258.42454c3.23057,0 5.88713,2.45763 6.20205,5.60526c-0.55302,0.07427 -1.10604,0.14999 -1.65708,0.22308c-0.34454,-0.69793 -0.5593,-1.50182 -1.14048,-2.00656c-1.9176,-1.66536 -3.77339,-0.8981 -5.86654,-0.47946c0,0 -1.92136,0.38427 -1.53709,2.30563c0.02779,0.13894 0.06362,0.26584 0.10618,0.38169c-0.76365,-0.17508 -1.52779,-0.3973 -2.29293,-0.56911c0.38058,-3.07791 3.00499,-5.46052 6.18588,-5.46052z" fill="#41bb52" stroke="#000000" stroke-width="0"/><path d="M427.84418,240.9713c3.23057,0 5.88713,2.45763 6.20205,5.60526c-0.55302,0.07427 -1.10603,0.14999 -1.65707,0.22308c-0.34454,-0.69793 -0.5593,-1.50183 -1.14048,-2.00656c-1.9176,-1.66536 -3.77339,-0.89809 -5.86654,-0.47946c0,0 -1.92136,0.38427 -1.53709,2.30563c0.02779,0.13894 0.06362,0.26584 0.10618,0.38169c-0.76365,-0.17508 -1.52779,-0.3973 -2.29293,-0.56911c0.38058,-3.07791 3.00499,-5.46052 6.18587,-5.46052z" fill="#41bb52" stroke="#000000" stroke-width="0"/><path d="M425.07383,269.506c3.23057,0 5.88713,2.45763 6.20205,5.60526c-0.55302,0.07427 -1.10604,0.14999 -1.65708,0.22308c-0.34454,-0.69793 -0.5593,-1.50183 -1.14048,-2.00656c-1.9176,-1.66536 -3.77339,-0.8981 -5.86654,-0.47946c0,0 -1.92136,0.38427 -1.53709,2.30563c0.02779,0.13895 0.06362,0.26584 0.10618,0.38169c-0.76365,-0.17509 -1.52779,-0.3973 -2.29293,-0.56911c0.38058,-3.07791 3.00499,-5.46052 6.18587,-5.46052z" fill="#41bb52" stroke="#000000" stroke-width="0"/><path d="M400.41762,235.98465c3.23057,0 5.88713,2.45763 6.20207,5.60526c-0.55301,0.07427 -1.10604,0.14999 -1.65708,0.22307c-0.34454,-0.69793 -0.5593,-1.50183 -1.14048,-2.00656c-1.9176,-1.66536 -3.77339,-0.89809 -5.86655,-0.47946c0,0 -1.92136,0.38427 -1.53708,2.30563c0.02779,0.13894 0.06362,0.26584 0.10618,0.38169c-0.76365,-0.17508 -1.52779,-0.3973 -2.29293,-0.56912c0.38058,-3.07791 3.00499,-5.46052 6.18587,-5.46052z" fill="#41bb52" stroke="#000000" stroke-width="0"/><path d="M423.13457,222.96396c3.23057,0 5.88713,2.45763 6.20205,5.60526c-0.55302,0.07427 -1.10603,0.14999 -1.65707,0.22307c-0.34454,-0.69793 -0.5593,-1.50183 -1.14048,-2.00656c-1.9176,-1.66536 -3.77339,-0.89809 -5.86654,-0.47946c0,0 -1.92136,0.38427 -1.53709,2.30563c0.02779,0.13895 0.06362,0.26584 0.10618,0.38169c-0.76365,-0.17509 -1.52779,-0.39729 -2.29293,-0.56911c0.38058,-3.07791 3.00499,-5.46052 6.18587,-5.46052z" fill="#41bb52" stroke="#000000" stroke-width="0"/><path d="M389.61322,266.73565c3.23057,0 5.88713,2.45764 6.20205,5.60526c-0.55301,0.07427 -1.10603,0.14999 -1.65707,0.22307c-0.34454,-0.69793 -0.5593,-1.50183 -1.14048,-2.00656c-1.9176,-1.66536 -3.77339,-0.89809 -5.86655,-0.47946c0,0 -1.92136,0.38427 -1.53708,2.30563c0.02779,0.13895 0.06362,0.26584 0.10618,0.38169c-0.76365,-0.17509 -1.52779,-0.3973 -2.29293,-0.56911c0.38058,-3.07791 3.00499,-5.46052 6.18587,-5.46052z" fill="#41bb52" stroke="#000000" stroke-width="0"/><path d="M438.0945,252.6068c3.23057,0 5.88713,2.45763 6.20205,5.60526c-0.55301,0.07427 -1.10604,0.14999 -1.65707,0.22307c-0.34454,-0.69793 -0.5593,-1.50182 -1.14048,-2.00656c-1.9176,-1.66536 -3.77339,-0.8981 -5.86655,-0.47946c0,0 -1.92136,0.38427 -1.53708,2.30563c0.02779,0.13895 0.06362,0.26584 0.10618,0.38169c-0.76365,-0.17508 -1.52779,-0.3973 -2.29293,-0.56911c0.38058,-3.07791 3.00499,-5.46052 6.18587,-5.46052z" fill="#41bb52" stroke="#000000" stroke-width="0"/><path d="M375.48438,254.269c3.23057,0 5.88713,2.45763 6.20207,5.60526c-0.55301,0.07427 -1.10604,0.14999 -1.65708,0.22308c-0.34454,-0.69793 -0.5593,-1.50183 -1.14048,-2.00656c-1.9176,-1.66536 -3.77339,-0.8981 -5.86655,-0.47946c0,0 -1.92136,0.38427 -1.53708,2.30563c0.02779,0.13894 0.06362,0.26584 0.10617,0.38169c-0.76365,-0.17508 -1.52779,-0.3973 -2.29292,-0.56911c0.38058,-3.07791 3.00499,-5.46052 6.18587,-5.46052z" fill="#41bb52" stroke="#000000" stroke-width="0"/><path d="M374.93032,233.21429c3.23057,0 5.88713,2.45763 6.20206,5.60526c-0.55301,0.07427 -1.10604,0.14999 -1.65708,0.22308c-0.34454,-0.69793 -0.5593,-1.50183 -1.14048,-2.00656c-1.9176,-1.66536 -3.77339,-0.8981 -5.86655,-0.47946c0,0 -1.92136,0.38427 -1.53708,2.30563c0.02779,0.13895 0.06362,0.26584 0.10618,0.38169c-0.76365,-0.17509 -1.52779,-0.3973 -2.29293,-0.56911c0.38058,-3.07791 3.00499,-5.46052 6.18587,-5.46052z" fill="#41bb52" stroke="#000000" stroke-width="0"/><path d="M404.8502,224.0721c3.23057,0 5.88713,2.45763 6.20207,5.60526c-0.55302,0.07427 -1.10604,0.14999 -1.65708,0.22307c-0.34454,-0.69793 -0.5593,-1.50182 -1.14048,-2.00656c-1.9176,-1.66536 -3.77339,-0.8981 -5.86655,-0.47947c0,0 -1.92136,0.38427 -1.53708,2.30563c0.02779,0.13894 0.06362,0.26584 0.10618,0.38169c-0.76365,-0.17509 -1.52779,-0.39729 -2.29293,-0.56911c0.38058,-3.07791 3.00499,-5.46052 6.18587,-5.46052z" fill="#41bb52" stroke="#000000" stroke-width="0"/></g><text transform="translate(136.5,349.71037) scale(0.8467,0.8467)" font-size="40" xml:space="preserve" fill="#efff00" fill-rule="nonzero" stroke="#ff0000" stroke-width="3" stroke-linecap="butt" stroke-linejoin="miter" stroke-miterlimit="10" stroke-dasharray="" stroke-dashoffset="0" font-family="Sans Serif" font-weight="normal" text-anchor="start" style="mix-blend-mode: normal"><tspan x="0" dy="0">BETA 0.1.3</tspan></text><text transform="translate(113.57973,315.40414) rotate(-0.19194) scale(1.74333,1.74333)" font-size="40" xml:space="preserve" fill="#10ff00" fill-rule="nonzero" stroke="#000000" stroke-width="2" stroke-linecap="butt" stroke-linejoin="miter" stroke-miterlimit="10" stroke-dasharray="" stroke-dashoffset="0" font-family="Sans Serif" font-weight="normal" text-anchor="start" style="mix-blend-mode: normal"><tspan x="0" dy="0">Survile</tspan></text><path d="M136.02451,259.09598v-29.5l39.5,12l34.5,17.5z" fill="#0a6ef4" fill-rule="nonzero" stroke="none" stroke-width="0" stroke-linecap="butt" stroke-linejoin="miter"/><g fill="none" stroke="#ff0000" stroke-width="12.5" stroke-linejoin="miter"><path d="M332.26209,-27.34799l-81.31785,51.82054" fill-rule="nonzero" stroke-linecap="round"/><path d="M109.42192,70.13295c31.22338,-64.34546 108.69721,-91.1962 173.04266,-59.97281c64.34546,31.22338 91.1962,108.6972 59.97282,173.04266c-31.22338,64.34546 -108.69721,91.1962 -173.04266,59.97282c-64.34546,-31.22338 -91.1962,-108.6972 -59.97281,-173.04265z" fill-rule="nonzero" stroke-linecap="butt"/><path d="M219.57866,58.00587c-15.67931,0.77698 -37.90248,22.69953 -49.62826,1.82966c-11.73343,-20.65961 10.8944,-53.72488 55.81593,-49.08545c34.5451,3.05506 42.74449,23.54499 40.06289,35.81987c-2.68159,12.27488 -15.73608,17.73365 -15.73608,17.73365c-16.05736,6.05726 -17.07402,-6.99378 -30.51455,-6.29777z" data-paper-data="{&quot;index&quot;:null}" fill-rule="evenodd" stroke-linecap="butt"/></g></g></g></g></svg>