<svg version="1.1" xmlns="http://www.w3.org/2000/svg" xmlns:xlink="http://www.w3.org/1999/xlink" width="38.85277" height="68.94857" viewBox="0,0,38.85277,68.94857"><g transform="translate(-219.63858,-154.73059)"><g data-paper-data="{&quot;isPaintingLayer&quot;:true}" stroke="#000000" stroke-miterlimit="10" stroke-dasharray="" stroke-dashoffset="0" style="mix-blend-mode: normal"><path d="M245.58678,165.34299c0,0 -0.16888,-2.40656 1.52867,-3.40744c1.69755,-1.00089 5.51838,-0.5756 8.6832,4.99792c4.21901,7.2174 0.84593,12.46071 -3.27647,11.45877c-4.15446,-0.99113 -2.48042,-5.66151 -3.58085,-8.28947c-0.93864,-2.25409 -3.04476,-1.82949 -3.35455,-4.75978z" data-paper-data="{&quot;index&quot;:null}" fill="#ff0000" fill-rule="evenodd" stroke-width="1.5" stroke-linecap="butt" stroke-linejoin="miter"/><path d="M228.97565,168.88214c-0.91801,2.69711 1.0717,7.24197 -3.00519,8.51508c-4.04416,1.2817 -7.76815,-3.7185 -4.05293,-11.20769c2.77599,-5.77703 6.55876,-6.46278 8.32083,-5.58041c1.76207,0.88237 1.75826,3.29485 1.75826,3.29485c-0.10854,2.94461 -2.23877,2.66514 -3.02096,4.97818z" data-paper-data="{&quot;index&quot;:null}" fill="#ff0000" fill-rule="evenodd" stroke-width="1.5" stroke-linecap="butt" stroke-linejoin="miter"/><path d="M230.56942,204.1022v-25.47946h17.45443v25.47946z" fill="#cc007d" fill-rule="nonzero" stroke-width="1.2" stroke-linecap="butt" stroke-linejoin="miter"/><path d="M254.6445,170.91461c0,5.92793 -6.55709,10.73347 -14.64567,10.73347c-8.08858,0 -14.64567,-4.80554 -14.64567,-10.73347c0,-5.92793 6.55709,-10.73347 14.64567,-10.73347c8.08858,0 14.64567,4.80554 14.64567,10.73347z" fill="#c2c2c2" fill-rule="nonzero" stroke-width="1.2" stroke-linecap="butt" stroke-linejoin="miter"/><path d="M254.64451,171.12322c0,5.92793 -6.55709,10.73347 -14.64567,10.73347c-8.08858,0 -14.64567,-4.80554 -14.64567,-10.73347c0,-5.92793 6.55709,-10.73347 14.64567,-10.73347c8.08858,0 14.64567,4.80554 14.64567,10.73347z" fill="#56280b" fill-rule="nonzero" stroke-width="1.2" stroke-linecap="butt" stroke-linejoin="miter"/><path d="M240.08017,168.99315c-4.88764,-0.34912 -11.57905,4.94582 -15.47752,-1.2801c-3.89847,-6.16773 2.79294,-14.54654 16.87399,-11.63723c10.82263,2.0947 13.61556,8.08788 12.91733,11.40449c-0.69823,3.31661 -4.71308,4.36396 -4.71308,4.36396c-4.94582,1.10554 -5.41131,-2.56019 -9.60072,-2.85112z" data-paper-data="{&quot;index&quot;:null}" fill="#ffffff" fill-rule="evenodd" stroke-width="1.5" stroke-linecap="butt" stroke-linejoin="miter"/><path d="M231.35373,171.66163c0,-0.25751 0.25751,-0.45064 0.51502,-0.38626c1.22316,0.45064 4.69952,1.48067 8.56214,1.73818c3.47636,0.19313 5.53642,0 6.50208,-0.19313c0.32189,-0.06438 0.57939,0.25751 0.45064,0.57939c-0.57939,1.73818 -3.02572,6.56645 -9.7853,6.18019c-5.85831,-0.64377 -6.4377,-4.7639 -6.24457,-7.91837z" fill="#ffffff" fill-rule="evenodd" stroke-width="1.2" stroke-linecap="round" stroke-linejoin="round"/><path d="M232.57111,166.20041c0,1.1 -0.8,2 -1.8,2c-1,0 -1.8,-0.9 -1.8,-2c0,-1.1 0.8,-2 1.8,-2c1,0.1 1.8,0.9 1.8,2" fill="#008eff" fill-rule="evenodd" stroke-width="2" stroke-linecap="butt" stroke-linejoin="miter"/><path d="M231.125,221.97056v-17.50685l10.65411,-0.24315c0,0 -2.96918,2.36865 -2.96918,3.89041c0,0.96401 -1.57192,1.47827 -1.57192,3.40411c0,4.26193 -0.34932,10.45548 -0.34932,10.45548z" fill="#ff0000" fill-rule="nonzero" stroke-width="1.5" stroke-linecap="butt" stroke-linejoin="miter"/><path d="M241.14897,222.92917c0,0 -0.37671,-6.45524 -0.37671,-10.89726c0,-2.00721 -1.69521,-2.5432 -1.69521,-3.54795c0,-1.58606 -3.20205,-4.05479 -3.20205,-4.05479l11.48973,0.25342v18.24658z" data-paper-data="{&quot;index&quot;:null}" fill="#ff0000" fill-rule="nonzero" stroke-width="1.5" stroke-linecap="butt" stroke-linejoin="miter"/><path d="M249.98336,166.49553c0,1.1 -0.8,2 -1.8,2c-1,0 -1.8,-0.9 -1.8,-2c0,-1.1 0.8,-2 1.8,-2c1,0.1 1.8,0.9 1.8,2" fill="#008eff" fill-rule="evenodd" stroke-width="2" stroke-linecap="butt" stroke-linejoin="miter"/></g></g></svg>