<svg version="1.1" xmlns="http://www.w3.org/2000/svg" xmlns:xlink="http://www.w3.org/1999/xlink" width="740" height="619" viewBox="0,0,740,619"><defs><linearGradient x1="249.5" y1="-58.73158" x2="249.5" y2="261.15238" gradientUnits="userSpaceOnUse" id="color-1"><stop offset="0" stop-color="#000000"/><stop offset="1" stop-color="#000000" stop-opacity="0"/></linearGradient></defs><g transform="translate(92.5,98.28958)"><g data-paper-data="{&quot;isPaintingLayer&quot;:true}" stroke-miterlimit="10" stroke-dasharray="" stroke-dashoffset="0" style="mix-blend-mode: normal"><path d="M-92.5,520.71043v-619h740v619z" fill="#00ff16" fill-rule="nonzero" stroke="none" stroke-width="0" stroke-linecap="butt" stroke-linejoin="miter"/><g fill-rule="nonzero" stroke-linecap="butt" stroke-linejoin="miter"><path d="M231.45872,385.83386c0,0 22.64151,-28.73707 28.70292,-53.93973c2.34822,-9.7636 -0.162,-27.79246 4.93032,-37.55758c5.68351,-10.89882 18.88249,-13.4585 18.88249,-22.73764c0,-16.2815 -12.71131,-42.34012 -18.34619,-65.62099c-2.44085,-10.08453 9.27555,-26.31199 6.81913,-35.18956c-5.79218,-20.93322 -25.07479,-30.02779 -25.07479,-30.02779h111.39696c0,0 6.17961,16.89069 0.5284,35.27309c-3.00306,9.76845 -19.62501,17.67419 -19.62501,28.72712c0,21.52035 19.09661,41.17598 19.09661,57.28987c0,9.95376 -14.21814,19.0683 -18.73392,30.38487c-4.22731,10.59372 1.22867,23.31398 1.22867,34.86191c0,24.5161 17.50523,50.57953 17.50523,50.57953c0,0 -15.7941,17.50524 -40.58032,17.50524c-10.01881,0 -17.27854,15.15137 -27.94026,10.02025c-4.44494,-2.1392 -38.33448,-0.47195 -40.4893,-0.47195c-10.72482,0 -18.30092,-19.09661 -18.30092,-19.09661z" fill="#7b3000" stroke="none" stroke-width="0"/><path d="M445.49999,125.98718c0,17.27011 -15.29859,22.84134 -25.34366,37.47887c-10.42899,15.19696 -3.20792,47.25562 -21.26682,56.28823c-17.21686,8.61147 -54.66623,10.46862 -75.92616,10.46862c-17.45742,0 -31.90911,-23.50736 -55.3486,-32.71806c-18.40524,-7.23248 -41.84919,-3.7122 -52.6208,-13.54888c-26.61724,-24.3069 -19.34139,-53.01238 -19.34139,-80.24816c0,-23.9384 15.82226,-28.29675 34.04232,-44.96887c11.23397,-10.27958 33.58251,3.69384 49.7744,-1.90799c14.91549,-5.16027 23.40167,-30.30529 40.31133,-30.30529c16.25187,0 47.64866,-11.67544 61.73218,-6.88831c24.73287,8.40694 29.23601,55.24178 41.92218,74.10335c8.99912,13.37969 22.06505,15.96783 22.06505,32.24654z" fill="#4bd45d" stroke="none" stroke-width="0"/><path d="M445.49999,125.98718c0,17.27011 -15.29859,22.84134 -25.34366,37.47887c-10.42899,15.19696 -3.20792,47.25562 -21.26682,56.28823c-17.21686,8.61147 -54.66623,10.46862 -75.92616,10.46862c-17.45742,0 -31.90911,-23.50736 -55.3486,-32.71806c-18.40524,-7.23248 -41.84919,-3.7122 -52.6208,-13.54888c-26.61724,-24.3069 -19.34139,-53.01238 -19.34139,-80.24816c0,-23.9384 15.82226,-28.29675 34.04232,-44.96887c11.23397,-10.27958 33.58251,3.69384 49.7744,-1.90799c14.91549,-5.16027 23.40167,-30.30529 40.31133,-30.30529c16.25187,0 47.64866,-11.67544 61.73218,-6.88831c24.73287,8.40694 29.23601,55.24178 41.92218,74.10335c8.99912,13.37969 22.06505,15.96783 22.06505,32.24654z" fill="#4bd45d" stroke="none" stroke-width="0"/><path d="M268.54009,374.49367c-1.59138,0 -1.59139,-1.59139 -1.59139,-1.59139v-0.78751c0,-5.44869 1.52716,-9.97128 2.38306,-15.21755c0.47334,-2.90143 0.25933,-6.09787 1.59705,-8.77328c-0.06609,-6.22719 2.93217,-11.97458 3.9155,-18.00194c0.71586,-4.38794 0.68023,-9.04878 1.59704,-13.49832c1.14604,-5.56214 4.73481,-11.82657 7.16611,-16.78102c2.42155,-7.30564 4.69603,-13.7048 6.22147,-21.0193c1.56063,-7.48308 -0.86351,-16.18694 -0.80953,-23.79217c-1.57247,-4.71741 -1.41862,-10.04814 -2.3405,-14.85191c-0.59749,-3.11336 -2.67508,-6.25227 -3.85896,-9.20669c-1.64834,-4.11343 -2.6841,-8.53337 -4.67816,-12.49742c0,0 -0.71169,-1.42339 0.7117,-2.13506c1.42339,-0.71169 2.13506,0.71169 2.13506,0.71169c2.01288,4.04737 3.09894,8.51206 4.77191,12.70281c1.25009,3.13147 3.33075,6.38502 4.01611,9.69347c1.01184,4.88467 0.77984,10.25931 2.38453,15.07332c0.04872,8.07322 2.30561,17.04918 0.7655,25.03325c-1.4402,7.46598 -3.89141,14.08247 -6.37862,21.50603c-2.36084,4.62433 -5.99564,11.03098 -7.00899,16.29426c-0.84261,4.37651 -0.82131,8.97266 -1.55299,13.27688c-1.04135,6.12606 -3.89903,11.90052 -3.95956,18.22336c-1.31873,2.63745 -1.07126,5.71807 -1.55298,8.55187c-0.86326,5.07833 -2.34198,9.44479 -2.34198,14.70772v0.78751c0,0 0,1.59139 -1.59138,1.59139z" fill="#6c2900" stroke="none" stroke-width="0.5"/><path d="M296.89034,231.13471c1.59138,0 1.59138,1.59138 1.59138,1.59138l-0.08166,1.07177c0.2625,0.78752 0.52499,1.575 0.78751,2.36252c2.44791,7.38514 4.88241,14.63595 6.33917,22.18779c0.62369,3.23322 0.04255,7.31485 0.0426,10.60002c0.0001,4.85014 0.8107,9.38329 0.78731,14.21179c-0.01465,3.02165 -0.80373,5.65113 -0.78736,8.62909c-0.04327,6.01454 -2.43486,11.55535 -3.16219,17.48881c-0.60233,4.91382 -1.40077,9.61976 -2.39294,14.37709c-0.46499,2.22957 0.85691,2.46091 -0.07856,4.96841c-0.2595,0.69565 -1.34021,0.87064 -1.57501,1.575c-0.33204,0.99613 0.33204,2.15391 0,3.15004c-0.2348,0.70436 -1.29625,0.88687 -1.575,1.575c-0.86394,2.1327 -1.55373,5.44871 -2.36252,7.87507c-6.77719,13.55436 -7.44209,28.06198 -10.95146,42.30232c0,0 -0.38597,1.54387 -1.92985,1.1579c-1.54388,-0.38595 -1.1579,-1.92985 -1.1579,-1.92985c1.625,-6.39724 2.02856,-13.05999 3.11537,-19.50364c0.82727,-4.90481 3.26909,-9.11899 4.81104,-13.73779c1.07146,-3.20957 1.64326,-6.44886 3.17233,-9.50695c0.81491,-2.44466 1.48677,-5.66081 2.36252,-7.87507c0.27306,-0.69041 1.3402,-0.87064 1.575,-1.57502c0.33204,-0.99613 -0.33204,-2.15391 0,-3.15004c0.2348,-0.70436 1.27783,-0.89461 1.57501,-1.575c0.59807,-1.36921 -0.36158,-3.0146 -0.07856,-4.48166c0.89355,-4.63218 1.72918,-9.25574 2.33212,-14.03862c0.72899,-5.78274 3.18967,-11.24189 3.13787,-17.096c0.03557,-7.62981 0.0002,-15.1578 0.00005,-22.84081c-0.00007,-2.96922 0.64986,-6.95668 0.04253,-9.86882c-1.55441,-7.45326 -3.81318,-14.60671 -6.26096,-21.91257c-0.2625,-0.78752 -0.52499,-1.575 -0.78751,-2.36252l-0.08166,-2.07826c0,0 0,-1.59138 1.59138,-1.59138z" fill="#6c2900" stroke="none" stroke-width="0.5"/><path d="M312.64047,367.40608c-1.59138,0 -1.59138,-1.59138 -1.59138,-1.59138v-0.78751c0,-3.2375 -0.00663,-6.47453 0.02811,-9.71188c2.00244,-8.02708 5.01521,-16.18141 6.37804,-24.36249c1.73591,-10.42068 1.16881,-21.28322 3.23814,-31.62983c1.93543,-9.60389 2.89203,-22.57292 0.34359,-32.14368c-0.5305,-1.99236 -2.00493,-3.61393 -2.78987,-5.52044c-1.83907,-4.46676 -3.26569,-8.89085 -5.45499,-13.25845c0,0 -0.71169,-1.42339 0.7117,-2.13506c1.42339,-0.71169 2.13506,0.7117 2.13506,0.7117c2.22093,4.4524 3.688,8.96832 5.57011,13.51678c0.2982,0.72063 2.75542,5.31002 2.90363,5.86656c2.68344,10.07782 1.71024,23.47295 -0.29824,33.58683c-2.06147,10.30741 -1.4952,21.13993 -3.21943,31.52773c-1.35006,8.1336 -4.36052,16.26291 -6.36007,24.23944c-0.00421,3.10427 -0.00299,6.20858 -0.00299,9.31286v0.78751c0,0 0,1.59138 -1.59138,1.59138z" fill="#6c2900" stroke="none" stroke-width="0.5"/><path d="M328.84033,250.50099c1.12529,-1.12529 2.25054,0 2.25054,0l0.37391,0.48942c3.8911,2.2007 7.11954,13.02881 7.92468,17.5954c0.48444,2.74768 -0.78685,4.71035 -0.74493,7.45318c-0.04141,5.14686 -1.52071,10.1914 -2.38306,15.21752c-1.37073,7.98915 -0.82918,16.46043 -2.38453,24.52342c-0.70319,3.64539 -1.55974,7.59934 -1.53245,11.44695c0,5.12985 -0.74854,9.4932 -1.59557,14.43003c-1.07711,6.2779 0.97094,12.3812 1.58783,18.48844c0.47989,4.75131 -0.01861,9.31709 0.7736,14.07029c0,0 0.26163,1.56972 -1.30812,1.83136c-1.56975,0.26164 -1.83135,-1.30811 -1.83135,-1.30811c-0.80392,-4.82353 -0.31932,-9.46477 -0.8014,-14.27992c-0.64204,-6.4127 -2.63157,-12.72163 -1.56221,-19.31189c0.77751,-4.79168 1.55446,-8.94739 1.55446,-13.92022c0.02465,-4.08573 0.80838,-8.29807 1.61758,-12.17822c1.6513,-7.91787 1.05831,-16.40008 2.34051,-24.30201c0.78465,-4.83564 2.39144,-9.77178 2.34195,-14.70771c0.02074,-1.71229 1.23387,-5.0343 0.83007,-6.72194c-0.66267,-2.76952 -2.19164,-5.76708 -3.11093,-8.52496c-0.61955,-1.85865 -1.19822,-6.22673 -3.1395,-6.95493l-1.20109,-1.08561c0,0 -1.12529,-1.12527 0,-2.25054z" fill="#6c2900" stroke="none" stroke-width="0.5"/><path d="M264.20882,102.78749c9.18328,0 16.73486,6.98609 17.63009,15.93361c-1.572,0.21111 -3.14404,0.42637 -4.71044,0.63412c-0.9794,-1.98395 -1.58989,-4.26911 -3.24195,-5.70387c-5.451,-4.73399 -10.72629,-2.55295 -16.67636,-1.36293c0,0 -5.46169,1.09233 -4.36933,6.55402c0.07899,0.39496 0.18084,0.75568 0.30183,1.085c-2.17076,-0.49769 -4.34292,-1.12936 -6.51789,-1.61776c1.08185,-8.74931 8.54202,-15.52217 17.58405,-15.52217z" fill="#41bb52" stroke="#000000" stroke-width="0"/><path d="M316.97176,147.67532c9.18328,0 16.73486,6.98609 17.63006,15.93361c-1.57203,0.21111 -3.14404,0.42638 -4.71043,0.63413c-0.9794,-1.98396 -1.58989,-4.2691 -3.24195,-5.70387c-5.451,-4.73399 -10.72629,-2.55295 -16.67633,-1.36293c0,0 -5.46169,1.09233 -4.36935,6.55402c0.079,0.39497 0.18084,0.75567 0.30183,1.085c-2.17076,-0.49769 -4.34292,-1.12938 -6.5179,-1.61776c1.08185,-8.74931 8.54202,-15.52216 17.58408,-15.52216z" fill="#41bb52" stroke="#000000" stroke-width="0"/><path d="M385.48483,98.06248c9.18328,0 16.73486,6.98609 17.63006,15.93361c-1.57203,0.21111 -3.14402,0.42638 -4.71041,0.63413c-0.9794,-1.98395 -1.58988,-4.26911 -3.24195,-5.70387c-5.451,-4.73399 -10.72629,-2.55293 -16.67633,-1.36293c0,0 -5.46169,1.09234 -4.36935,6.55403c0.079,0.39496 0.18084,0.75567 0.30183,1.08499c-2.17076,-0.49769 -4.34292,-1.12938 -6.5179,-1.61776c1.08185,-8.74931 8.54202,-15.52216 17.58405,-15.52216z" fill="#41bb52" stroke="#000000" stroke-width="0"/><path d="M377.60977,179.17566c9.18328,0 16.73486,6.98609 17.63006,15.93361c-1.57203,0.21111 -3.14404,0.42638 -4.71044,0.63413c-0.9794,-1.98396 -1.58988,-4.26911 -3.24195,-5.70388c-5.451,-4.73399 -10.72629,-2.55295 -16.67633,-1.36293c0,0 -5.46169,1.09234 -4.36935,6.55403c0.079,0.39499 0.18084,0.75567 0.30183,1.085c-2.17076,-0.49772 -4.34292,-1.12938 -6.5179,-1.61776c1.08185,-8.74931 8.54202,-15.52216 17.58407,-15.52216z" fill="#41bb52" stroke="#000000" stroke-width="0"/><path d="M307.52167,83.88734c9.18328,0 16.73486,6.98609 17.63009,15.93361c-1.572,0.21111 -3.14404,0.42637 -4.71044,0.63412c-0.9794,-1.98395 -1.58988,-4.26911 -3.24195,-5.70387c-5.451,-4.73399 -10.72629,-2.55293 -16.67635,-1.36293c0,0 -5.46169,1.09234 -4.36933,6.55403c0.079,0.39496 0.18084,0.75567 0.30183,1.085c-2.17076,-0.49769 -4.34292,-1.12938 -6.5179,-1.61777c1.08185,-8.74931 8.54202,-15.52216 17.58405,-15.52216z" fill="#41bb52" stroke="#000000" stroke-width="0"/><path d="M372.09722,46.87454c9.18328,0 16.73486,6.98609 17.63006,15.93361c-1.57203,0.21111 -3.14402,0.42638 -4.71041,0.63412c-0.9794,-1.98396 -1.58988,-4.26911 -3.24194,-5.70387c-5.451,-4.73399 -10.72629,-2.55293 -16.67633,-1.36293c0,0 -5.46169,1.09233 -4.36935,6.55402c0.079,0.39499 0.18084,0.75568 0.30183,1.085c-2.17076,-0.49772 -4.34292,-1.12935 -6.5179,-1.61776c1.08185,-8.74932 8.54202,-15.52217 17.58405,-15.52217z" fill="#41bb52" stroke="#000000" stroke-width="0"/><path d="M276.80892,171.30061c9.18328,0 16.73486,6.98611 17.63006,15.93361c-1.572,0.21111 -3.14401,0.42637 -4.71041,0.63412c-0.9794,-1.98396 -1.58988,-4.26911 -3.24195,-5.70387c-5.451,-4.73399 -10.7263,-2.55293 -16.67634,-1.36293c0,0 -5.46169,1.09234 -4.36933,6.55403c0.07899,0.39499 0.18084,0.75567 0.30183,1.085c-2.17076,-0.49772 -4.34292,-1.12938 -6.5179,-1.61776c1.08185,-8.74931 8.54202,-15.52216 17.58405,-15.52216z" fill="#41bb52" stroke="#000000" stroke-width="0"/><path d="M414.62255,131.13772c9.18328,0 16.73486,6.98609 17.63006,15.93361c-1.572,0.21111 -3.14404,0.42637 -4.71041,0.63412c-0.9794,-1.98395 -1.58988,-4.2691 -3.24195,-5.70387c-5.451,-4.73399 -10.72629,-2.55295 -16.67635,-1.36293c0,0 -5.46169,1.09233 -4.36933,6.55402c0.079,0.39499 0.18084,0.75567 0.30183,1.085c-2.17076,-0.49769 -4.34292,-1.12936 -6.5179,-1.61776c1.08185,-8.74931 8.54202,-15.52216 17.58405,-15.52216z" fill="#41bb52" stroke="#000000" stroke-width="0"/><path d="M236.64608,135.86273c9.18328,0 16.73486,6.98609 17.63009,15.93361c-1.572,0.21111 -3.14404,0.42638 -4.71044,0.63413c-0.9794,-1.98396 -1.58988,-4.26911 -3.24194,-5.70387c-5.451,-4.73399 -10.72629,-2.55295 -16.67636,-1.36293c0,0 -5.46169,1.09233 -4.36933,6.55402c0.07899,0.39497 0.18083,0.75567 0.30182,1.085c-2.17076,-0.49769 -4.34292,-1.12936 -6.51789,-1.61776c1.08185,-8.74931 8.54202,-15.52217 17.58405,-15.52217z" fill="#41bb52" stroke="#000000" stroke-width="0"/><path d="M235.07108,76.01228c9.18328,0 16.73486,6.98609 17.63008,15.93361c-1.572,0.21111 -3.14404,0.42638 -4.71043,0.63413c-0.9794,-1.98395 -1.58989,-4.26911 -3.24195,-5.70388c-5.451,-4.73399 -10.72629,-2.55295 -16.67635,-1.36293c0,0 -5.46169,1.09234 -4.36933,6.55403c0.07899,0.39499 0.18084,0.75567 0.30183,1.085c-2.17076,-0.49772 -4.34292,-1.12938 -6.5179,-1.61776c1.08185,-8.74931 8.54202,-15.52216 17.58405,-15.52216z" fill="#41bb52" stroke="#000000" stroke-width="0"/><path d="M320.12179,50.02455c9.18328,0 16.73486,6.98609 17.63009,15.93361c-1.57203,0.21111 -3.14404,0.42638 -4.71043,0.63412c-0.9794,-1.98396 -1.58989,-4.2691 -3.24195,-5.70387c-5.451,-4.73399 -10.72629,-2.55295 -16.67635,-1.36294c0,0 -5.46169,1.09233 -4.36933,6.55402c0.079,0.39496 0.18084,0.75568 0.30183,1.085c-2.17076,-0.4977 -4.34292,-1.12935 -6.5179,-1.61776c1.08185,-8.74932 8.54202,-15.52217 17.58405,-15.52217z" fill="#41bb52" stroke="#000000" stroke-width="0"/></g><path d="M544.94521,261.15238l-592.6446,-10.79921l1.75418,-309.0848l592.6446,10.79923z" fill="url(#color-1)" fill-rule="nonzero" stroke="none" stroke-width="0" stroke-linecap="butt" stroke-linejoin="miter"/><g stroke-linejoin="miter"><path d="M108.52439,34.41226l21.65854,-35.19512" fill="#000000" fill-rule="nonzero" stroke="#7b3000" stroke-width="3.5" stroke-linecap="round"/><path d="M62.5,78.49635c0,-30.65181 24.84819,-55.5 55.5,-55.5c30.65181,0 55.5,24.84819 55.5,55.5c0,30.65181 -24.84819,55.5 -55.5,55.5c-30.65181,0 -55.5,-24.84819 -55.5,-55.5z" fill="#ff0000" fill-rule="nonzero" stroke="none" stroke-width="0" stroke-linecap="butt"/><path d="M102.70466,53.2103c-5.90017,3.23316 -10.36718,15.84385 -18.79306,9.99084c-8.38949,-5.77051 -5.85124,-22.75327 12.33738,-29.36917c13.8913,-5.28538 20.88641,1.08092 22.14907,6.31552c1.26266,5.2346 -2.74949,9.78184 -2.74949,9.78184c-5.058,5.33983 -7.89183,0.4979 -12.94393,3.28097z" data-paper-data="{&quot;index&quot;:null}" fill="#ffffff" fill-rule="evenodd" stroke="#000000" stroke-width="0" stroke-linecap="butt"/></g><text transform="translate(77.43398,58.91031) rotate(-0.19207) scale(0.53448,0.53448)" font-size="40" xml:space="preserve" fill="#10ff00" fill-rule="nonzero" stroke="none" stroke-width="1" stroke-linecap="butt" stroke-linejoin="miter" stroke-miterlimit="10" stroke-dasharray="" stroke-dashoffset="0" font-family="Pixel" font-weight="normal" text-anchor="start" style="mix-blend-mode: normal"><tspan x="0" dy="0">Survile BETA 0.1.3 Prototype 3</tspan></text><text transform="translate(78.60933,75.49714) rotate(0.32571) scale(0.31048,0.37293) skewX(0.9909)" font-size="40" xml:space="preserve" fill="#10ff00" fill-rule="nonzero" stroke="none" stroke-width="1" stroke-linecap="butt" stroke-linejoin="miter" stroke-miterlimit="10" stroke-dasharray="" stroke-dashoffset="0" font-family="Pixel" font-weight="normal" text-anchor="start" style="mix-blend-mode: normal"><tspan x="0" dy="0">©2023 Microzeg</tspan></text><g stroke="#000000"><path d="M300.57937,197.94453c0,-10.72443 8.55516,-19.4183 19.10849,-19.4183c10.55333,0 19.1085,8.69385 19.1085,19.4183c0,10.72444 -8.55517,19.4183 -19.1085,19.4183c-10.55333,0 -19.10849,-8.69387 -19.10849,-19.4183z" fill="#ffeaa2" fill-rule="nonzero" stroke-width="4" stroke-linecap="butt" stroke-linejoin="miter"/><path d="M214.14292,308.43128v-62.01337h41.80383v62.01337z" fill="#e400ff" fill-rule="nonzero" stroke-width="1.2" stroke-linecap="butt" stroke-linejoin="miter"/><path d="M271.80337,226.64198c0,14.42774 -15.70441,26.12374 -35.07677,26.12374c-19.37236,0 -35.07676,-11.69602 -35.07676,-26.12374c0,-14.42774 15.70441,-26.12372 35.07676,-26.12372c19.37236,0 35.07677,11.69599 35.07677,26.12373z" fill="#ffeaa2" fill-rule="nonzero" stroke-width="1.2" stroke-linecap="butt" stroke-linejoin="miter"/><path d="M236.92142,221.96546c-11.70602,-0.84971 -27.73212,12.03741 -37.06907,-3.11558c-9.33695,-15.01137 6.68917,-35.40421 40.41366,-28.32337c25.9205,5.09821 32.60963,19.68476 30.93735,27.75692c-1.67228,8.07214 -11.28795,10.62124 -11.28795,10.62124c-11.84537,2.69073 -12.96023,-6.23113 -22.99399,-6.93921z" data-paper-data="{&quot;index&quot;:null}" fill="#ffffff" fill-rule="evenodd" stroke-width="1.5" stroke-linecap="butt" stroke-linejoin="miter"/><path d="M214.60499,351.41259v-42.60916l25.51688,-0.59178c0,0 -7.11126,5.76495 -7.11126,9.46871c0,2.34627 -3.76479,3.59789 -3.76479,8.28512c0,10.37294 -0.83663,25.44714 -0.83663,25.44714z" fill="#ff7000" fill-rule="nonzero" stroke-width="1.5" stroke-linecap="butt" stroke-linejoin="miter"/><path d="M240.89833,353.13799c0,0 -1.14658,-15.69467 -1.31481,-26.50454c-0.07601,-4.88466 -4.15588,-6.12376 -4.19393,-8.56888c-0.06006,-3.85977 -7.82159,-9.74433 -7.82159,-9.74433l27.52437,0.17453l0.69101,44.40402z" data-paper-data="{&quot;index&quot;:null}" fill="#ff7000" fill-rule="nonzero" stroke-width="1.5" stroke-linecap="butt" stroke-linejoin="miter"/><path d="M208.88722,366.56411c0,0 0.59877,-3.04232 0.59877,-5.47617c0,-2.43384 1.79627,-4.25926 1.79627,-4.25926c0,0 1.14731,-4.8677 3.59255,-4.8677c3.86622,0 14.96892,0 14.96892,0v14.60315z" fill="#5e341a" fill-rule="nonzero" stroke-width="1" stroke-linecap="butt" stroke-linejoin="miter"/><path d="M240.80769,365.81866l0.38861,-14.59781c0,0 11.09863,0.30511 14.96344,0.41136c2.4443,0.0672 3.4617,4.96466 3.4617,4.96466c0,0 1.74703,1.87409 1.68227,4.30705c-0.06477,2.43296 0.45281,5.49061 0.45281,5.49061z" data-paper-data="{&quot;index&quot;:null}" fill="#5e341a" fill-rule="nonzero" stroke-width="1" stroke-linecap="butt" stroke-linejoin="miter"/><path d="M261.95178,212.14167c0,4.01588 -2.87404,7.30158 -6.46657,7.30158c-3.59253,0 -6.46657,-3.2857 -6.46657,-7.30158c0,-4.01588 2.87403,-7.30157 6.46657,-7.30157c3.59253,0.36507 6.46657,3.2857 6.46657,7.30157" fill="#008eff" fill-rule="evenodd" stroke-width="2" stroke-linecap="butt" stroke-linejoin="miter"/><path d="M247.14365,238.03569c-2.67528,2.68218 -6.18714,5.1382 -10.77962,7.0968c-15.59085,5.69345 -22.94595,-2.76676 -26.95901,-11.23912z" fill="#ffffff" fill-rule="evenodd" stroke-width="3" stroke-linecap="round" stroke-linejoin="round"/><path d="M142.5,198.82716c0,-10.72443 8.55517,-19.4183 19.10849,-19.4183c10.55332,0 19.1085,8.69387 19.1085,19.4183c0,10.72443 -8.55518,19.4183 -19.1085,19.4183c-10.55332,0 -19.10849,-8.69386 -19.10849,-19.4183z" fill="#ffeaa2" fill-rule="nonzero" stroke-width="4" stroke-linecap="butt" stroke-linejoin="miter"/><path d="M226.34049,210.37638c0,4.01588 -2.87404,7.30157 -6.46657,7.30157c-3.59253,0 -6.46657,-3.2857 -6.46657,-7.30157c0,-4.01588 2.87403,-7.30157 6.46657,-7.30157c3.59253,0.36507 6.46657,3.2857 6.46657,7.30157" fill="#008eff" fill-rule="evenodd" stroke-width="2" stroke-linecap="butt" stroke-linejoin="miter"/></g><g><path d="M342.8098,218.14583c-10.66451,0 -19.3098,-8.64528 -19.3098,-19.3098c0,-10.66452 8.64529,-19.3098 19.3098,-19.3098c10.66451,0 19.3098,8.64529 19.3098,19.3098c0,10.66451 -8.64529,19.3098 -19.3098,19.3098z" fill="#ff862c" fill-rule="nonzero" stroke="#000000" stroke-width="4" stroke-linecap="butt" stroke-linejoin="miter"/><path d="M384.40174,309.58313v-61.66686h42.24422v61.66687z" fill="#2b00ff" fill-rule="nonzero" stroke="#000000" stroke-width="1.2" stroke-linecap="butt" stroke-linejoin="miter"/><path d="M368.37807,228.2509c0,-14.34712 15.86986,-25.97777 35.4463,-25.97777c19.57644,0 35.44628,11.63064 35.44628,25.97776c0,14.34711 -15.86984,25.97778 -35.44628,25.97778c-19.57644,0 -35.4463,-11.63066 -35.4463,-25.97778z" fill="#ff862c" fill-rule="nonzero" stroke="#000000" stroke-width="1.2" stroke-linecap="butt" stroke-linejoin="miter"/><path d="M403.62751,223.60044c-10.13946,0.70413 -11.26607,9.57613 -23.23623,6.90044c0,0 -9.71697,-2.53486 -11.40686,-10.5619c-1.68989,-8.02705 5.0697,-22.5321 31.26326,-27.60182c34.07977,-7.04128 50.27472,13.23762 40.83941,28.16511c-9.43531,15.06832 -25.63024,2.25321 -37.45958,3.09817z" data-paper-data="{&quot;index&quot;:null}" fill="#ffffff" fill-rule="evenodd" stroke="#000000" stroke-width="1.5" stroke-linecap="butt" stroke-linejoin="miter"/><path d="M411.3517,352.32432c0,0 -0.84544,-14.98998 -0.84544,-25.30496c0,-4.66105 -3.80445,-5.90566 -3.80445,-8.23882c0,-3.68306 -7.18617,-9.4158 -7.18617,-9.4158l25.78569,0.58847v42.37108z" fill="#000000" fill-rule="nonzero" stroke="#000000" stroke-width="1.5" stroke-linecap="butt" stroke-linejoin="miter"/><path d="M370.8318,345.69254l16.25889,-41.05948l26.08065,9.66783c0,0 -9.40523,2.70204 -10.81851,6.2711c-0.8953,2.26095 -5.18756,1.9565 -6.97611,6.47325c-3.95812,9.99566 -10.55786,24.18594 -10.55786,24.18594z" data-paper-data="{&quot;index&quot;:null}" fill="#000000" fill-rule="nonzero" stroke="#000000" stroke-width="1.5" stroke-linecap="butt" stroke-linejoin="miter"/><path d="M410.77977,365.63574v-14.52155c0,0 11.21967,0 15.12662,0c2.471,0 3.63039,4.8405 3.63039,4.8405c0,0 1.81519,1.81522 1.81519,4.23546c0,2.42025 0.60507,5.44556 0.60507,5.44556z" fill="#ffffff" fill-rule="nonzero" stroke="#000000" stroke-width="1" stroke-linecap="butt" stroke-linejoin="miter"/><path d="M360.10258,356.00394c0,0 1.73567,-2.55069 2.6784,-4.7798c0.94273,-2.22909 3.3216,-3.19389 3.3216,-3.19389c0,0 2.95331,-4.00659 5.22912,-3.04412c3.59838,1.52182 13.9319,5.89204 13.9319,5.89204l-5.65636,13.37465z" data-paper-data="{&quot;index&quot;:null}" fill="#ffffff" fill-rule="nonzero" stroke="#000000" stroke-width="1" stroke-linecap="butt" stroke-linejoin="miter"/><path d="M378.33345,213.83159c0,-3.99344 2.90431,-6.89774 6.53469,-7.26077c3.63038,0 6.53469,3.26733 6.53469,7.26077c0,3.99344 -2.90431,7.26077 -6.53469,7.26077c-3.63038,0 -6.53469,-3.26734 -6.53469,-7.26077" fill="#008eff" fill-rule="evenodd" stroke="#000000" stroke-width="2" stroke-linecap="butt" stroke-linejoin="miter"/><path d="M431.43379,235.46173c-4.05534,8.42502 -11.48793,16.83795 -27.24302,11.17631c-4.64087,-1.94765 -8.18971,-4.38995 -10.89318,-7.05714z" fill="#ffffff" fill-rule="evenodd" stroke="#000000" stroke-width="3" stroke-linecap="round" stroke-linejoin="round"/><path d="M457.79088,313.8171c-10.66449,0 -19.3098,-8.64529 -19.3098,-19.3098c0,-10.66451 8.64531,-19.3098 19.3098,-19.3098c10.66449,0 19.3098,8.64529 19.3098,19.3098c0,10.66451 -8.6453,19.3098 -19.3098,19.3098z" fill="#ff862c" fill-rule="nonzero" stroke="#000000" stroke-width="4" stroke-linecap="butt" stroke-linejoin="miter"/><path d="M454.28001,249.03319l7.02175,11.41034" fill="#000000" fill-rule="nonzero" stroke="#7b3000" stroke-width="3.5" stroke-linecap="round" stroke-linejoin="miter"/><path d="M459.10746,291.85114c-9.93739,0 -17.99322,-8.05584 -17.99322,-17.99322c0,-9.93739 8.05584,-17.99322 17.99322,-17.99322c9.93739,0 17.99322,8.05584 17.99322,17.99322c0,9.93739 -8.05584,17.99322 -17.99322,17.99322z" fill="#efff00" fill-rule="nonzero" stroke="none" stroke-width="0" stroke-linecap="butt" stroke-linejoin="miter"/><path d="M463.18853,266.53783c-1.6379,-0.90227 -2.55664,0.66749 -4.19645,-1.06369c0,0 -1.30075,-1.47422 -0.89139,-3.17129c0.40936,-1.69707 2.67719,-3.76104 7.18078,-2.04751c5.89679,2.14489 6.7197,7.65074 3.9998,9.52155c-2.73169,1.89756 -4.17991,-2.19086 -6.09275,-3.23906z" data-paper-data="{&quot;index&quot;:null}" fill="#ffffff" fill-rule="evenodd" stroke="#000000" stroke-width="0" stroke-linecap="butt" stroke-linejoin="miter"/><path d="M414.3199,212.07614c0,-3.99344 2.90431,-6.89774 6.53469,-7.26077c3.63038,0 6.53469,3.26734 6.53469,7.26077c0,3.99344 -2.90431,7.26077 -6.53469,7.26077c-3.63038,0 -6.53469,-3.26734 -6.53469,-7.26077" fill="#008eff" fill-rule="evenodd" stroke="#000000" stroke-width="2" stroke-linecap="butt" stroke-linejoin="miter"/><g fill-rule="nonzero" stroke-linecap="butt" stroke-linejoin="miter"><path d="M411.00506,366.14981v-14.47719c0,0 11.18539,0 15.08041,0c2.46344,0 3.6193,4.82573 3.6193,4.82573c0,0 1.80964,1.80966 1.80964,4.22252c0,2.41287 0.60321,5.42894 0.60321,5.42894z" fill="#ffffff" stroke="#000000" stroke-width="1"/><path d="M422.01375,360.6354l0.00779,-0.50659c-0.41243,-1.92892 2.12595,-2.77223 3.9131,-2.8111c0,0 0.60322,0 0.60322,0.60321c0,0.60321 -0.60322,0.60322 -0.60322,0.60322c-1.00385,-0.03487 -3.21265,0.57803 -2.72226,1.4114l0.00779,0.69986c0,0 0,0.60321 -0.60322,0.60321c-0.60321,0 -0.60321,-0.60321 -0.60321,-0.60321z" fill="#000000" stroke="none" stroke-width="0.5"/><path d="M420.20411,357.3177v-0.30161c0.26553,-1.54764 3.50826,-2.37764 5.12733,-2.41287c0,0 0.60321,0 0.60321,0.60321c0,0.60321 -0.60321,0.60322 -0.60321,0.60322c-1.36662,-0.04746 -4.88783,0.2395 -3.9209,1.20643v0.30161c0,0 0,0.60321 -0.60321,0.60321c-0.60321,0 -0.60321,-0.60321 -0.60321,-0.60321z" fill="#000000" stroke="none" stroke-width="0.5"/><path d="M422.91858,362.14343v-0.3016c0.19677,-2.01011 2.56801,-2.11126 4.22252,-2.11126c0,0 0.60321,0 0.60321,0.60322c0,0.60321 -0.60321,0.60321 -0.60321,0.60321c-0.60085,0 -3.30032,0.00218 -3.01609,0.90483v0.3016c0,0 0,0.60322 -0.60321,0.60322c-0.60321,0 -0.60322,-0.60322 -0.60322,-0.60322z" fill="#000000" stroke="none" stroke-width="0.5"/></g><g fill-rule="nonzero" stroke-linecap="butt" stroke-linejoin="miter"><path d="M358.69131,355.80274c0,0 1.82091,-2.66986 2.81086,-5.00373c0.98995,-2.33387 3.48281,-3.3418 3.48281,-3.3418c0,0 3.09794,-4.19351 5.4807,-3.18282c3.7675,1.59805 14.58669,6.18718 14.58669,6.18718l-5.93969,14.00323z" data-paper-data="{&quot;index&quot;:null}" fill="#ffffff" stroke="#000000" stroke-width="1"/><path d="M369.61735,348.77865c-0.23759,-0.58756 0.34999,-0.82513 0.34999,-0.82513l0.61347,-0.21297c1.70386,-0.07268 1.77197,1.07601 3.08065,1.57826c0,0 0.58348,0.24749 0.33599,0.83096c-0.24749,0.58347 -0.83097,0.33598 -0.83097,0.33598c-1.04286,-0.46936 -1.32252,-1.59004 -2.50654,-1.48009l-0.21749,0.12302c0,0 -0.58755,0.2376 -0.82513,-0.34999z" fill="#000000" stroke="none" stroke-width="0.5"/><path d="M366.67781,351.1757c0.24749,-0.58347 0.83095,-0.33598 0.83095,-0.33598l0.00469,0.07466c1.56527,-0.06678 2.34387,0.61089 3.31548,1.75054c0,0 0.41117,0.48228 -0.07112,0.89348c-0.48228,0.41118 -0.89348,-0.07112 -0.89348,-0.07112c-0.6819,-0.79982 -1.14632,-1.4123 -2.27172,-1.30781l-0.57878,-0.17283c0,0 -0.58347,-0.24748 -0.33598,-0.83095z" fill="#000000" stroke="none" stroke-width="0.5"/><path d="M364.98068,353.55381l0.44278,0.20623c1.24593,-0.07796 1.47953,0.64932 2.47455,1.03119c0,0 0.58348,0.24749 0.33598,0.83096c-0.24749,0.58347 -0.83096,0.33598 -0.83096,0.33598c-0.99271,-0.4468 -1.06412,-1.01932 -2.19319,-0.94869l-0.72415,-0.28874c0,0 -0.58346,-0.24748 -0.33598,-0.83095c0.24749,-0.58347 0.83095,-0.33598 0.83095,-0.33598z" fill="#000000" stroke="none" stroke-width="0.5"/></g></g><text transform="translate(269.1344,-35.50444) rotate(-179.02799) scale(0.10316,0.72156) skewX(4.50157)" font-size="40" xml:space="preserve" fill="#00ff22" fill-rule="nonzero" stroke="none" stroke-width="1" stroke-linecap="butt" stroke-linejoin="miter" stroke-miterlimit="10" stroke-dasharray="" stroke-dashoffset="0" font-family="Pixel" font-weight="normal" text-anchor="start" style="mix-blend-mode: normal"><tspan x="0" dy="0">https://scratch.mit.edu/projects/774252052</tspan></text><g data-paper-data="{&quot;index&quot;:null}"><path d="M119.44973,197.03612c0,-10.77501 8.73487,-19.50988 19.50988,-19.50988c10.77501,0 19.50988,8.73486 19.50988,19.50988c0,10.77503 -8.73487,19.50988 -19.50988,19.50988c-10.77501,0 -19.50988,-8.73486 -19.50988,-19.50988z" fill="#ffeaa2" fill-rule="nonzero" stroke="#000000" stroke-width="4" stroke-linecap="butt" stroke-linejoin="miter"/><path d="M54.25477,308.93074v-62.30583h42.68194v62.30583z" fill="#ff0000" fill-rule="nonzero" stroke="#000000" stroke-width="1.2" stroke-linecap="butt" stroke-linejoin="miter"/><path d="M113.12641,226.75573c0,14.49578 -16.03429,26.24694 -35.81358,26.24694c-19.77929,0 -35.81357,-11.75117 -35.81357,-26.24694c0,-14.49578 16.03429,-26.24693 35.81357,-26.24693c19.77929,0 35.81358,11.75115 35.81358,26.24693z" fill="#ffeaa2" fill-rule="nonzero" stroke="#000000" stroke-width="1.2" stroke-linecap="butt" stroke-linejoin="miter"/><path d="M77.51174,222.05714c-11.95191,-0.85372 -28.31464,12.09419 -37.84772,-3.13027c-9.53307,-15.08217 6.82968,-35.57117 41.26257,-28.45694c26.46497,5.12224 33.29461,19.77759 31.5872,27.88782c-1.70741,8.11021 -11.52506,10.67134 -11.52506,10.67134c-12.09418,2.70342 -13.23247,-6.26051 -23.47699,-6.97194z" data-paper-data="{&quot;index&quot;:null}" fill="#ffffff" fill-rule="evenodd" stroke="#000000" stroke-width="1.5" stroke-linecap="butt" stroke-linejoin="miter"/><path d="M55.61336,352.11475v-42.81011l26.05287,-0.59457c0,0 -7.26063,5.79213 -7.26063,9.51336c0,2.35733 -3.84388,3.61485 -3.84388,8.32419c0,10.42186 -0.8542,25.56716 -0.8542,25.56716z" fill="#2b00ff" fill-rule="nonzero" stroke="#000000" stroke-width="1.5" stroke-linecap="butt" stroke-linejoin="miter"/><path d="M96.51527,351.01029c0,0 -6.66811,-14.33731 -10.66725,-24.43654c-1.80708,-4.56354 -6.14382,-4.25594 -7.04839,-6.54032c-1.42793,-3.60603 -10.93061,-6.33607 -10.93061,-6.33607l26.35088,-9.76801l16.42736,41.48492z" data-paper-data="{&quot;index&quot;:null}" fill="#2b00ff" fill-rule="nonzero" stroke="#000000" stroke-width="1.5" stroke-linecap="butt" stroke-linejoin="miter"/><path d="M48.88867,365.56411c0,0 0.61134,-3.05666 0.61134,-5.50198c0,-2.44533 1.834,-4.27936 1.834,-4.27936c0,0 1.1714,-4.89065 3.668,-4.89065c3.94743,0 15.28335,0 15.28335,0v14.67202z" fill="#5e341a" fill-rule="nonzero" stroke="#000000" stroke-width="1" stroke-linecap="butt" stroke-linejoin="miter"/><path d="M101.78089,364.16685l-5.71497,-13.51322c0,0 10.44059,-4.41551 14.07626,-5.95309c2.29939,-0.97244 5.2833,3.07565 5.2833,3.07565c0,0 2.40352,0.97479 3.35602,3.22699c0.95249,2.25221 2.70616,4.82933 2.70616,4.82933z" data-paper-data="{&quot;index&quot;:null}" fill="#5e341a" fill-rule="nonzero" stroke="#000000" stroke-width="1" stroke-linecap="butt" stroke-linejoin="miter"/><path d="M103.06788,212.18703c0,4.03483 -2.93441,7.33601 -6.6024,7.33601c-3.66799,0 -6.6024,-3.30119 -6.6024,-7.336c0,-4.03483 2.9344,-7.336 6.6024,-7.336c3.66799,0.36679 6.6024,3.30119 6.6024,7.33601" fill="#008eff" fill-rule="evenodd" stroke="#000000" stroke-width="2" stroke-linecap="butt" stroke-linejoin="miter"/><path d="M87.94869,238.20315c-2.73148,2.69483 -6.3171,5.16243 -11.00605,7.13027c-15.91834,5.7203 -23.42795,-2.77981 -27.52531,-11.29212z" fill="#ffffff" fill-rule="evenodd" stroke="#000000" stroke-width="3" stroke-linecap="round" stroke-linejoin="round"/><path d="M3.27727,293.69866c0,-10.77501 8.73489,-19.50988 19.50988,-19.50988c10.77499,0 19.50988,8.73487 19.50988,19.50988c0,10.77501 -8.73489,19.50988 -19.50988,19.50988c-10.77499,0 -19.50988,-8.73486 -19.50988,-19.50988z" fill="#ffeaa2" fill-rule="nonzero" stroke="#000000" stroke-width="4" stroke-linecap="butt" stroke-linejoin="miter"/><g stroke-linejoin="miter"><path d="M26.3344,247.75338l-7.0945,11.52856" fill="#000000" fill-rule="nonzero" stroke="#7b3000" stroke-width="3.5" stroke-linecap="round"/><path d="M4.16409,273.72218c0,-10.04035 8.13931,-18.17966 18.17966,-18.17966c10.04035,0 18.17966,8.13931 18.17966,18.17966c0,10.04035 -8.13931,18.17966 -18.17966,18.17966c-10.04035,0 -18.17966,-8.13931 -18.17966,-18.17966z" fill="#ff0000" fill-rule="nonzero" stroke="none" stroke-width="0" stroke-linecap="butt"/><path d="M17.33358,265.43944c-1.93267,1.05906 -3.39589,5.18984 -6.15588,3.27262c-2.74808,-1.8902 -1.91665,-7.4531 4.04125,-9.6202c4.55025,-1.73129 6.84159,0.35407 7.25518,2.06872c0.4136,1.71465 -0.90062,3.20415 -0.90062,3.20415c-1.65681,1.74912 -2.58506,0.16309 -4.23994,1.07471z" data-paper-data="{&quot;index&quot;:null}" fill="#ffffff" fill-rule="evenodd" stroke="#000000" stroke-width="0" stroke-linecap="butt"/></g><path d="M66.70856,210.41339c0,4.03483 -2.93441,7.33601 -6.6024,7.33601c-3.66799,0 -6.6024,-3.30119 -6.6024,-7.336c0,-4.03483 2.9344,-7.336 6.6024,-7.336c3.66799,0.36679 6.6024,3.30119 6.6024,7.33601" fill="#008eff" fill-rule="evenodd" stroke="#000000" stroke-width="2" stroke-linecap="butt" stroke-linejoin="miter"/></g></g></g></svg>