<svg version="1.1" xmlns="http://www.w3.org/2000/svg" xmlns:xlink="http://www.w3.org/1999/xlink" width="144.67053" height="213.99065" viewBox="0,0,144.67053,213.99065"><g transform="translate(-200.85252,-113.51552)"><g data-paper-data="{&quot;isPaintingLayer&quot;:true}" fill-rule="nonzero" stroke-width="2.5" stroke-linejoin="miter" stroke-miterlimit="10" stroke-dasharray="" stroke-dashoffset="0" style="mix-blend-mode: normal"><path d="M249.24043,151.29211l58.24284,-36.05582l36.31901,58.66797l-58.24284,36.05582z" fill="#000000" stroke="#000000" stroke-linecap="butt"/><path d="M210.00849,326.25616v-68.5h69v68.5z" fill="#000000" stroke="#2b005d" stroke-linecap="butt"/><path d="M278.41071,296.05843l-55.34168,-0.4161l0.41611,-37.44926" fill="none" stroke="#2b005d" stroke-linecap="round"/><path d="M211.00206,273.58888l40.77808,0.8322v20.80514" fill="none" stroke="#2b005d" stroke-linecap="round"/><path d="M239.71316,325.18562v-29.9594" fill="none" stroke="#2b005d" stroke-linecap="round"/><path d="M262.18269,309.78982l-29.9594,-0.4161" fill="none" stroke="#2b005d" stroke-linecap="round"/><path d="M262.00847,291.43537c0,10.67058 -7.94695,19.3208 -17.75,19.3208c-9.80305,0 -17.75,-8.65022 -17.75,-19.3208c0,-10.67058 7.94695,-19.3208 17.75,-19.3208c9.80305,0 17.75,8.65022 17.75,19.3208z" fill="#000000" stroke="#000000" stroke-linecap="butt"/><path d="M202.10253,257.5992v-68.5h69v68.5z" fill="#000000" stroke="#2b005d" stroke-linecap="butt"/><path d="M270.50476,227.40145l-55.34168,-0.4161l0.41611,-37.44925" fill="none" stroke="#2b005d" stroke-linecap="round"/><path d="M203.0961,204.9319l40.77808,0.83221v20.80515" fill="none" stroke="#2b005d" stroke-linecap="round"/><path d="M231.8072,256.52867v-29.95941" fill="none" stroke="#2b005d" stroke-linecap="round"/><path d="M254.27676,241.13285l-29.95941,-0.4161" fill="none" stroke="#2b005d" stroke-linecap="round"/><path d="M252.25003,223.03754c0,10.67058 -7.94694,19.3208 -17.75,19.3208c-9.80305,0 -17.75,-8.65022 -17.75,-19.3208c0,-10.67058 7.94695,-19.3208 17.75,-19.3208c9.80306,0 17.75,8.65022 17.75,19.3208z" fill="#000000" stroke="#000000" stroke-linecap="butt"/></g></g></svg>