<svg version="1.1" xmlns="http://www.w3.org/2000/svg" xmlns:xlink="http://www.w3.org/1999/xlink" width="53.48155" height="52.86417" viewBox="0,0,53.48155,52.86417"><g transform="translate(-213.25925,-153.56794)"><g data-paper-data="{&quot;isPaintingLayer&quot;:true}" stroke-width="0" stroke-linecap="butt" stroke-miterlimit="10" stroke-dasharray="" stroke-dashoffset="0" style="mix-blend-mode: normal"><path d="" fill="#ff0000" fill-rule="nonzero" stroke="none" stroke-linejoin="miter"/><path d="M239.99997,162.20833c2.24176,-5.09746 7.07999,-8.64038 12.70136,-8.64038c7.74979,0 14.03946,6.7137 14.03946,14.98594c0,16.29158 -16.49495,21.34333 -26.74082,37.87823c-10.8372,-16.63727 -26.74073,-21.04954 -26.74073,-37.87823c0,-8.27224 6.28967,-14.98594 14.03946,-14.98594c5.62142,0 10.45965,3.54292 12.70128,8.64038z" fill="#000000" fill-rule="nonzero" stroke="none" stroke-linejoin="round"/><path d="" fill="#000000" fill-rule="nonzero" stroke="none" stroke-linejoin="miter"/><path d="M226.62485,165.81801c-2.37071,1.29909 -4.16557,6.36611 -7.55112,4.01435c-3.37093,-2.31861 -2.35105,-9.14234 4.9572,-11.80063c5.58157,-2.12369 8.39223,0.43432 8.89957,2.5376c0.50734,2.10328 -1.10476,3.93037 -1.10476,3.93037c-2.03232,2.14556 -3.17096,0.20006 -5.20091,1.31831z" data-paper-data="{&quot;index&quot;:null}" fill="#ffffff" fill-rule="evenodd" stroke="#000000" stroke-linejoin="miter"/></g></g></svg>