<svg version="1.1" xmlns="http://www.w3.org/2000/svg" xmlns:xlink="http://www.w3.org/1999/xlink" width="41" height="64.04717" viewBox="0,0,41,64.04717"><g transform="translate(-219.5,-136.45283)"><g data-paper-data="{&quot;isPaintingLayer&quot;:true}" stroke-linejoin="miter" stroke-miterlimit="10" stroke-dasharray="" stroke-dashoffset="0" style="mix-blend-mode: normal"><path d="M240.478,164.84879l0.53885,-26.64596" fill="none" fill-rule="nonzero" stroke="#7b3000" stroke-width="3.5" stroke-linecap="round"/><path d="M219.5,180c0,-11.32184 9.17816,-20.5 20.5,-20.5c11.32184,0 20.5,9.17816 20.5,20.5c0,11.32184 -9.17816,20.5 -20.5,20.5c-11.32184,0 -20.5,-9.17816 -20.5,-20.5z" fill="#ff0000" fill-rule="nonzero" stroke="none" stroke-width="0" stroke-linecap="butt"/><path d="M234.35037,170.66009c-2.17934,1.19423 -3.82932,5.85223 -6.94158,3.69031c-3.09882,-2.13145 -2.16127,-8.40436 4.55705,-10.84807c5.13102,-1.95226 7.7148,0.39926 8.18119,2.33276c0.46639,1.9335 -1.01558,3.61311 -1.01558,3.61311c-1.86827,1.97237 -2.915,0.18391 -4.78109,1.21189z" data-paper-data="{&quot;index&quot;:null}" fill="#ffffff" fill-rule="evenodd" stroke="#000000" stroke-width="0" stroke-linecap="butt"/></g></g></svg>