<svg version="1.1" xmlns="http://www.w3.org/2000/svg" xmlns:xlink="http://www.w3.org/1999/xlink" width="740" height="619" viewBox="0,0,740,619"><defs><linearGradient x1="240" y1="-129.5" x2="240" y2="489.5" gradientUnits="userSpaceOnUse" id="color-1"><stop offset="0" stop-color="#00ffe7"/><stop offset="1" stop-color="#1012fd"/></linearGradient></defs><g transform="translate(130,129.5)"><g data-paper-data="{&quot;isPaintingLayer&quot;:true}" stroke-miterlimit="10" stroke-dasharray="" stroke-dashoffset="0" style="mix-blend-mode: normal"><path d="M-130,489.5v-619h740v619z" fill="url(#color-1)" fill-rule="nonzero" stroke="none" stroke-width="0" stroke-linecap="butt" stroke-linejoin="miter"/><text transform="translate(3.60933,351.49715) rotate(0.32571) scale(0.31048,0.37293) skewX(0.9909)" font-size="40" xml:space="preserve" fill="#000000" fill-rule="nonzero" stroke="none" stroke-width="1" stroke-linecap="butt" stroke-linejoin="miter" stroke-miterlimit="10" stroke-dasharray="" stroke-dashoffset="0" font-family="Pixel" font-weight="normal" text-anchor="start" style="mix-blend-mode: normal"><tspan x="0" dy="0">©2024 Microzeg</tspan></text><g stroke="#000000"><path d="M96.48393,312.27185c4.73866,-24.31163 28.2886,-40.17864 52.6002,-35.44c24.3116,4.73864 40.17866,28.28857 35.44,52.6002c-4.73866,24.31163 -28.2886,40.17864 -52.6002,35.44c-24.3116,-4.73864 -40.17866,-28.28854 -35.44,-52.6002z" fill="#ffeaa2" fill-rule="nonzero" stroke-width="4" stroke-linecap="butt" stroke-linejoin="miter"/><path d="M336.57387,192.0143c4.73866,-24.31163 28.28855,-40.17866 52.60018,-35.44c24.31163,4.73866 40.17868,28.28854 35.44002,52.6002c-4.73866,24.31168 -28.28857,40.17866 -52.6002,35.44c-24.31163,-4.73866 -40.17866,-28.28854 -35.44,-52.60018z" fill="#ffeaa2" fill-rule="nonzero" stroke-width="4" stroke-linecap="butt" stroke-linejoin="miter"/><path d="M150.65441,358.50418l27.40098,-140.5805l96.30316,18.77075l-27.40098,140.58052z" fill="#ff0000" fill-rule="nonzero" stroke-width="1.2" stroke-linecap="butt" stroke-linejoin="miter"/><path d="M319.62547,198.98357c-6.37498,32.70679 -47.72107,52.16932 -92.34903,43.47074c-44.62798,-8.69857 -75.63812,-42.2643 -69.26314,-74.97108c6.37499,-32.70679 47.72107,-52.16931 92.34901,-43.47072c44.62796,8.69858 75.63817,42.26427 69.26317,74.97106z" fill="#ffeaa2" fill-rule="nonzero" stroke-width="1.2" stroke-linecap="butt" stroke-linejoin="miter"/><path d="M241.33452,172.71946c-26.59161,-7.18248 -69.20506,14.83581 -84.01908,-23.70758c-14.87658,-38.22234 31.05336,-77.25557 105.61551,-46.06079c57.4602,23.19611 66.42472,59.26652 59.00556,76.81472c-7.41916,17.54815 -30.69703,19.0092 -30.69703,19.0092c-28.47698,0.78092 -27.10313,-19.94498 -49.90495,-26.05553z" data-paper-data="{&quot;index&quot;:null}" fill="#ffffff" fill-rule="evenodd" stroke-width="1.5" stroke-linecap="butt" stroke-linejoin="miter"/><path d="M303.33749,161.68868c-1.77446,9.10377 -9.84715,15.26174 -18.12323,13.64861c-8.27608,-1.61313 -13.44517,-10.35209 -11.67075,-19.45583c1.77446,-9.10377 9.84713,-15.2617 18.12323,-13.64858c8.11477,2.4407 13.44517,10.35209 11.67074,19.45584" fill="#008eff" fill-rule="evenodd" stroke-width="2" stroke-linecap="butt" stroke-linejoin="miter"/><path d="M230.45333,216.14654c0,0 -28.50053,-0.10674 -38.21081,-6.25884c-9.83761,-6.23278 -20.43782,-30.899 -20.43782,-30.899c0,0 11.72637,24.44912 21.41421,30.58703c9.85874,6.24616 37.23443,6.5708 37.23443,6.5708z" fill="#ffffff" fill-rule="evenodd" stroke-width="3" stroke-linecap="round" stroke-linejoin="round"/><path d="M222.08005,141.69666c-1.77444,9.10377 -9.84715,15.26172 -18.12323,13.64861c-8.27608,-1.61313 -13.44517,-10.35209 -11.67074,-19.45583c1.77444,-9.10377 9.84713,-15.2617 18.12323,-13.64858c8.11477,2.4407 13.44517,10.35209 11.67074,19.45584" fill="#008eff" fill-rule="evenodd" stroke-width="2" stroke-linecap="butt" stroke-linejoin="miter"/></g><text transform="translate(43.5,124.71037) scale(0.8467,0.8467)" font-size="40" xml:space="preserve" fill="#efff00" fill-rule="nonzero" stroke="#ff0000" stroke-width="3" stroke-linecap="butt" stroke-linejoin="miter" stroke-miterlimit="10" stroke-dasharray="" stroke-dashoffset="0" font-family="Sans Serif" font-weight="normal" text-anchor="start" style="mix-blend-mode: normal"><tspan x="0" dy="0">DEMO</tspan></text><text transform="translate(45.57973,93.40414) rotate(-0.19194) scale(1.74333,1.74333)" font-size="40" xml:space="preserve" fill="#10ff00" fill-rule="nonzero" stroke="#000000" stroke-width="2" stroke-linecap="butt" stroke-linejoin="miter" stroke-miterlimit="10" stroke-dasharray="" stroke-dashoffset="0" font-family="Sans Serif" font-weight="normal" text-anchor="start" style="mix-blend-mode: normal"><tspan x="0" dy="0">Survile</tspan></text><path d="M0,359.5v-360.4527h481.12278v360.4527z" fill="none" fill-rule="nonzero" stroke="#000000" stroke-width="13.5" stroke-linecap="butt" stroke-linejoin="miter"/></g></g></svg>