<svg version="1.1" xmlns="http://www.w3.org/2000/svg" xmlns:xlink="http://www.w3.org/1999/xlink" width="23.19643" height="9.68011" viewBox="0,0,23.19643,9.68011"><g transform="translate(-227.57143,-219.7318)"><g data-paper-data="{&quot;isPaintingLayer&quot;:true}" fill-rule="nonzero" stroke-linecap="butt" stroke-linejoin="miter" stroke-miterlimit="10" stroke-dasharray="" stroke-dashoffset="0" style="mix-blend-mode: normal"><path d="M241.71054,220.30019l4.42815,-0.0615l0.11506,8.28491l-4.42814,0.06151z" data-paper-data="{&quot;index&quot;:null}" fill="#ff0000" stroke="#000000" stroke-width="1"/><path d="M236.51368,228.72796l-4.42814,-0.0615l0.11507,-8.28492l4.42814,0.0615z" fill="#ff0000" stroke="#000000" stroke-width="1"/><path d="M232.3125,227.31041c-0.25,0 -0.25,-0.25 -0.25,-0.25l0.00323,-0.29005c0.20324,-0.34539 -0.71219,-0.5994 -1.12823,-0.58495c0,0 -0.25,0 -0.25,-0.25c0,-0.25 0.25,-0.25 0.25,-0.25c0.74068,0.01611 1.7927,0.36562 1.62177,1.16505l0.00323,0.20995c0,0 0,0.25 -0.25,0.25z" fill="#000000" stroke="none" stroke-width="0.5"/><path d="M233.0625,225.93541c-0.25,0 -0.25,-0.25 -0.25,-0.25v-0.125c0.40074,-0.40074 -1.05861,-0.51967 -1.625,-0.5c0,0 -0.25,0 -0.25,-0.25c0,-0.25 0.25,-0.25 0.25,-0.25c0.67102,0.0146 2.01495,0.35859 2.125,1v0.125c0,0 0,0.25 -0.25,0.25z" fill="#000000" stroke="none" stroke-width="0.5"/><path d="M231.9375,227.93541c-0.25,0 -0.25,-0.25 -0.25,-0.25v-0.125c0.1178,-0.3741 -1.00098,-0.375 -1.25,-0.375c0,0 -0.25,0 -0.25,-0.25c0,-0.25 0.25,-0.25 0.25,-0.25c0.6857,0 1.66845,0.04192 1.75,0.875v0.125c0,0 0,0.25 -0.25,0.25z" fill="#000000" stroke="none" stroke-width="0.5"/><path d="M246.73928,225.61219c-0.17678,0.17678 -0.35355,0 -0.35355,0l-0.06003,-0.07817c-0.41303,-0.2223 -0.6872,0.14158 -1.1382,0.15139c0,0 -0.25,0 -0.25,-0.25c0,-0.25 0.25,-0.25 0.25,-0.25c0.55259,0.01919 0.75426,-0.38745 1.3618,-0.09861l0.18997,0.17183c0,0 0.17678,0.17678 0,0.35355z" fill="#000000" stroke="none" stroke-width="0.5"/><path d="M247.4375,226.93541c0,0.25 -0.25,0.25 -0.25,0.25l-0.2368,-0.02639c-0.39258,-0.21129 -0.65557,-0.06041 -1.02639,0.125c0,0 -0.22361,0.1118 -0.33541,-0.1118c-0.1118,-0.22361 0.1118,-0.33541 0.1118,-0.33541c0.52837,-0.26419 0.91549,-0.39035 1.47361,-0.125l0.0132,-0.02639c0,0 0.25,0 0.25,0.25z" fill="#000000" stroke="none" stroke-width="0.5"/><path d="M247.9375,228.31041c0,0.25 -0.25,0.25 -0.25,0.25l-0.30744,-0.00669c-0.39913,-0.19956 -0.51325,-0.00265 -0.94256,0.00669c0,0 -0.25,0 -0.25,-0.25c0,-0.25 0.25,-0.25 0.25,-0.25c0.42015,0.01459 0.617,-0.21353 1.05744,0.00669l0.19256,-0.00669c0,0 0.25,0 0.25,0.25z" fill="#000000" stroke="none" stroke-width="0.5"/><path d="M228.07143,228.48333v-4.42857h8.28571v4.42857z" fill="#000000" stroke="#000000" stroke-width="1"/><path d="M241.35714,228.9119v-4.42857h8.28572v4.42857z" fill="#ffffff" stroke="#000000" stroke-width="1"/><path d="M245.77679,226.91755l0.00323,-0.20995c-0.17093,-0.79943 0.88109,-1.14894 1.62177,-1.16505c0,0 0.25,0 0.25,0.25c0,0.25 -0.25,0.25 -0.25,0.25c-0.41604,-0.01445 -1.33147,0.23956 -1.12823,0.58495l0.00323,0.29005c0,0 0,0.25 -0.25,0.25c-0.25,0 -0.25,-0.25 -0.25,-0.25z" data-paper-data="{&quot;index&quot;:null}" fill="#000000" stroke="none" stroke-width="0.5"/><path d="M245.02679,225.54255v-0.125c0.11005,-0.64141 1.45398,-0.9854 2.125,-1c0,0 0.25,0 0.25,0.25c0,0.25 -0.25,0.25 -0.25,0.25c-0.56639,-0.01967 -2.02574,0.09926 -1.625,0.5v0.125c0,0 0,0.25 -0.25,0.25c-0.25,0 -0.25,-0.25 -0.25,-0.25z" data-paper-data="{&quot;index&quot;:null}" fill="#000000" stroke="none" stroke-width="0.5"/><path d="M246.15179,227.54255v-0.125c0.08155,-0.83308 1.0643,-0.875 1.75,-0.875c0,0 0.25,0 0.25,0.25c0,0.25 -0.25,0.25 -0.25,0.25c-0.24902,0 -1.3678,0.0009 -1.25,0.375v0.125c0,0 0,0.25 -0.25,0.25c-0.25,0 -0.25,-0.25 -0.25,-0.25z" data-paper-data="{&quot;index&quot;:null}" fill="#000000" stroke="none" stroke-width="0.5"/><path d="M241.98214,228.34047v-4.42857h8.28572v4.42857z" data-paper-data="{&quot;index&quot;:null}" fill="#000000" stroke="#000000" stroke-width="1"/></g></g></svg>