<svg version="1.1" xmlns="http://www.w3.org/2000/svg" xmlns:xlink="http://www.w3.org/1999/xlink" width="85.6475" height="207.89783" viewBox="0,0,85.6475,207.89783"><defs><linearGradient x1="250.08852" y1="143.30063" x2="250.08852" y2="165.44223" gradientUnits="userSpaceOnUse" id="color-1"><stop offset="0" stop-color="#ff3100"/><stop offset="1" stop-color="#f7ff00"/></linearGradient></defs><g transform="translate(-200.8525,-119.60833)"><g data-paper-data="{&quot;isPaintingLayer&quot;:true}" fill-rule="nonzero" stroke-linejoin="miter" stroke-miterlimit="10" stroke-dasharray="" stroke-dashoffset="0" style="mix-blend-mode: normal"><path d="M210.00846,326.25616v-68.5h69v68.5z" fill="#000000" stroke="#2b005d" stroke-width="2.5" stroke-linecap="butt"/><path d="M223.48512,258.19307l-0.41611,37.44926l55.34168,0.4161" fill="none" stroke="#2b005d" stroke-width="2.5" stroke-linecap="round"/><path d="M251.78011,295.22622v-20.80514l-40.77808,-0.8322" fill="none" stroke="#2b005d" stroke-width="2.5" stroke-linecap="round"/><path d="M239.71313,295.22622v29.9594" fill="none" stroke="#2b005d" stroke-width="2.5" stroke-linecap="round"/><path d="M232.22327,309.37372l29.9594,0.4161" fill="none" stroke="#2b005d" stroke-width="2.5" stroke-linecap="round"/><path d="M262.00846,291.43537c0,10.67058 -7.94695,19.3208 -17.75,19.3208c-9.80305,0 -17.75,-8.65022 -17.75,-19.3208c0,-10.67058 7.94695,-19.3208 17.75,-19.3208c9.80305,0 17.75,8.65022 17.75,19.3208z" fill="#ff0000" stroke="#000000" stroke-width="2.5" stroke-linecap="butt"/><path d="M202.1025,257.5992v-68.5h69v68.5z" fill="#000000" stroke="#2b005d" stroke-width="2.5" stroke-linecap="butt"/><path d="M215.57916,189.5361l-0.41611,37.44925l55.34168,0.4161" fill="none" stroke="#2b005d" stroke-width="2.5" stroke-linecap="round"/><path d="M243.87415,226.56926v-20.80515l-40.77808,-0.83221" fill="none" stroke="#2b005d" stroke-width="2.5" stroke-linecap="round"/><path d="M231.80717,226.56926v29.95941" fill="none" stroke="#2b005d" stroke-width="2.5" stroke-linecap="round"/><path d="M224.31732,240.71675l29.95941,0.4161" fill="none" stroke="#2b005d" stroke-width="2.5" stroke-linecap="round"/><path d="M216.25,189.35833v-68.5h69v68.5z" fill="#000000" stroke="#2b005d" stroke-width="2.5" stroke-linecap="butt"/><path d="M229.72666,121.29524l-0.4161,37.44926l55.34168,0.4161" fill="none" stroke="#2b005d" stroke-width="2.5" stroke-linecap="round"/><path d="M258.02165,158.32839v-20.80514l-40.77808,-0.83221" fill="none" stroke="#2b005d" stroke-width="2.5" stroke-linecap="round"/><path d="M245.95467,158.32839v29.9594" fill="none" stroke="#2b005d" stroke-width="2.5" stroke-linecap="round"/><path d="M238.46482,172.47588l29.9594,0.4161" fill="none" stroke="#2b005d" stroke-width="2.5" stroke-linecap="round"/><path d="M268.25,154.53754c0,10.67058 -7.94695,19.3208 -17.75,19.3208c-9.80305,0 -17.75,-8.65022 -17.75,-19.3208c0,-10.67058 7.94695,-19.3208 17.75,-19.3208c9.80305,0 17.75,8.65022 17.75,19.3208z" fill="#ff0000" stroke="#000000" stroke-width="2.5" stroke-linecap="butt"/><path d="M260.25925,154.37143c0,6.11423 -4.55359,11.0708 -10.17073,11.0708c-5.61714,0 -10.17073,-4.95656 -10.17073,-11.0708c0,-6.11423 4.55359,-11.0708 10.17073,-11.0708c5.61714,0 10.17073,4.95657 10.17073,11.0708z" fill="url(#color-1)" stroke="#000000" stroke-width="0" stroke-linecap="butt"/><path d="M252.25,223.03754c0,10.67058 -7.94694,19.3208 -17.75,19.3208c-9.80305,0 -17.75,-8.65022 -17.75,-19.3208c0,-10.67058 7.94695,-19.3208 17.75,-19.3208c9.80306,0 17.75,8.65022 17.75,19.3208z" fill="#ff0000" stroke="#000000" stroke-width="2.5" stroke-linecap="butt"/><path d="M256.74099,153.74727c0,3.93106 -2.92767,7.11782 -6.53914,7.11782c-3.61147,0 -6.53914,-3.18675 -6.53914,-7.11782c0,-3.93106 2.92767,-7.11782 6.53914,-7.11782c3.61147,0 6.53914,3.18676 6.53914,7.11782z" fill="#2b005d" stroke="#000000" stroke-width="0" stroke-linecap="butt"/></g></g></svg>