<svg version="1.1" xmlns="http://www.w3.org/2000/svg" xmlns:xlink="http://www.w3.org/1999/xlink" width="49.74231" height="54.15858" viewBox="0,0,49.74231,54.15858"><g transform="translate(-217.56167,-153.71631)"><g data-paper-data="{&quot;isPaintingLayer&quot;:true}" stroke-width="0" stroke-linecap="butt" stroke-linejoin="miter" stroke-miterlimit="10" stroke-dasharray="" stroke-dashoffset="0" style="mix-blend-mode: normal"><path d="M238.04303,202.88406c0.01309,-0.43751 0.03154,-0.86515 0.05832,-1.28036c0.73438,-11.38581 1.0976,-23.05202 2.9697,-34.28464c0.30179,-0.95328 0.46458,-1.96838 0.46458,-3.0215c0,-1.04512 -0.16033,-2.05279 -0.45773,-2.99976c2.41616,-4.52261 6.96329,-7.58149 12.18661,-7.58149c7.74979,0 14.03946,6.7137 14.03946,14.98594c0,16.82869 -15.90353,21.24096 -26.74073,37.87823c-0.80516,-1.29937 -1.64891,-2.52784 -2.52022,-3.69642z" data-paper-data="{&quot;index&quot;:null}" fill="#000000" fill-rule="nonzero" stroke="none"/><path d="M239.60739,207.87489c-8.69721,-17.84943 -23.93325,-24.194 -21.85273,-40.89358c1.02269,-8.20878 8.09412,-14.09339 15.78446,-13.13529c5.18325,0.64576 9.31733,4.24333 11.15583,9.02995c-0.41219,0.90294 -0.69586,1.88306 -0.82507,2.92016c-0.1302,1.04504 -0.09415,2.07248 0.08747,3.05576c0.46906,11.37789 -0.6128,22.99952 -1.29167,34.38877c-0.02476,0.41534 -0.05931,0.84197 -0.10041,1.27775c-1.00909,1.05189 -1.99825,2.16662 -2.95787,3.35648z" fill="#ff0000" fill-rule="nonzero" stroke="none"/><path d="" fill="#ff0000" fill-rule="nonzero" stroke="none"/><path d="M230.33498,165.66958c-2.37071,1.29909 -4.16557,6.36611 -7.55112,4.01435c-3.37093,-2.31861 -2.35105,-9.14234 4.9572,-11.80063c5.58157,-2.12369 8.39223,0.43432 8.89957,2.5376c0.50734,2.10328 -1.10476,3.93037 -1.10476,3.93037c-2.03232,2.14556 -3.17096,0.20006 -5.20091,1.31831z" data-paper-data="{&quot;index&quot;:null}" fill="#ffffff" fill-rule="evenodd" stroke="#000000"/></g></g></svg>