<svg version="1.1" xmlns="http://www.w3.org/2000/svg" xmlns:xlink="http://www.w3.org/1999/xlink" width="55.38481" height="51.64258" viewBox="0,0,55.38481,51.64258"><g transform="translate(-212.3076,-147.72339)"><g data-paper-data="{&quot;isPaintingLayer&quot;:true}" fill-rule="nonzero" stroke="none" stroke-linecap="butt" stroke-linejoin="miter" stroke-miterlimit="10" stroke-dasharray="" stroke-dashoffset="0" style="mix-blend-mode: normal"><g><path d="M212.30761,173.73179v-13.09776h55.38479v13.09776z" fill="#462c00" stroke-width="NaN"/><path d="M214.53672,164.65142v-3.08183h13.03171v3.08183z" fill="#322000" stroke-width="NaN"/><path d="M218.652,171.38741v-3.08182h13.03171v3.08182z" fill="#322000" stroke-width="NaN"/><path d="M233.56989,165.9612v-3.08183h13.03171v3.08183z" fill="#322000" stroke-width="NaN"/><path d="M243.00073,171.01319v-3.08183h13.03172v3.08183z" fill="#322000" stroke-width="NaN"/><path d="M254.31775,166.33542v-3.08183h13.03171v3.08183z" fill="#322000" stroke-width="NaN"/></g><g><path d="M212.30761,199.36597v-13.09775h55.38479v13.09775z" fill="#462c00" stroke-width="NaN"/><path d="M214.53672,190.2856v-3.08183h13.03171v3.08183z" fill="#322000" stroke-width="NaN"/><path d="M218.652,197.02159v-3.08183h13.03171v3.08183z" fill="#322000" stroke-width="NaN"/><path d="M233.56989,191.59538v-3.08183h13.03171v3.08183z" fill="#322000" stroke-width="NaN"/><path d="M243.00073,196.64737v-3.08182h13.03172v3.08182z" fill="#322000" stroke-width="NaN"/><path d="M254.31775,191.9696v-3.08183h13.03171v3.08183z" fill="#322000" stroke-width="NaN"/></g><g><path d="M212.3076,186.45533v-13.09776h55.38479v13.09776z" fill="#462c00" stroke-width="NaN"/><path d="M214.53671,177.37495v-3.08182h13.03171v3.08182z" fill="#322000" stroke-width="NaN"/><path d="M218.65199,184.11094v-3.08183h13.03171v3.08183z" fill="#322000" stroke-width="NaN"/><path d="M233.56988,178.68473v-3.08183h13.03172v3.08183z" fill="#322000" stroke-width="NaN"/><path d="M243.00072,183.73672v-3.08183h13.03172v3.08183z" fill="#322000" stroke-width="NaN"/><path d="M254.31774,179.05895v-3.08182h13.03171v3.08182z" fill="#322000" stroke-width="NaN"/></g><g><path d="M212.30762,160.82115v-13.09776h55.38479v13.09776z" fill="#462c00" stroke-width="NaN"/><path d="M214.53673,151.74078v-3.08183h13.03171v3.08183z" fill="#322000" stroke-width="NaN"/><path d="M218.65201,158.47677v-3.08182h13.03171v3.08182z" fill="#322000" stroke-width="NaN"/><path d="M233.5699,153.05056v-3.08183h13.03171v3.08183z" fill="#322000" stroke-width="NaN"/><path d="M243.00074,158.10255v-3.08183h13.03172v3.08183z" fill="#322000" stroke-width="NaN"/><path d="M254.31776,153.42478v-3.08183h13.03171v3.08183z" fill="#322000" stroke-width="NaN"/></g></g></g></svg>