<svg version="1.1" xmlns="http://www.w3.org/2000/svg" xmlns:xlink="http://www.w3.org/1999/xlink" width="1304.91413" height="596.1915" viewBox="0,0,1304.91413,596.1915"><g transform="translate(501.13371,150.20408)"><g data-paper-data="{&quot;isPaintingLayer&quot;:true}" stroke-miterlimit="10" stroke-dasharray="" stroke-dashoffset="0" style="mix-blend-mode: normal"><path d="M-121.5,428v-496h723v496z" fill="#006aff" fill-rule="nonzero" stroke="none" stroke-width="0" stroke-linecap="butt" stroke-linejoin="miter"/><path d="M621.5741,171.41269c0,9.16401 30.58321,65.38943 68.44543,73.45385c23.02428,4.90402 52.36333,-42.42043 68.69314,-29.59294c50.68962,39.81806 50.97341,118.86566 37.62336,135.74654c-54.12569,68.44097 -226.5914,33.93153 -372.76435,58.8651c-88.15718,15.03748 -206.42542,-11.38834 -307.72374,-11.38834c-47.85163,0 -57.59176,53.43318 -103.11553,46.94392c-96.19698,-13.71254 -193.94161,-72.78169 -268.0475,-92.89856c-72.90123,-19.78985 -129.67862,-20.92975 -170.23437,-55.97926c-39.76851,-34.36914 -56.31225,-95.91961 -56.31225,-136.64829c0,-44.74247 -44.95895,-75.36332 2.46121,-112.19183c54.3679,-42.22438 216.1909,-57.37337 314.87344,-81.67106c66.01849,-16.2551 119.67855,-110.95934 198.3413,-116.18931c32.33544,-2.14986 76.99364,48.47415 110.77857,48.47415c31.13732,0 151.16755,-43.80155 181.02659,-26.90326c45.01427,25.47519 -1.49457,115.7359 35.79249,119.90232c107.64544,12.02814 182.57874,-46.58776 226.66217,-1.22115c43.06493,44.31843 33.50009,126.02 33.50009,181.2981z" fill="#00ff22" fill-rule="nonzero" stroke="#000000" stroke-width="0" stroke-linecap="butt" stroke-linejoin="miter"/><path d="M-18.5,441.21038v-481h140v481z" fill="#000000" fill-rule="nonzero" stroke="none" stroke-width="0" stroke-linecap="butt" stroke-linejoin="miter"/><text transform="translate(50.8136,358.4576) rotate(-89.9104) scale(0.75772,0.75772)" font-size="40" xml:space="preserve" fill="#006aff" fill-rule="nonzero" stroke="none" stroke-width="1" stroke-linecap="butt" stroke-linejoin="miter" stroke-miterlimit="10" stroke-dasharray="" stroke-dashoffset="0" font-family="Pixel" font-weight="normal" text-anchor="start" style="mix-blend-mode: normal"><tspan x="0" dy="0">Survile</tspan><tspan x="0" dy="48px">Version Alpha 0.10.5</tspan></text><g fill-rule="nonzero" stroke-linecap="butt" stroke-linejoin="miter"><path d="M265.20323,149.33859c0,0 8.917,-11.31764 11.30419,-21.24331c0.92481,-3.84524 -0.0638,-10.94562 1.94173,-14.79146c2.23836,-4.29233 7.43657,-5.30042 7.43657,-8.95486c0,-6.41221 -5.00615,-16.67499 -7.22536,-25.84379c-0.96129,-3.97163 3.65303,-10.36256 2.68561,-13.85885c-2.28116,-8.24422 -9.87531,-11.82597 -9.87531,-11.82597h43.87193c0,0 2.43374,6.65213 0.2081,13.89175c-1.18271,3.84715 -7.729,6.9607 -7.729,11.31372c0,8.47545 7.5209,16.21651 7.5209,22.56271c0,3.92013 -5.59959,7.50975 -7.37806,11.9666c-1.66486,4.17217 0.48389,9.18184 0.48389,13.72981c0,9.65528 6.89416,19.91995 6.89416,19.91995c0,0 -6.22026,6.89416 -15.98192,6.89416c-3.94575,0 -6.80488,5.96713 -11.00383,3.94632c-1.75057,-0.84249 -15.09743,-0.18587 -15.94607,-0.18587c-4.2238,0 -7.20753,-7.5209 -7.20753,-7.5209z" fill="#7b3000" stroke="none" stroke-width="0"/><path d="M349.5,47.00209c0,6.80156 -6.02511,8.9957 -9.9812,14.76046c-4.10729,5.98508 -1.26339,18.61088 -8.3756,22.16823c-6.78059,3.39149 -21.52943,4.1229 -29.90232,4.1229c-6.87533,0 -12.5669,-9.258 -21.79817,-12.88549c-7.24861,-2.8484 -16.48164,-1.46199 -20.72387,-5.33601c-10.48278,-9.57289 -7.6173,-20.87809 -7.6173,-31.60447c0,-9.42776 6.23135,-11.14423 13.40703,-17.71028c4.42432,-4.04845 13.22594,1.45476 19.60286,-0.75143c5.87423,-2.03229 9.21638,-11.93526 15.87598,-11.93526c6.40054,0 18.76567,-4.59819 24.31224,-2.71285c9.74065,3.31094 11.51414,21.7561 16.51039,29.18443c3.54416,5.26938 8.68997,6.28868 8.68997,12.69979z" fill="#4bd45d" stroke="none" stroke-width="0"/><path d="M349.5,47.00209c0,6.80156 -6.02511,8.9957 -9.9812,14.76046c-4.10729,5.98508 -1.26339,18.61088 -8.3756,22.16823c-6.78059,3.39149 -21.52943,4.1229 -29.90232,4.1229c-6.87533,0 -12.5669,-9.258 -21.79817,-12.88549c-7.24861,-2.8484 -16.48164,-1.46199 -20.72387,-5.33601c-10.48278,-9.57289 -7.6173,-20.87809 -7.6173,-31.60447c0,-9.42776 6.23135,-11.14423 13.40703,-17.71028c4.42432,-4.04845 13.22594,1.45476 19.60286,-0.75143c5.87423,-2.03229 9.21638,-11.93526 15.87598,-11.93526c6.40054,0 18.76567,-4.59819 24.31224,-2.71285c9.74065,3.31094 11.51414,21.7561 16.51039,29.18443c3.54416,5.26938 8.68997,6.28868 8.68997,12.69979z" fill="#4bd45d" stroke="none" stroke-width="0"/><path d="M279.80714,144.87243c-0.62674,0 -0.62674,-0.62674 -0.62674,-0.62674v-0.31015c0,-2.14588 0.60145,-3.92703 0.93853,-5.99319c0.18642,-1.14268 0.10213,-2.40155 0.62897,-3.45522c-0.02603,-2.45248 1.15479,-4.716 1.54206,-7.08978c0.28193,-1.72812 0.2679,-3.56372 0.62897,-5.3161c0.45135,-2.19056 1.86473,-4.65771 2.82226,-6.60894c0.95369,-2.87721 1.84946,-5.39742 2.45023,-8.27812c0.61463,-2.94709 -0.34008,-6.37497 -0.31882,-9.37017c-0.61929,-1.85788 -0.5587,-3.9573 -0.92177,-5.84919c-0.23531,-1.22615 -1.05354,-2.46236 -1.51979,-3.62591c-0.64917,-1.62001 -1.05709,-3.36073 -1.84242,-4.92191c0,0 -0.28029,-0.56058 0.28029,-0.84086c0.56058,-0.28029 0.84086,0.28029 0.84086,0.28029c0.79274,1.59399 1.22047,3.35234 1.87934,5.0028c0.49233,1.23328 1.31176,2.51464 1.58168,3.81762c0.3985,1.92375 0.30713,4.04047 0.93911,5.93639c0.01919,3.17951 0.90803,6.71455 0.30148,9.85895c-0.5672,2.94036 -1.53257,5.54616 -2.51212,8.46981c-0.92978,1.82122 -2.36129,4.34438 -2.76038,6.41724c-0.33185,1.72362 -0.32346,3.53374 -0.61162,5.22889c-0.41012,2.41265 -1.53557,4.68683 -1.55941,7.17698c-0.51936,1.03872 -0.4219,2.25197 -0.61162,3.36802c-0.33998,2.00002 -0.92235,3.71968 -0.92235,5.7924v0.31015c0,0 0,0.62674 -0.62674,0.62674z" fill="#6c2900" stroke="none" stroke-width="0.5"/><path d="M290.97244,88.41278c0.62674,0 0.62674,0.62674 0.62674,0.62674l-0.03216,0.4221c0.10338,0.31015 0.20676,0.62029 0.31015,0.93044c0.96407,2.90852 1.92286,5.76414 2.49658,8.73831c0.24563,1.27335 0.01676,2.88084 0.01678,4.17465c0.00004,1.91015 0.31928,3.69546 0.31007,5.59709c-0.00577,1.19003 -0.31654,2.22561 -0.31009,3.39843c-0.01704,2.36873 -0.95893,4.55089 -1.24538,6.88769c-0.23722,1.93523 -0.55167,3.78859 -0.94242,5.66219c-0.18313,0.87808 0.33748,0.96919 -0.03094,1.95673c-0.1022,0.27397 -0.52782,0.34289 -0.62029,0.62029c-0.13077,0.39231 0.13077,0.84828 0,1.24059c-0.09247,0.2774 -0.51051,0.34928 -0.62029,0.62029c-0.34025,0.83993 -0.61191,2.14589 -0.93044,3.10147c-2.66909,5.33817 -2.93095,11.05177 -4.31306,16.6601c0,0 -0.15201,0.60803 -0.76004,0.45602c-0.60803,-0.152 -0.45602,-0.76004 -0.45602,-0.76004c0.63998,-2.51945 0.79892,-5.14347 1.22694,-7.6812c0.32581,-1.93168 1.28748,-3.59137 1.89475,-5.41041c0.42198,-1.26404 0.64717,-2.53978 1.24937,-3.74416c0.32094,-0.96279 0.58554,-2.22942 0.93044,-3.10147c0.10754,-0.27191 0.52782,-0.34289 0.62029,-0.6203c0.13077,-0.39231 -0.13077,-0.84828 0,-1.24059c0.09247,-0.2774 0.50325,-0.35233 0.62029,-0.62029c0.23554,-0.53924 -0.1424,-1.18725 -0.03094,-1.76503c0.35191,-1.82431 0.68101,-3.64523 0.91847,-5.52889c0.2871,-2.27744 1.2562,-4.42744 1.2358,-6.73299c0.01401,-3.00488 0.00008,-5.96966 0.00002,-8.99549c-0.00003,-1.16938 0.25594,-2.73978 0.01675,-3.88668c-0.61218,-2.93535 -1.50176,-5.75262 -2.46578,-8.62992c-0.10338,-0.31015 -0.20676,-0.62029 -0.31015,-0.93044l-0.03216,-0.81849c0,0 0,-0.62674 0.62674,-0.62674z" fill="#6c2900" stroke="none" stroke-width="0.5"/><path d="M297.17538,142.08111c-0.62674,0 -0.62674,-0.62674 -0.62674,-0.62674v-0.31015c0,-1.27504 -0.00261,-2.54989 0.01107,-3.82487c0.78863,-3.16134 1.97516,-6.37279 2.51189,-9.59478c0.68366,-4.10402 0.46032,-8.38206 1.27529,-12.45691c0.76224,-3.78234 1.13898,-8.88999 0.13532,-12.65928c-0.20893,-0.78466 -0.78961,-1.42329 -1.09875,-2.17414c-0.72429,-1.75916 -1.28614,-3.50152 -2.14836,-5.22163c0,0 -0.28029,-0.56058 0.28029,-0.84086c0.56058,-0.28029 0.84086,0.28029 0.84086,0.28029c0.87468,1.75351 1.45246,3.53203 2.1937,5.32337c0.11744,0.28381 1.08518,2.09127 1.14355,2.31045c1.05683,3.96899 0.67355,9.24445 -0.11746,13.22764c-0.81188,4.05941 -0.58886,8.32563 -1.26792,12.4167c-0.5317,3.20329 -1.71732,6.40489 -2.50481,9.54632c-0.00166,1.22257 -0.00118,2.44515 -0.00118,3.66772v0.31015c0,0 0,0.62674 -0.62674,0.62674z" fill="#6c2900" stroke="none" stroke-width="0.5"/><path d="M303.55544,96.03988c0.44318,-0.44318 0.88634,0 0.88634,0l0.14726,0.19275c1.53245,0.86671 2.80392,5.13119 3.12101,6.92967c0.19079,1.08213 -0.30989,1.8551 -0.29338,2.93532c-0.01631,2.02701 -0.59891,4.01372 -0.93853,5.99318c-0.53984,3.1464 -0.32656,6.48268 -0.93911,9.65816c-0.27694,1.43568 -0.61428,2.99288 -0.60353,4.5082c0,2.02031 -0.2948,3.73875 -0.62839,5.68304c-0.4242,2.47245 0.38239,4.87614 0.62534,7.28138c0.189,1.87123 -0.00733,3.66939 0.30467,5.54136c0,0 0.10304,0.61821 -0.51518,0.72125c-0.61822,0.10304 -0.72125,-0.51518 -0.72125,-0.51518c-0.31661,-1.89967 -0.12576,-3.72755 -0.31562,-5.62392c-0.25286,-2.52554 -1.0364,-5.01021 -0.61525,-7.60568c0.30621,-1.88713 0.6122,-3.52379 0.6122,-5.48226c0.00971,-1.6091 0.31837,-3.26806 0.63706,-4.7962c0.65034,-3.11833 0.4168,-6.45891 0.92177,-9.57096c0.30902,-1.90444 0.94183,-3.84846 0.92234,-5.7924c0.00817,-0.67436 0.48594,-1.98268 0.32691,-2.64733c-0.26098,-1.09073 -0.86314,-2.27127 -1.22519,-3.35742c-0.244,-0.732 -0.4719,-2.4523 -1.23644,-2.73909l-0.47303,-0.42755c0,0 -0.44318,-0.44317 0,-0.88634z" fill="#6c2900" stroke="none" stroke-width="0.5"/><path d="M278.10134,37.86526c3.61669,0 6.59076,2.75136 6.94333,6.2752c-0.61911,0.08314 -1.23823,0.16792 -1.85513,0.24974c-0.38572,-0.78135 -0.62615,-1.68132 -1.27679,-2.24638c-2.14679,-1.86441 -4.22438,-1.00544 -6.56772,-0.53677c0,0 -2.151,0.4302 -1.72079,2.5812c0.03111,0.15555 0.07122,0.29761 0.11887,0.42731c-0.85492,-0.19601 -1.71039,-0.44478 -2.56697,-0.63713c0.42607,-3.44578 3.36414,-6.11316 6.9252,-6.11316z" fill="#41bb52" stroke="#000000" stroke-width="0"/><path d="M298.88119,55.54364c3.61669,0 6.59076,2.75136 6.94332,6.2752c-0.61912,0.08314 -1.23823,0.16792 -1.85513,0.24974c-0.38572,-0.78135 -0.62615,-1.68132 -1.27679,-2.24638c-2.14679,-1.86441 -4.22438,-1.00544 -6.56771,-0.53677c0,0 -2.151,0.4302 -1.7208,2.5812c0.03111,0.15555 0.07122,0.29761 0.11887,0.42731c-0.85492,-0.19601 -1.71039,-0.44479 -2.56697,-0.63713c0.42607,-3.44578 3.36414,-6.11316 6.92521,-6.11316z" fill="#41bb52" stroke="#000000" stroke-width="0"/><path d="M325.86398,36.00439c3.61669,0 6.59076,2.75136 6.94332,6.2752c-0.61912,0.08314 -1.23822,0.16792 -1.85512,0.24974c-0.38572,-0.78135 -0.62615,-1.68132 -1.27679,-2.24638c-2.14679,-1.86441 -4.22438,-1.00543 -6.56771,-0.53677c0,0 -2.151,0.4302 -1.7208,2.5812c0.03111,0.15555 0.07122,0.29761 0.11887,0.42731c-0.85492,-0.19601 -1.71039,-0.44479 -2.56697,-0.63713c0.42607,-3.44578 3.36414,-6.11316 6.9252,-6.11316z" fill="#41bb52" stroke="#000000" stroke-width="0"/><path d="M322.76251,67.94953c3.61669,0 6.59076,2.75136 6.94332,6.2752c-0.61912,0.08314 -1.23823,0.16792 -1.85513,0.24974c-0.38572,-0.78135 -0.62615,-1.68132 -1.27679,-2.24638c-2.14679,-1.86441 -4.22438,-1.00544 -6.56771,-0.53677c0,0 -2.151,0.4302 -1.7208,2.5812c0.03111,0.15556 0.07122,0.29761 0.11887,0.42731c-0.85492,-0.19602 -1.71039,-0.44479 -2.56697,-0.63713c0.42607,-3.44578 3.36414,-6.11316 6.92521,-6.11316z" fill="#41bb52" stroke="#000000" stroke-width="0"/><path d="M295.15942,30.42174c3.61669,0 6.59076,2.75136 6.94333,6.2752c-0.61911,0.08314 -1.23823,0.16792 -1.85513,0.24974c-0.38572,-0.78135 -0.62615,-1.68132 -1.27679,-2.24638c-2.14679,-1.86441 -4.22438,-1.00543 -6.56772,-0.53677c0,0 -2.151,0.4302 -1.72079,2.5812c0.03111,0.15555 0.07122,0.29761 0.11887,0.42731c-0.85492,-0.19601 -1.71039,-0.44479 -2.56697,-0.63713c0.42607,-3.44578 3.36414,-6.11316 6.9252,-6.11316z" fill="#41bb52" stroke="#000000" stroke-width="0"/><path d="M320.59148,15.84483c3.61669,0 6.59076,2.75136 6.94332,6.2752c-0.61912,0.08314 -1.23822,0.16792 -1.85512,0.24974c-0.38572,-0.78135 -0.62615,-1.68132 -1.27679,-2.24638c-2.14679,-1.86441 -4.22438,-1.00543 -6.56771,-0.53677c0,0 -2.151,0.4302 -1.7208,2.5812c0.03111,0.15556 0.07122,0.29761 0.11887,0.42731c-0.85492,-0.19602 -1.71039,-0.44478 -2.56697,-0.63713c0.42607,-3.44578 3.36414,-6.11316 6.9252,-6.11316z" fill="#41bb52" stroke="#000000" stroke-width="0"/><path d="M283.06369,64.84806c3.61669,0 6.59076,2.75137 6.94332,6.2752c-0.61911,0.08314 -1.23822,0.16792 -1.85512,0.24974c-0.38572,-0.78135 -0.62615,-1.68132 -1.27679,-2.24638c-2.14679,-1.86441 -4.22438,-1.00543 -6.56771,-0.53677c0,0 -2.151,0.4302 -1.72079,2.5812c0.03111,0.15556 0.07122,0.29761 0.11887,0.42731c-0.85492,-0.19602 -1.71039,-0.44479 -2.56697,-0.63713c0.42607,-3.44578 3.36414,-6.11316 6.9252,-6.11316z" fill="#41bb52" stroke="#000000" stroke-width="0"/><path d="M337.33941,49.03056c3.61669,0 6.59076,2.75136 6.94332,6.2752c-0.61911,0.08314 -1.23823,0.16792 -1.85512,0.24974c-0.38572,-0.78135 -0.62615,-1.68132 -1.27679,-2.24638c-2.14679,-1.86441 -4.22438,-1.00544 -6.56772,-0.53677c0,0 -2.151,0.4302 -1.72079,2.5812c0.03111,0.15556 0.07122,0.29761 0.11887,0.42731c-0.85492,-0.19601 -1.71039,-0.44478 -2.56697,-0.63713c0.42607,-3.44578 3.36414,-6.11316 6.9252,-6.11316z" fill="#41bb52" stroke="#000000" stroke-width="0"/><path d="M267.24619,50.89144c3.61669,0 6.59076,2.75136 6.94333,6.2752c-0.61911,0.08314 -1.23823,0.16792 -1.85513,0.24974c-0.38572,-0.78135 -0.62615,-1.68132 -1.27679,-2.24638c-2.14679,-1.86441 -4.22438,-1.00544 -6.56772,-0.53677c0,0 -2.151,0.4302 -1.72079,2.5812c0.03111,0.15555 0.07122,0.29761 0.11887,0.42731c-0.85492,-0.19601 -1.71039,-0.44478 -2.56697,-0.63713c0.42607,-3.44578 3.36414,-6.11316 6.9252,-6.11316z" fill="#41bb52" stroke="#000000" stroke-width="0"/><path d="M266.6259,27.32027c3.61669,0 6.59076,2.75136 6.94333,6.2752c-0.61911,0.08314 -1.23823,0.16792 -1.85513,0.24974c-0.38572,-0.78135 -0.62615,-1.68132 -1.27679,-2.24638c-2.14679,-1.86441 -4.22438,-1.00544 -6.56772,-0.53677c0,0 -2.151,0.4302 -1.72079,2.5812c0.03111,0.15556 0.07122,0.29761 0.11887,0.42731c-0.85492,-0.19602 -1.71039,-0.44479 -2.56697,-0.63713c0.42607,-3.44578 3.36414,-6.11316 6.9252,-6.11316z" fill="#41bb52" stroke="#000000" stroke-width="0"/><path d="M300.12178,17.08542c3.61669,0 6.59076,2.75136 6.94333,6.2752c-0.61912,0.08314 -1.23823,0.16792 -1.85513,0.24974c-0.38572,-0.78135 -0.62615,-1.68132 -1.27679,-2.24638c-2.14679,-1.86441 -4.22438,-1.00544 -6.56772,-0.53677c0,0 -2.151,0.4302 -1.72079,2.5812c0.03111,0.15555 0.07122,0.29761 0.11887,0.42731c-0.85492,-0.19601 -1.71039,-0.44478 -2.56697,-0.63713c0.42607,-3.44578 3.36414,-6.11316 6.9252,-6.11316z" fill="#41bb52" stroke="#000000" stroke-width="0"/></g><text transform="translate(3.60933,26.11865) rotate(0.41332) scale(0.31048,0.47351) skewX(1.22993)" font-size="40" xml:space="preserve" fill="#006aff" fill-rule="nonzero" stroke="none" stroke-width="1" stroke-linecap="butt" stroke-linejoin="miter" stroke-miterlimit="10" stroke-dasharray="" stroke-dashoffset="0" font-family="Pixel" font-weight="normal" text-anchor="start" style="mix-blend-mode: normal"><tspan x="0" dy="0">©2022 Microzeg</tspan></text><g><path d="M253.5,35.52618c0,-12.15027 9.84974,-22 22,-22c12.15026,0 22,9.84972 22,22c0,12.15028 -9.84974,22 -22,22c-12.15026,0 -22,-9.84973 -22,-22z" fill="#ffeaa2" fill-rule="nonzero" stroke="#000000" stroke-width="4" stroke-linecap="butt" stroke-linejoin="miter"/><path d="M179.98396,161.70235v-70.25816h48.1296v70.25816z" fill="#ff0000" fill-rule="nonzero" stroke="#000000" stroke-width="1.2" stroke-linecap="butt" stroke-linejoin="miter"/><path d="M246.36961,69.03903c0,16.34593 -18.08081,29.59694 -40.3846,29.59694c-22.30379,0 -40.38459,-13.25102 -40.38459,-29.59694c0,-16.34593 18.08081,-29.59692 40.38459,-29.59692c22.30379,0 40.3846,13.251 40.3846,29.59693z" fill="#ffeaa2" fill-rule="nonzero" stroke="#000000" stroke-width="1.2" stroke-linecap="butt" stroke-linejoin="miter"/><path d="M206.2093,63.74072c-13.47738,-0.96268 -31.92855,13.63781 -42.67837,-3.5298c-10.74982,-17.00716 7.70137,-40.11126 46.52907,-32.08901c29.8428,5.77602 37.54413,22.30188 35.6188,31.44725c-1.92533,9.14535 -12.99605,12.03336 -12.99605,12.03336c-13.63781,3.04847 -14.92138,-7.05957 -26.47345,-7.86179z" data-paper-data="{&quot;index&quot;:null}" fill="#ffffff" fill-rule="evenodd" stroke="#000000" stroke-width="1.5" stroke-linecap="butt" stroke-linejoin="miter"/><path d="M181.51594,210.39809v-48.27413l29.3781,-0.67046c0,0 -8.18734,6.53141 -8.18734,10.72759c0,2.65821 -4.33448,4.07623 -4.33448,9.38664c0,11.75204 -0.96323,28.83039 -0.96323,28.83039z" fill="#2b00ff" fill-rule="nonzero" stroke="#000000" stroke-width="1.5" stroke-linecap="butt" stroke-linejoin="miter"/><path d="M227.63833,209.15267c0,0 -7.51919,-16.16723 -12.02875,-27.55547c-2.03773,-5.14601 -6.92798,-4.79915 -7.94801,-7.37509c-1.61018,-4.06628 -12.32572,-7.14477 -12.32572,-7.14477l29.71415,-11.01474l18.52404,46.7798z" data-paper-data="{&quot;index&quot;:null}" fill="#2b00ff" fill-rule="nonzero" stroke="#000000" stroke-width="1.5" stroke-linecap="butt" stroke-linejoin="miter"/><path d="M173.93296,225.56403c0,0 0.68937,-3.4468 0.68937,-6.20423c0,-2.75743 2.06808,-4.82554 2.06808,-4.82554c0,0 1.32092,-5.51487 4.13617,-5.51487c4.45126,0 17.23402,0 17.23402,0v16.54467z" fill="#5e341a" fill-rule="nonzero" stroke="#000000" stroke-width="1" stroke-linecap="butt" stroke-linejoin="miter"/><path d="M233.57601,223.98847l-6.44439,-15.23797c0,0 11.77317,-4.97908 15.87287,-6.71291c2.59287,-1.09656 5.95763,3.46822 5.95763,3.46822c0,0 2.71029,1.0992 3.78436,3.63885c1.07407,2.53966 3.05155,5.44571 3.05155,5.44571z" data-paper-data="{&quot;index&quot;:null}" fill="#5e341a" fill-rule="nonzero" stroke="#000000" stroke-width="1" stroke-linecap="butt" stroke-linejoin="miter"/><path d="M235.02727,52.61087c0,4.5498 -3.30894,8.27233 -7.44509,8.27233c-4.13615,0 -7.44509,-3.72254 -7.44509,-8.27233c0,-4.5498 3.30893,-8.27233 7.44509,-8.27233c4.13615,0.41361 7.44509,3.72254 7.44509,8.27233" fill="#008eff" fill-rule="evenodd" stroke="#000000" stroke-width="2" stroke-linecap="butt" stroke-linejoin="miter"/><path d="M217.97836,81.94755c-3.08011,3.03878 -7.12338,5.82133 -12.4108,8.04033c-17.95006,6.4504 -26.41814,-3.13461 -31.03846,-12.73338z" fill="#ffffff" fill-rule="evenodd" stroke="#000000" stroke-width="3" stroke-linecap="round" stroke-linejoin="round"/><path d="M122.5,144.52618c0,-12.15027 9.84975,-22 22,-22c12.15025,0 22,9.84973 22,22c0,12.15027 -9.84975,22 -22,22c-12.15025,0 -22,-9.84973 -22,-22z" fill="#ffeaa2" fill-rule="nonzero" stroke="#000000" stroke-width="4" stroke-linecap="butt" stroke-linejoin="miter"/><g stroke-linejoin="miter"><path d="M140.5,105.71668l8,-13" fill="#000000" fill-rule="nonzero" stroke="#7b3000" stroke-width="3.5" stroke-linecap="round"/><path d="M123.5,122c0,-11.32184 9.17816,-20.5 20.5,-20.5c11.32184,0 20.5,9.17816 20.5,20.5c0,11.32184 -9.17816,20.5 -20.5,20.5c-11.32184,0 -20.5,-9.17816 -20.5,-20.5z" fill="#ff0000" fill-rule="nonzero" stroke="none" stroke-width="0" stroke-linecap="butt"/><path d="M138.35037,112.6601c-2.17934,1.19423 -3.82932,5.85223 -6.94158,3.69031c-3.09882,-2.13145 -2.16127,-8.40436 4.55705,-10.84807c5.13102,-1.95226 7.7148,0.39926 8.18119,2.33276c0.46639,1.9335 -1.01558,3.61311 -1.01558,3.61311c-1.86827,1.97237 -2.915,0.18391 -4.78109,1.21189z" data-paper-data="{&quot;index&quot;:null}" fill="#ffffff" fill-rule="evenodd" stroke="#000000" stroke-width="0" stroke-linecap="butt"/></g><path d="M194.02727,50.61087c0,4.5498 -3.30894,8.27233 -7.44509,8.27233c-4.13615,0 -7.44509,-3.72254 -7.44509,-8.27233c0,-4.5498 3.30893,-8.27233 7.44509,-8.27233c4.13615,0.41361 7.44509,3.72254 7.44509,8.27233" fill="#008eff" fill-rule="evenodd" stroke="#000000" stroke-width="2" stroke-linecap="butt" stroke-linejoin="miter"/></g><path d="M323.5,54.52618c-12.15026,0 -22,-9.84972 -22,-22c0,-12.15028 9.84974,-22 22,-22c12.15026,0 22,9.84973 22,22c0,12.15027 -9.84974,22 -22,22z" fill="#ff862c" fill-rule="nonzero" stroke="#000000" stroke-width="4" stroke-linecap="butt" stroke-linejoin="miter"/><path d="M370.88644,158.70235v-70.25816h48.1296v70.25816z" fill="#2b00ff" fill-rule="nonzero" stroke="#000000" stroke-width="1.2" stroke-linecap="butt" stroke-linejoin="miter"/><path d="M352.63039,66.03904c0,-16.34593 18.08081,-29.59693 40.3846,-29.59693c22.30378,0 40.38459,13.25099 40.38459,29.59692c0,16.34592 -18.0808,29.59694 -40.38459,29.59694c-22.30379,0 -40.3846,-13.25101 -40.3846,-29.59694z" fill="#ff862c" fill-rule="nonzero" stroke="#000000" stroke-width="1.2" stroke-linecap="butt" stroke-linejoin="miter"/><path d="M392.7907,60.74073c-11.55207,0.80222 -12.83564,10.91026 -26.47345,7.86179c0,0 -11.07072,-2.88801 -12.99605,-12.03336c-1.92533,-9.14537 5.776,-25.67123 35.6188,-31.44725c38.8277,-8.02225 57.27889,15.08185 46.52907,32.08901c-10.74982,17.16761 -29.20099,2.56712 -42.67837,3.5298z" data-paper-data="{&quot;index&quot;:null}" fill="#ffffff" fill-rule="evenodd" stroke="#000000" stroke-width="1.5" stroke-linecap="butt" stroke-linejoin="miter"/><path d="M401.59101,207.39812c0,0 -0.96323,-17.07835 -0.96323,-28.83039c0,-5.31041 -4.33448,-6.72843 -4.33448,-9.38664c0,-4.19618 -8.18734,-10.72759 -8.18734,-10.72759l29.3781,0.67046v48.27413z" fill="#000000" fill-rule="nonzero" stroke="#000000" stroke-width="1.5" stroke-linecap="butt" stroke-linejoin="miter"/><path d="M355.42596,199.8424l18.52404,-46.7798l29.71415,11.01474c0,0 -10.71554,3.07849 -12.32572,7.14477c-1.02003,2.57594 -5.91028,2.22908 -7.94801,7.37509c-4.50956,11.38824 -12.02875,27.55547 -12.02875,27.55547z" data-paper-data="{&quot;index&quot;:null}" fill="#000000" fill-rule="nonzero" stroke="#000000" stroke-width="1.5" stroke-linecap="butt" stroke-linejoin="miter"/><path d="M400.9394,222.56406v-16.54467c0,0 12.78276,0 17.23402,0c2.81525,0 4.13617,5.51487 4.13617,5.51487c0,0 2.06808,2.06811 2.06808,4.82554c0,2.75743 0.68937,6.20423 0.68937,6.20423z" fill="#ffffff" fill-rule="nonzero" stroke="#000000" stroke-width="1" stroke-linecap="butt" stroke-linejoin="miter"/><path d="M343.20197,211.59037c0,0 1.97748,-2.90605 3.05155,-5.44571c1.07407,-2.53965 3.78436,-3.63885 3.78436,-3.63885c0,0 3.36476,-4.56478 5.95763,-3.46822c4.0997,1.73383 15.87287,6.71291 15.87287,6.71291l-6.44439,15.23797z" data-paper-data="{&quot;index&quot;:null}" fill="#ffffff" fill-rule="nonzero" stroke="#000000" stroke-width="1" stroke-linecap="butt" stroke-linejoin="miter"/><path d="M363.97273,49.61087c0,-4.54979 3.30894,-7.85872 7.44509,-8.27233c4.13616,0 7.44509,3.72253 7.44509,8.27233c0,4.54979 -3.30894,8.27233 -7.44509,8.27233c-4.13615,0 -7.44509,-3.72253 -7.44509,-8.27233" fill="#008eff" fill-rule="evenodd" stroke="#000000" stroke-width="2" stroke-linecap="butt" stroke-linejoin="miter"/><path d="M424.4709,74.2545c-4.62032,9.59877 -13.0884,19.18378 -31.03846,12.73338c-5.28742,-2.219 -9.33069,-5.00155 -12.4108,-8.04033z" fill="#ffffff" fill-rule="evenodd" stroke="#000000" stroke-width="3" stroke-linecap="round" stroke-linejoin="round"/><path d="M454.5,163.52618c-12.15025,0 -22,-9.84973 -22,-22c0,-12.15027 9.84975,-22 22,-22c12.15025,0 22,9.84973 22,22c0,12.15027 -9.84975,22 -22,22z" fill="#ff862c" fill-rule="nonzero" stroke="#000000" stroke-width="4" stroke-linecap="butt" stroke-linejoin="miter"/><path d="M458.5,102.71668l-8,-13" fill="#000000" fill-rule="nonzero" stroke="#7b3000" stroke-width="3.5" stroke-linecap="round" stroke-linejoin="miter"/><path d="M456,139.5c-11.32184,0 -20.5,-9.17816 -20.5,-20.5c0,-11.32184 9.17816,-20.5 20.5,-20.5c11.32184,0 20.5,9.17816 20.5,20.5c0,11.32184 -9.17816,20.5 -20.5,20.5z" fill="#efff00" fill-rule="nonzero" stroke="none" stroke-width="0" stroke-linecap="butt" stroke-linejoin="miter"/><path d="M460.64964,109.6601c-1.86609,-1.02798 -2.91282,0.76048 -4.78109,-1.21189c0,0 -1.48197,-1.67961 -1.01558,-3.61311c0.46639,-1.9335 3.05017,-4.28502 8.18119,-2.33276c6.71832,2.44371 7.65587,8.71662 4.55705,10.84807c-3.11226,2.16192 -4.76224,-2.49608 -6.94158,-3.69031z" data-paper-data="{&quot;index&quot;:null}" fill="#ffffff" fill-rule="evenodd" stroke="#000000" stroke-width="0" stroke-linecap="butt" stroke-linejoin="miter"/><path d="M404.97273,47.61087c0,-4.54979 3.30894,-7.85872 7.44509,-8.27233c4.13616,0 7.44509,3.72253 7.44509,8.27233c0,4.54979 -3.30894,8.27233 -7.44509,8.27233c-4.13615,0 -7.44509,-3.72253 -7.44509,-8.27233" fill="#008eff" fill-rule="evenodd" stroke="#000000" stroke-width="2" stroke-linecap="butt" stroke-linejoin="miter"/><g fill-rule="nonzero" stroke-linecap="butt" stroke-linejoin="miter"><path d="M401.19608,223.14973v-16.49412c0,0 12.74372,0 17.18138,0c2.80664,0 4.12353,5.49804 4.12353,5.49804c0,0 2.06176,2.06177 2.06176,4.81079c0,2.74902 0.68725,6.18529 0.68725,6.18529z" fill="#ffffff" stroke="#000000" stroke-width="1"/><path d="M413.73848,216.86707l0.00888,-0.57716c-0.46989,-2.19765 2.42213,-3.15846 4.45827,-3.20274c0,0 0.68726,0 0.68726,0.68725c0,0.68725 -0.68726,0.68726 -0.68726,0.68726c-1.1437,-0.03973 -3.66023,0.65855 -3.10152,1.60803l0.00888,0.79736c0,0 0,0.68725 -0.68726,0.68725c-0.68725,0 -0.68725,-0.68725 -0.68725,-0.68725z" fill="#000000" stroke="none" stroke-width="0.5"/><path d="M411.67672,213.08716v-0.34363c0.30253,-1.76325 3.99702,-2.70889 5.84166,-2.74902c0,0 0.68725,0 0.68725,0.68725c0,0.68725 -0.68725,0.68725 -0.68725,0.68725c-1.55702,-0.05408 -5.56879,0.27287 -4.46715,1.37451v0.34363c0,0 0,0.68725 -0.68725,0.68725c-0.68725,0 -0.68725,-0.68725 -0.68725,-0.68725z" fill="#000000" stroke="none" stroke-width="0.5"/><path d="M414.76936,218.5852v-0.34362c0.22418,-2.29015 2.92578,-2.40539 4.81079,-2.40539c0,0 0.68725,0 0.68725,0.68726c0,0.68725 -0.68725,0.68725 -0.68725,0.68725c-0.68456,0 -3.76011,0.00248 -3.43628,1.03089v0.34362c0,0 0,0.68726 -0.68725,0.68726c-0.68725,0 -0.68726,-0.68726 -0.68726,-0.68726z" fill="#000000" stroke="none" stroke-width="0.5"/></g><g fill-rule="nonzero" stroke-linecap="butt" stroke-linejoin="miter"><path d="M341.59409,211.36113c0,0 2.07459,-3.04182 3.20246,-5.70084c1.12787,-2.65902 3.96803,-3.80738 3.96803,-3.80738c0,0 3.52954,-4.77774 6.24426,-3.62624c4.29238,1.82068 16.61888,7.04917 16.61888,7.04917l-6.7672,15.95413z" data-paper-data="{&quot;index&quot;:null}" fill="#ffffff" stroke="#000000" stroke-width="1"/><path d="M354.04232,203.35846c-0.27069,-0.66942 0.39875,-0.94009 0.39875,-0.94009l0.69894,-0.24264c1.94124,-0.08281 2.01884,1.22592 3.50984,1.79814c0,0 0.66476,0.28196 0.38279,0.94672c-0.28197,0.66476 -0.94673,0.38279 -0.94673,0.38279c-1.18815,-0.53475 -1.50677,-1.81155 -2.85575,-1.68629l-0.24779,0.14015c0,0 -0.66941,0.2707 -0.94009,-0.39875z" fill="#000000" stroke="none" stroke-width="0.5"/><path d="M350.69325,206.08946c0.28197,-0.66476 0.94672,-0.38279 0.94672,-0.38279l0.00534,0.08506c1.78334,-0.07609 2.67041,0.696 3.77738,1.99442c0,0 0.46846,0.54947 -0.08102,1.01796c-0.54947,0.46846 -1.01796,-0.08102 -1.01796,-0.08102c-0.7769,-0.91125 -1.30602,-1.60905 -2.58821,-1.49001l-0.65942,-0.19691c0,0 -0.66476,-0.28196 -0.38279,-0.94672z" fill="#000000" stroke="none" stroke-width="0.5"/><path d="M348.75968,208.79888l0.50447,0.23497c1.41951,-0.08882 1.68566,0.73979 2.8193,1.17486c0,0 0.66476,0.28196 0.38279,0.94672c-0.28197,0.66476 -0.94673,0.38279 -0.94673,0.38279c-1.13101,-0.50904 -1.21237,-1.16134 -2.49874,-1.08087l-0.82504,-0.32896c0,0 -0.66475,-0.28196 -0.38279,-0.94672c0.28197,-0.66476 0.94672,-0.38279 0.94672,-0.38279z" fill="#000000" stroke="none" stroke-width="0.5"/></g><path d="M121.5,418.71038v-146c0,0 12.26664,-10 26,-10c7.03959,0 32.09448,-3.88013 47.98209,-3.66665c10.20764,0.13716 3.98493,6.25058 17.02021,6.34314c9.68522,0.06878 28.0649,-14.87396 39.01121,-14.82702c14.4484,0.06196 12.87595,15.10592 28.99009,15.13463c16.07873,0.02865 52.84104,-3.95789 69.99634,-3.95691c14.12111,0.00081 30.50849,5.99318 45.00007,5.97859c10.6308,-0.01069 16.31768,5.97487 26.99664,5.95731c13.38882,-0.02202 26.76522,-11.04897 40.00308,-11.07968c121.87064,-0.28268 232.00027,10.11658 232.00027,10.11658v146z" fill="#006aff" fill-rule="nonzero" stroke="none" stroke-width="0" stroke-linecap="butt" stroke-linejoin="miter"/><text transform="translate(6.19458,-68.45137) rotate(-1.46813) scale(0.20163,-0.73501) skewX(-1.42326)" font-size="40" xml:space="preserve" fill="#00ff22" fill-rule="nonzero" stroke="none" stroke-width="1" stroke-linecap="butt" stroke-linejoin="miter" stroke-miterlimit="10" stroke-dasharray="" stroke-dashoffset="0" font-family="Pixel" font-weight="normal" text-anchor="start" style="mix-blend-mode: normal"><tspan x="0" dy="0">https://scratch.mit.edu/projects/774252052</tspan></text></g></g></svg>