<svg version="1.1" xmlns="http://www.w3.org/2000/svg" xmlns:xlink="http://www.w3.org/1999/xlink" width="611.5" height="495.52715" viewBox="0,0,611.5,495.52715"><g transform="translate(78.25,104.06048)"><g data-paper-data="{&quot;isPaintingLayer&quot;:true}" stroke-miterlimit="10" stroke-dasharray="" stroke-dashoffset="0" style="mix-blend-mode: normal"><path d="M-65.08644,386.69116v-421.88781h591.04844v421.88781z" fill="#2aff00" fill-rule="nonzero" stroke="none" stroke-width="0" stroke-linecap="butt" stroke-linejoin="miter"/><g stroke-linejoin="miter"><path d="M249.9201,38.8833l-0.53885,26.64596" fill="none" fill-rule="nonzero" stroke="#7b3000" stroke-width="3.5" stroke-linecap="round"/><path d="M228.40325,80.68047c0,-11.32184 9.17816,-20.5 20.5,-20.5c11.32184,0 20.5,9.17816 20.5,20.5c0,11.32184 -9.17816,20.5 -20.5,20.5c-11.32184,0 -20.5,-9.17816 -20.5,-20.5z" fill="#ff0000" fill-rule="nonzero" stroke="none" stroke-width="0" stroke-linecap="butt"/><path d="M243.25362,71.34056c-2.17934,1.19423 -3.82932,5.85223 -6.94158,3.69031c-3.09882,-2.13145 -2.16127,-8.40436 4.55705,-10.84807c5.13102,-1.95226 7.7148,0.39926 8.18119,2.33276c0.46639,1.9335 -1.01558,3.61311 -1.01558,3.61311c-1.86827,1.97237 -2.915,0.18391 -4.78109,1.21189z" data-paper-data="{&quot;index&quot;:null}" fill="#ffffff" fill-rule="evenodd" stroke="#000000" stroke-width="0" stroke-linecap="butt"/></g><g fill-rule="nonzero" stroke-linecap="butt" stroke-linejoin="miter"><path d="M246.05484,209.29461c0,0 18.61004,-23.62024 23.59218,-44.33541c1.93011,-8.02511 -0.13315,-22.84383 4.05245,-30.8702c4.67152,-8.95821 15.52033,-11.06214 15.52033,-18.68906c0,-13.38247 -10.44797,-34.80118 -15.07952,-53.93674c-2.00625,-8.28892 7.62399,-21.62698 5.60495,-28.92382c-4.76084,-17.20591 -20.61006,-24.68113 -20.61006,-24.68113h91.56201c0,0 5.07931,13.8832 0.43432,28.99248c-2.46835,8.02911 -16.13064,14.52718 -16.13064,23.61206c0,17.68851 15.69633,33.84434 15.69633,47.08904c0,8.18143 -11.6865,15.67306 -15.39822,24.97464c-3.47461,8.70744 1.00991,19.16277 1.00991,28.65451c0,20.15084 14.3883,41.57351 14.3883,41.57351c0,0 -12.98185,14.38832 -33.35473,14.38832c-8.2349,0 -14.20199,12.45356 -22.96531,8.23609c-3.65349,-1.75831 -31.50877,-0.38792 -33.2799,-0.38792c-8.81519,0 -15.04233,-15.69634 -15.04233,-15.69634z" fill="#7b3000" stroke="none" stroke-width="0"/><path d="M421.98466,-4.28463c0,14.19505 -12.57458,18.77429 -20.83105,30.80552c-8.57205,12.49105 -2.63674,38.84145 -17.48011,46.26574c-14.15128,7.07814 -44.93254,8.6046 -62.407,8.6046c-14.349,0 -26.22749,-19.32171 -45.49343,-26.89239c-15.12806,-5.9447 -34.39766,-3.05122 -43.25131,-11.13642c-21.87786,-19.9789 -15.89753,-43.57317 -15.89753,-65.95944c0,-19.676 13.005,-23.25831 27.98086,-36.96185c9.2337,-8.44923 27.60294,3.03613 40.91174,-1.56826c12.25969,-4.24144 19.23484,-24.90923 33.13362,-24.90923c13.35811,0 39.1645,-9.59657 50.74036,-5.66181c20.32903,6.91003 24.03034,45.40563 34.45765,60.90877c7.39676,10.99734 18.13624,13.12466 18.13624,26.50483z" fill="#4bd45d" stroke="none" stroke-width="0"/><path d="M421.98466,-4.28463c0,14.19505 -12.57458,18.77429 -20.83105,30.80552c-8.57205,12.49105 -2.63674,38.84145 -17.48011,46.26574c-14.15128,7.07814 -44.93254,8.6046 -62.407,8.6046c-14.349,0 -26.22749,-19.32171 -45.49343,-26.89239c-15.12806,-5.9447 -34.39766,-3.05122 -43.25131,-11.13642c-21.87786,-19.9789 -15.89753,-43.57317 -15.89753,-65.95944c0,-19.676 13.005,-23.25831 27.98086,-36.96185c9.2337,-8.44923 27.60294,3.03613 40.91174,-1.56826c12.25969,-4.24144 19.23484,-24.90923 33.13362,-24.90923c13.35811,0 39.1645,-9.59657 50.74036,-5.66181c20.32903,6.91003 24.03034,45.40563 34.45765,60.90877c7.39676,10.99734 18.13624,13.12466 18.13624,26.50483z" fill="#4bd45d" stroke="none" stroke-width="0"/><path d="M276.53362,199.97362c-1.30802,0 -1.30802,-1.30803 -1.30802,-1.30803v-0.6473c0,-4.4785 1.25526,-8.19583 1.95876,-12.50796c0.38905,-2.38482 0.21315,-5.0121 1.31269,-7.21113c-0.05433,-5.11838 2.41008,-9.84243 3.21831,-14.79659c0.5884,-3.60664 0.5591,-7.43758 1.31267,-11.09487c0.94198,-4.57176 3.89175,-9.72076 5.89015,-13.79305c1.99037,-6.00484 3.85988,-11.26457 5.11369,-17.27666c1.28274,-6.15067 -0.70976,-13.30475 -0.66539,-19.55583c-1.29247,-3.87744 -1.16602,-8.259 -1.92375,-12.20743c-0.49112,-2.559 -2.19877,-5.139 -3.17185,-7.56738c-1.35485,-3.38101 -2.20617,-7.01394 -3.84517,-10.27217c0,0 -0.58496,-1.16994 0.58498,-1.75489c1.16995,-0.58496 1.75488,0.58496 1.75488,0.58496c1.65447,3.3267 2.54715,6.99644 3.92224,10.44099c1.02749,2.57388 2.7377,5.24812 3.30102,7.96748c0.83167,4.01493 0.64099,8.43258 1.95995,12.38943c0.04005,6.63574 1.89507,14.01346 0.62918,20.57592c-1.18377,6.13663 -3.19852,11.57499 -5.24288,17.67673c-1.94049,3.80093 -4.92807,9.06685 -5.76099,13.39297c-0.69258,3.59725 -0.67507,7.37501 -1.27646,10.91284c-0.85593,5.03527 -3.20478,9.78156 -3.25454,14.97857c-1.08393,2.16783 -0.88051,4.69993 -1.27647,7.02917c-0.70955,4.17409 -1.92497,7.76309 -1.92497,12.08891v0.6473c0,0 -0.00001,1.30803 -1.30803,1.30803z" fill="#6c2900" stroke="none" stroke-width="0.5"/><path d="M299.83593,82.14067c1.30802,0 1.30801,1.30803 1.30801,1.30803l-0.06712,0.88093c0.21577,0.64731 0.43151,1.29456 0.64729,1.94186c2.01205,6.07018 4.01305,12.02991 5.21045,18.23711c0.51263,2.65753 0.03497,6.01239 0.03502,8.71263c0.00008,3.98654 0.66634,7.71255 0.64712,11.6813c-0.01205,2.48362 -0.66062,4.6449 -0.64717,7.09262c-0.03556,4.94361 -2.00132,9.49785 -2.59914,14.37482c-0.49509,4.03888 -1.15136,7.90689 -1.96688,11.81714c-0.3822,1.83259 0.70435,2.02273 -0.06457,4.08375c-0.21329,0.57179 -1.10158,0.71562 -1.29457,1.29456c-0.27292,0.81877 0.27292,1.77038 0,2.58915c-0.19299,0.57894 -1.06544,0.72895 -1.29455,1.29456c-0.71011,1.75297 -1.27708,4.47852 -1.94186,6.47286c-5.57046,11.14091 -6.11697,23.06536 -9.00148,34.77011c0,0 -0.31725,1.26897 -1.58623,0.95173c-1.26898,-0.31724 -0.95174,-1.58623 -0.95174,-1.58623c1.33567,-5.25818 1.66736,-10.73458 2.56065,-16.03089c0.67998,-4.03148 2.68702,-7.49529 3.95442,-11.29167c0.88068,-2.63807 1.35066,-5.30061 2.60748,-7.81419c0.66981,-2.00937 1.22203,-4.65285 1.94186,-6.47286c0.22443,-0.56749 1.10157,-0.71561 1.29456,-1.29457c0.27292,-0.81877 -0.27291,-1.77039 0,-2.58916c0.19299,-0.57894 1.0503,-0.73532 1.29457,-1.29456c0.49157,-1.12543 -0.29719,-2.47783 -0.06458,-3.68367c0.73445,-3.80739 1.4213,-7.6077 1.91689,-11.53895c0.59918,-4.75308 2.62173,-9.24021 2.57914,-14.05195c0.02923,-6.27128 0.00018,-12.45885 0.00005,-18.77386c-0.00006,-2.44053 0.53416,-5.71799 0.03496,-8.11159c-1.27764,-6.12616 -3.13421,-12.00591 -5.14615,-18.0109c-0.21577,-0.64731 -0.43151,-1.29456 -0.64729,-1.94186l-0.06713,-1.70821c0,0 0,-1.30801 1.30802,-1.30801z" fill="#6c2900" stroke="none" stroke-width="0.5"/><path d="M312.78164,194.14803c-1.30801,0 -1.30801,-1.30803 -1.30801,-1.30803v-0.64728c0,-2.66103 -0.00545,-5.3217 0.0231,-7.98261c1.6459,-6.5978 4.12223,-13.30021 5.24238,-20.0246c1.42681,-8.56521 0.96069,-17.49361 2.66157,-25.99794c1.59081,-7.89386 2.37709,-18.55367 0.28242,-26.42029c-0.43605,-1.6376 -1.64794,-2.97046 -2.29312,-4.53749c-1.5116,-3.67142 -2.68422,-7.30778 -4.48369,-10.8977c0,0 -0.58496,-1.16995 0.58498,-1.75489c1.16994,-0.58496 1.75489,0.58498 1.75489,0.58498c1.82547,3.65962 3.03134,7.37146 4.57832,11.11003c0.24511,0.59233 2.26479,4.36453 2.38662,4.82197c2.20564,8.2834 1.40572,19.29342 -0.24515,27.60647c-1.69441,8.47211 -1.22897,17.37582 -2.64618,25.91402c-1.10968,6.68535 -3.58412,13.36719 -5.22763,19.92344c-0.00344,2.55153 -0.00245,5.1031 -0.00245,7.65466v0.64729c0,0 0,1.30801 -1.30803,1.30801z" fill="#6c2900" stroke="none" stroke-width="0.5"/><path d="M326.09703,98.05865c0.92492,-0.92493 1.84981,0 1.84981,0l0.30734,0.40227c3.19826,1.80885 5.85184,10.70895 6.51364,14.46242c0.39818,2.25844 -0.64673,3.87164 -0.61228,6.12608c-0.03404,4.23044 -1.24994,8.37676 -1.95874,12.50795c-1.12667,6.56663 -0.68155,13.52954 -1.95994,20.15685c-0.57798,2.99632 -1.28202,6.24622 -1.25959,9.40874c0,4.21644 -0.61526,7.80288 -1.31148,11.86067c-0.88531,5.16009 0.79806,10.17665 1.30511,15.19646c0.39446,3.90531 -0.0153,7.65812 0.63586,11.56499c0,0 0.21504,1.29022 -1.07521,1.50527c-1.29025,0.21506 -1.50528,-1.0752 -1.50528,-1.0752c-0.66078,-3.96467 -0.26246,-7.77952 -0.65871,-11.73728c-0.52773,-5.27087 -2.163,-10.45645 -1.28404,-15.87329c0.63907,-3.93849 1.27768,-7.35425 1.27768,-11.44164c0.02025,-3.35824 0.66445,-6.82055 1.32956,-10.00982c1.35728,-6.50803 0.86987,-13.47994 1.92377,-19.97489c0.64493,-3.97462 1.96565,-8.03185 1.92496,-12.08891c0.01705,-1.4074 1.01416,-4.1379 0.68227,-5.52505c-0.54467,-2.27638 -1.80141,-4.74022 -2.55701,-7.00703c-0.50923,-1.52771 -0.98486,-5.11803 -2.58048,-5.71658l-0.98722,-0.8923c0,0 -0.92492,-0.92492 0,-1.84982z" fill="#6c2900" stroke="none" stroke-width="0.5"/><path d="M272.97358,-23.35348c7.54815,0 13.75512,5.74217 14.49094,13.09653c-1.2921,0.17352 -2.58422,0.35044 -3.87171,0.52122c-0.805,-1.63069 -1.3068,-3.50896 -2.6647,-4.68826c-4.4804,-3.89107 -8.8164,-2.09839 -13.70703,-1.12026c0,0 -4.4892,0.89783 -3.59134,5.38703c0.06493,0.32465 0.14864,0.62113 0.24808,0.89181c-1.78424,-0.40908 -3.56962,-0.92826 -5.35733,-1.3297c0.88922,-7.19143 7.02104,-12.75834 14.4531,-12.75834z" fill="#41bb52" stroke="#000000" stroke-width="0"/><path d="M316.34173,13.54182c7.54814,0 13.75511,5.74217 14.4909,13.09652c-1.29212,0.17352 -2.58422,0.35047 -3.8717,0.52123c-0.80501,-1.6307 -1.3068,-3.50897 -2.66469,-4.68826c-4.48042,-3.89107 -8.81641,-2.09837 -13.707,-1.12025c0,0 -4.4892,0.89783 -3.59136,5.38705c0.06494,0.32464 0.14864,0.62111 0.24809,0.89181c-1.78423,-0.40908 -3.56963,-0.92829 -5.35734,-1.32972c0.88922,-7.19143 7.02105,-12.75834 14.45312,-12.75834z" fill="#41bb52" stroke="#000000" stroke-width="0"/><path d="M372.65559,-27.23716c7.54815,0 13.75512,5.74218 14.49092,13.09652c-1.29211,0.17352 -2.58421,0.35047 -3.87169,0.52123c-0.805,-1.6307 -1.30679,-3.50896 -2.6647,-4.68826c-4.48041,-3.89107 -8.8164,-2.09835 -13.707,-1.12025c0,0 -4.4892,0.89784 -3.59135,5.38705c0.06494,0.32463 0.14863,0.62111 0.24808,0.8918c-1.78423,-0.40907 -3.56964,-0.9283 -5.35733,-1.32972c0.88922,-7.19143 7.02105,-12.75833 14.4531,-12.75833z" fill="#41bb52" stroke="#000000" stroke-width="0"/><path d="M366.18275,39.43327c7.54815,0 13.75511,5.74217 14.4909,13.09652c-1.29211,0.17351 -2.58422,0.35047 -3.87171,0.52123c-0.80501,-1.6307 -1.3068,-3.50897 -2.6647,-4.68827c-4.48041,-3.89107 -8.81642,-2.09839 -13.707,-1.12026c0,0 -4.48919,0.89784 -3.59135,5.38705c0.06494,0.32466 0.14863,0.62112 0.24808,0.8918c-1.78423,-0.4091 -3.56964,-0.92829 -5.35735,-1.3297c0.88922,-7.19143 7.02104,-12.75833 14.45311,-12.75833z" fill="#41bb52" stroke="#000000" stroke-width="0"/><path d="M308.5743,-38.88831c7.54814,0 13.75512,5.74217 14.49094,13.09653c-1.2921,0.17352 -2.58422,0.35045 -3.87172,0.5212c-0.80501,-1.63069 -1.30679,-3.50896 -2.6647,-4.68826c-4.48042,-3.89107 -8.81641,-2.09835 -13.70702,-1.12025c0,0 -4.4892,0.89783 -3.59134,5.38703c0.06494,0.32465 0.14863,0.62113 0.24808,0.89182c-1.78423,-0.40907 -3.56962,-0.92829 -5.35733,-1.32972c0.88922,-7.19143 7.02105,-12.75834 14.4531,-12.75834z" fill="#41bb52" stroke="#000000" stroke-width="0"/><path d="M361.65174,-69.31075c7.54815,0 13.75511,5.74217 14.4909,13.09653c-1.29211,0.17352 -2.5842,0.35046 -3.87167,0.52121c-0.80501,-1.6307 -1.30679,-3.50896 -2.66469,-4.68826c-4.48041,-3.89107 -8.81642,-2.09836 -13.70701,-1.12025c0,0 -4.48919,0.89783 -3.59136,5.38703c0.06494,0.32466 0.14863,0.62111 0.24808,0.8918c-1.78423,-0.4091 -3.56964,-0.92826 -5.35734,-1.32971c0.88922,-7.19146 7.02106,-12.75834 14.4531,-12.75834z" fill="#41bb52" stroke="#000000" stroke-width="0"/><path d="M283.33014,32.96041c7.54814,0 13.75511,5.74218 14.49091,13.09652c-1.2921,0.17351 -2.58421,0.35046 -3.87169,0.52122c-0.80502,-1.6307 -1.30679,-3.50897 -2.6647,-4.68826c-4.48042,-3.89107 -8.81642,-2.09836 -13.70701,-1.12025c0,0 -4.4892,0.89784 -3.59133,5.38704c0.06493,0.32466 0.14865,0.62111 0.24809,0.8918c-1.78423,-0.4091 -3.56964,-0.92829 -5.35734,-1.3297c0.88922,-7.19143 7.02104,-12.75833 14.4531,-12.75833z" fill="#41bb52" stroke="#000000" stroke-width="0"/><path d="M396.60516,-0.05118c7.54814,0 13.75511,5.74219 14.49092,13.09654c-1.2921,0.17352 -2.58422,0.35044 -3.87169,0.5212c-0.805,-1.63069 -1.30679,-3.50896 -2.66469,-4.68826c-4.48041,-3.89107 -8.81642,-2.09837 -13.70703,-1.12025c0,0 -4.48919,0.89782 -3.59134,5.38703c0.06494,0.32466 0.14863,0.62112 0.24808,0.89181c-1.78423,-0.40908 -3.56964,-0.92826 -5.35734,-1.32971c0.88922,-7.19143 7.02105,-12.75835 14.4531,-12.75835z" fill="#41bb52" stroke="#000000" stroke-width="0"/><path d="M250.31856,3.83255c7.54815,0 13.75512,5.74218 14.49094,13.09652c-1.2921,0.17352 -2.58422,0.35046 -3.87171,0.52121c-0.805,-1.63069 -1.30679,-3.50896 -2.66469,-4.68826c-4.48041,-3.89107 -8.8164,-2.09837 -13.70701,-1.12025c0,0 -4.4892,0.89784 -3.59134,5.38705c0.06491,0.32464 0.14863,0.62113 0.24808,0.89181c-1.78424,-0.40908 -3.56964,-0.92827 -5.35733,-1.32972c0.88923,-7.19144 7.02105,-12.75834 14.45311,-12.75834z" fill="#41bb52" stroke="#000000" stroke-width="0"/><path d="M249.024,-45.36118c7.54814,0 13.75511,5.74218 14.49092,13.09652c-1.2921,0.17352 -2.58422,0.35047 -3.87171,0.52123c-0.80502,-1.63069 -1.3068,-3.50897 -2.6647,-4.68828c-4.48041,-3.89107 -8.81641,-2.09837 -13.70703,-1.12025c0,0 -4.4892,0.89784 -3.59134,5.38704c0.06493,0.32466 0.14863,0.62111 0.24808,0.8918c-1.78424,-0.4091 -3.56964,-0.92828 -5.35735,-1.32971c0.88923,-7.19143 7.02105,-12.75833 14.45311,-12.75833z" fill="#41bb52" stroke="#000000" stroke-width="0"/><path d="M318.93087,-66.7216c7.54814,0 13.75512,5.74217 14.49094,13.09653c-1.29212,0.17351 -2.58422,0.35046 -3.8717,0.5212c-0.80501,-1.6307 -1.3068,-3.50895 -2.6647,-4.68825c-4.48042,-3.89107 -8.81641,-2.09837 -13.70703,-1.12025c0,0 -4.4892,0.89784 -3.59134,5.38705c0.06494,0.32464 0.14863,0.62111 0.24808,0.89181c-1.78424,-0.40909 -3.56964,-0.92827 -5.35734,-1.32972c0.88922,-7.19145 7.02105,-12.75834 14.4531,-12.75834z" fill="#41bb52" stroke="#000000" stroke-width="0"/></g><path d="M-75.5,228.71666l313.00001,-0.99999l-1,161" fill="none" fill-rule="nonzero" stroke="#000000" stroke-width="5.5" stroke-linecap="round" stroke-linejoin="miter"/><text transform="translate(240.57773,247.05284) scale(0.44749,0.44749)" font-size="40" xml:space="preserve" fill="#000000" fill-rule="nonzero" stroke="none" stroke-width="1" stroke-linecap="butt" stroke-linejoin="miter" stroke-miterlimit="10" stroke-dasharray="" stroke-dashoffset="0" font-family="Pixel" font-weight="normal" text-anchor="start" style="mix-blend-mode: normal"><tspan x="0" dy="0">Controls:</tspan></text><text transform="translate(2.45456,10.78246) scale(0.25183,0.25183)" font-size="40" xml:space="preserve" fill="#000000" fill-rule="nonzero" stroke="#000000" stroke-width="0" stroke-linecap="butt" stroke-linejoin="miter" stroke-miterlimit="10" stroke-dasharray="" stroke-dashoffset="0" font-family="Pixel" font-weight="normal" text-anchor="start" style="mix-blend-mode: normal"><tspan x="0" dy="0">In this update:</tspan><tspan x="0" dy="48px"> </tspan><tspan x="0" dy="48px">Re-Added Building</tspan><tspan x="0" dy="48px"> </tspan><tspan x="0" dy="48px">Changed death screen</tspan><tspan x="0" dy="48px"> </tspan><tspan x="0" dy="48px">Added Wonderist death Animation</tspan><tspan x="0" dy="48px"> </tspan><tspan x="0" dy="48px">Changed Tree to match wood</tspan></text><text transform="translate(340.95678,342.25339) scale(0.35148,0.35148)" font-size="40" xml:space="preserve" fill="#000000" fill-rule="nonzero" stroke="none" stroke-width="1" stroke-linecap="butt" stroke-linejoin="miter" stroke-miterlimit="10" stroke-dasharray="" stroke-dashoffset="0" font-family="Pixel" font-weight="normal" text-anchor="start" style="mix-blend-mode: normal"><tspan x="0" dy="0">WASD:              C:</tspan><tspan x="0" dy="46.150000000000006px"> Move      Character</tspan></text><path d="M236.95678,57.39398l36,-1" fill="none" fill-rule="nonzero" stroke="none" stroke-width="0" stroke-linecap="round" stroke-linejoin="miter"/><path d="M360.66558,49.99474c-12.63819,0 -22.88346,-10.24524 -22.88346,-22.88346c0,-12.63818 10.24527,-22.88346 22.88346,-22.88346c12.63819,0 22.88346,10.24528 22.88346,22.88346c0,12.63819 -10.24527,22.88346 -22.88346,22.88346z" fill="#ffeaa2" fill-rule="nonzero" stroke="#000000" stroke-width="4" stroke-linecap="butt" stroke-linejoin="miter"/><path d="M409.95495,158.35436v-73.07954h50.06238v73.07956z" fill="#ff0000" fill-rule="nonzero" stroke="#000000" stroke-width="1.2" stroke-linecap="butt" stroke-linejoin="miter"/><path d="M432.97214,31.18446c23.19946,0 42.00633,13.78314 42.00633,30.78548c0,17.00232 -18.80687,30.78548 -42.00632,30.78548c-23.19948,0 -42.00635,-13.78314 -42.00635,-30.78547c0,-17.00234 18.80691,-30.78547 42.00635,-30.78547z" fill="#ffeaa2" fill-rule="nonzero" stroke="#000000" stroke-width="1.2" stroke-linecap="butt" stroke-linejoin="miter"/><path d="M432.73883,56.45885c-12.01596,0.83445 -13.3511,11.34841 -27.53656,8.17752c0,0 -11.51528,-3.00401 -13.51793,-12.51659c-2.00265,-9.51263 6.00795,-26.70212 37.04917,-32.71008c40.38693,-8.34439 59.57906,15.68749 48.39756,33.37764c-11.18152,17.85701 -30.37363,2.67021 -44.39222,3.67155z" data-paper-data="{&quot;index&quot;:null}" fill="#ffffff" fill-rule="evenodd" stroke="#000000" stroke-width="1.5" stroke-linecap="butt" stroke-linejoin="miter"/><path d="M441.89253,209.00563c0,0 -1.0019,-17.76418 -1.0019,-29.98815c0,-5.52366 -4.50855,-6.99862 -4.50855,-9.76358c0,-4.36469 -8.51611,-11.15839 -8.51611,-11.15839l30.55785,0.69738v50.2127z" fill="#2b00ff" fill-rule="nonzero" stroke="#000000" stroke-width="1.5" stroke-linecap="butt" stroke-linejoin="miter"/><path d="M393.87363,201.1465l19.26792,-48.65835l30.9074,11.45706c0,0 -11.14587,3.2021 -12.82071,7.43169c-1.06099,2.67939 -6.14761,2.31859 -8.26716,7.67124c-4.69066,11.84555 -12.5118,28.66203 -12.5118,28.66203z" data-paper-data="{&quot;index&quot;:null}" fill="#2b00ff" fill-rule="nonzero" stroke="#000000" stroke-width="1.5" stroke-linecap="butt" stroke-linejoin="miter"/><path d="M441.21477,224.78059v-17.20905c0,0 13.29609,0 17.9261,0c2.92829,0 4.30226,5.73633 4.30226,5.73633c0,0 2.15113,2.15115 2.15113,5.01933c0,2.86816 0.71704,6.45337 0.71704,6.45337z" fill="#5e341a" fill-rule="nonzero" stroke="#000000" stroke-width="1" stroke-linecap="butt" stroke-linejoin="miter"/><path d="M381.15874,213.36623c0,0 2.05691,-3.02275 3.17411,-5.66441c1.11722,-2.64165 3.93634,-3.78499 3.93634,-3.78499c0,0 3.4999,-4.74808 6.19688,-3.60749c4.26434,1.80346 16.51026,6.98247 16.51026,6.98247l-6.70318,15.84989z" data-paper-data="{&quot;index&quot;:null}" fill="#5e341a" fill-rule="nonzero" stroke="#000000" stroke-width="1" stroke-linecap="butt" stroke-linejoin="miter"/><path d="M402.7636,44.88208c0,-4.7325 3.44182,-8.17432 7.74407,-8.60453c4.30225,0 7.74408,3.87199 7.74408,8.60451c0,4.73248 -3.44182,8.6045 -7.74408,8.6045c-4.30225,0 -7.74407,-3.87201 -7.74407,-8.60453" fill="#008eff" fill-rule="evenodd" stroke="#000000" stroke-width="2" stroke-linecap="butt" stroke-linejoin="miter"/><path d="M465.69124,70.51531c-4.80586,9.98422 -13.614,19.95414 -32.28489,13.24472c-5.49973,-2.30811 -9.70538,-5.2024 -12.90918,-8.36321z" fill="#ffffff" fill-rule="evenodd" stroke="#000000" stroke-width="3" stroke-linecap="round" stroke-linejoin="round"/><path d="M445.41006,42.80175c0,-4.7325 3.4418,-8.17432 7.74406,-8.60453c4.30225,0 7.74408,3.87199 7.74408,8.60452c0,4.73248 -3.44182,8.6045 -7.74408,8.6045c-4.30225,0 -7.74406,-3.872 -7.74406,-8.60453" fill="#008eff" fill-rule="evenodd" stroke="#000000" stroke-width="2" stroke-linecap="butt" stroke-linejoin="miter"/><path d="M237.5,227.71666l293,1" fill="none" fill-rule="nonzero" stroke="#000000" stroke-width="5.5" stroke-linecap="round" stroke-linejoin="miter"/><text transform="translate(3.34629,214.62038) scale(0.69502,0.69502)" font-size="40" xml:space="preserve" fill="#000000" fill-rule="nonzero" stroke="none" stroke-width="1" stroke-linecap="butt" stroke-linejoin="miter" stroke-miterlimit="10" stroke-dasharray="" stroke-dashoffset="0" font-family="Pixel" font-weight="normal" text-anchor="start" style="mix-blend-mode: normal"><tspan x="0" dy="0">Survile DEMO</tspan></text><path d="M204.23411,227.7438l0.53178,-329.05428" fill="none" fill-rule="nonzero" stroke="#000000" stroke-width="5.5" stroke-linecap="round" stroke-linejoin="miter"/><text transform="translate(241.7336,339.89461) scale(0.35306,0.35306)" font-size="40" xml:space="preserve" fill="#000000" fill-rule="nonzero" stroke="none" stroke-width="1" stroke-linecap="butt" stroke-linejoin="miter" stroke-miterlimit="10" stroke-dasharray="" stroke-dashoffset="0" font-family="Pixel" font-weight="normal" text-anchor="start" style="mix-blend-mode: normal"><tspan x="0" dy="0">       -&gt; + 1:</tspan><tspan x="0" dy="46.150000000000006px">spawn Boss</tspan></text></g></g></svg>