<svg version="1.1" xmlns="http://www.w3.org/2000/svg" xmlns:xlink="http://www.w3.org/1999/xlink" width="22.4698" height="7.50001" viewBox="0,0,22.4698,7.50001"><g transform="translate(-227.7651,-221.17915)"><g data-paper-data="{&quot;isPaintingLayer&quot;:true}" fill-rule="nonzero" stroke-linecap="butt" stroke-linejoin="miter" stroke-miterlimit="10" stroke-dasharray="" stroke-dashoffset="0" style="mix-blend-mode: normal"><path d="M228.375,227.67916c0,0 0.25,-1.25 0.25,-2.25c0,-1 0.75,-1.75 0.75,-1.75c0,0 0.47904,-2 1.5,-2c1.61427,0 6.25,0 6.25,0v6z" fill="#ffffff" stroke="#000000" stroke-width="1"/><path d="M240.875,228.17917v-6c0,0 4.63573,0 6.25,0c1.02095,0 1.5,2 1.5,2c0,0 0.75,0.75 0.75,1.75c0,1 0.25,2.25 0.25,2.25z" data-paper-data="{&quot;index&quot;:null}" fill="#ffffff" stroke="#000000" stroke-width="1"/><path d="M232.3125,225.64374c-0.25,0 -0.25,-0.25 -0.25,-0.25l0.00323,-0.29005c0.20324,-0.34539 -0.71219,-0.5994 -1.12823,-0.58495c0,0 -0.25,0 -0.25,-0.25c0,-0.25 0.25,-0.25 0.25,-0.25c0.74068,0.01611 1.7927,0.36562 1.62177,1.16505l0.00323,0.20995c0,0 0,0.25 -0.25,0.25z" fill="#000000" stroke="none" stroke-width="0.5"/><path d="M233.0625,224.26874c-0.25,0 -0.25,-0.25 -0.25,-0.25v-0.125c0.40074,-0.40074 -1.05861,-0.51967 -1.625,-0.5c0,0 -0.25,0 -0.25,-0.25c0,-0.25 0.25,-0.25 0.25,-0.25c0.67102,0.0146 2.01495,0.35859 2.125,1v0.125c0,0 0,0.25 -0.25,0.25z" fill="#000000" stroke="none" stroke-width="0.5"/><path d="M231.9375,226.26874c-0.25,0 -0.25,-0.25 -0.25,-0.25v-0.125c0.1178,-0.3741 -1.00098,-0.375 -1.25,-0.375c0,0 -0.25,0 -0.25,-0.25c0,-0.25 0.25,-0.25 0.25,-0.25c0.6857,0 1.66845,0.04192 1.75,0.875v0.125c0,0 0,0.25 -0.25,0.25z" fill="#000000" stroke="none" stroke-width="0.5"/><path d="M246.73928,223.94552c-0.17678,0.17678 -0.35355,0 -0.35355,0l-0.06003,-0.07817c-0.41303,-0.2223 -0.6872,0.14158 -1.1382,0.15139c0,0 -0.25,0 -0.25,-0.25c0,-0.25 0.25,-0.25 0.25,-0.25c0.55259,0.01919 0.75426,-0.38745 1.3618,-0.09861l0.18997,0.17183c0,0 0.17678,0.17678 0,0.35355z" fill="#000000" stroke="none" stroke-width="0.5"/><path d="M247.4375,225.26874c0,0.25 -0.25,0.25 -0.25,0.25l-0.2368,-0.02639c-0.39258,-0.21129 -0.65557,-0.06041 -1.02639,0.125c0,0 -0.22361,0.1118 -0.33541,-0.1118c-0.1118,-0.22361 0.1118,-0.33541 0.1118,-0.33541c0.52837,-0.26419 0.91549,-0.39035 1.47361,-0.125l0.0132,-0.02639c0,0 0.25,0 0.25,0.25z" fill="#000000" stroke="none" stroke-width="0.5"/><path d="M247.9375,226.64374c0,0.25 -0.25,0.25 -0.25,0.25l-0.30744,-0.00669c-0.39913,-0.19956 -0.51325,-0.00265 -0.94256,0.00669c0,0 -0.25,0 -0.25,-0.25c0,-0.25 0.25,-0.25 0.25,-0.25c0.42015,0.01459 0.617,-0.21353 1.05744,0.00669l0.19256,-0.00669c0,0 0.25,0 0.25,0.25z" fill="#000000" stroke="none" stroke-width="0.5"/></g></g></svg>