<svg version="1.1" xmlns="http://www.w3.org/2000/svg" xmlns:xlink="http://www.w3.org/1999/xlink" width="32.48911" height="68.94857" viewBox="0,0,32.48911,68.94857"><g transform="translate(-222.75545,-154.73059)"><g data-paper-data="{&quot;isPaintingLayer&quot;:true}" stroke="#000000" stroke-miterlimit="10" stroke-dasharray="" stroke-dashoffset="0" style="mix-blend-mode: normal"><path d="M230.56942,204.31081v-25.47946h17.45443v25.47946z" fill="#5e00cc" fill-rule="nonzero" stroke-width="1.2" stroke-linecap="butt" stroke-linejoin="miter"/><path d="M254.6445,170.91461c0,5.92793 -6.55709,10.73347 -14.64567,10.73347c-8.08858,0 -14.64567,-4.80554 -14.64567,-10.73347c0,-5.92793 6.55709,-10.73347 14.64567,-10.73347c8.08858,0 14.64567,4.80554 14.64567,10.73347z" fill="#c2c2c2" fill-rule="nonzero" stroke-width="1.2" stroke-linecap="butt" stroke-linejoin="miter"/><path d="M254.64451,171.12322c0,5.92793 -6.55709,10.73347 -14.64567,10.73347c-8.08858,0 -14.64567,-4.80554 -14.64567,-10.73347c0,-5.92793 6.55709,-10.73347 14.64567,-10.73347c8.08858,0 14.64567,4.80554 14.64567,10.73347z" fill="#56280b" fill-rule="nonzero" stroke-width="1.2" stroke-linecap="butt" stroke-linejoin="miter"/><path d="M240.08017,168.99315c-4.88764,-0.34912 -11.57905,4.94582 -15.47752,-1.2801c-3.89847,-6.16773 2.79294,-14.54654 16.87399,-11.63723c10.82263,2.0947 13.61556,8.08788 12.91733,11.40449c-0.69823,3.31661 -4.71308,4.36396 -4.71308,4.36396c-4.94582,1.10554 -5.41131,-2.56019 -9.60072,-2.85112z" data-paper-data="{&quot;index&quot;:null}" fill="#ffffff" fill-rule="evenodd" stroke-width="1.5" stroke-linecap="butt" stroke-linejoin="miter"/><path d="M231.35373,171.66163c0,-0.25751 0.25751,-0.45064 0.51502,-0.38626c1.22316,0.45064 4.69952,1.48067 8.56214,1.73818c3.47636,0.19313 5.53642,0 6.50208,-0.19313c0.32189,-0.06438 0.57939,0.25751 0.45064,0.57939c-0.57939,1.73818 -3.02572,6.56645 -9.7853,6.18019c-5.85831,-0.64377 -6.4377,-4.7639 -6.24457,-7.91837z" fill="#ffffff" fill-rule="evenodd" stroke-width="1.2" stroke-linecap="round" stroke-linejoin="round"/><path d="M232.57111,166.2004c0,1.1 -0.8,2 -1.8,2c-1,0 -1.8,-0.9 -1.8,-2c0,-1.1 0.8,-2 1.8,-2c1,0.1 1.8,0.9 1.8,2" fill="#008eff" fill-rule="evenodd" stroke-width="2" stroke-linecap="butt" stroke-linejoin="miter"/><path d="M231.125,221.97056v-17.50685l10.65411,-0.24315c0,0 -2.96918,2.36865 -2.96918,3.89041c0,0.96401 -1.57192,1.47827 -1.57192,3.40411c0,4.26193 -0.34932,10.45548 -0.34932,10.45548z" fill="#00ff0a" fill-rule="nonzero" stroke-width="1.5" stroke-linecap="butt" stroke-linejoin="miter"/><path d="M241.14897,222.92917c0,0 -0.37671,-6.45524 -0.37671,-10.89726c0,-2.00721 -1.69521,-2.5432 -1.69521,-3.54795c0,-1.58606 -3.20205,-4.05479 -3.20205,-4.05479l11.48973,0.25342v18.24658z" data-paper-data="{&quot;index&quot;:null}" fill="#00ff0a" fill-rule="nonzero" stroke-width="1.5" stroke-linecap="butt" stroke-linejoin="miter"/><path d="M249.98336,166.49552c0,1.1 -0.8,2 -1.8,2c-1,0 -1.8,-0.9 -1.8,-2c0,-1.1 0.8,-2 1.8,-2c1,0.1 1.8,0.9 1.8,2" fill="#008eff" fill-rule="evenodd" stroke-width="2" stroke-linecap="butt" stroke-linejoin="miter"/></g></g></svg>