<svg version="1.1" xmlns="http://www.w3.org/2000/svg" xmlns:xlink="http://www.w3.org/1999/xlink" width="581" height="451" viewBox="0,0,581,451"><defs><linearGradient x1="240" y1="-45.5" x2="240" y2="405.5" gradientUnits="userSpaceOnUse" id="color-1"><stop offset="0" stop-color="#ff0000"/><stop offset="1" stop-color="#ff0000" stop-opacity="0"/></linearGradient><linearGradient x1="132.49632" y1="179.99879" x2="319.29769" y2="179.99879" gradientTransform="translate(-71.4021,-109.00157) scale(0.5389,0.5389)" gradientUnits="userSpaceOnUse" id="color-2"><stop offset="0" stop-color="#ff0000"/><stop offset="1" stop-color="#cc00ff"/></linearGradient></defs><g transform="translate(50.5,45.5)"><g data-paper-data="{&quot;isPaintingLayer&quot;:true}" stroke-linejoin="miter" stroke-miterlimit="10" stroke-dasharray="" stroke-dashoffset="0" style="mix-blend-mode: normal"><path d="M-50.5,405.5v-451h581v451z" fill="url(#color-1)" fill-rule="nonzero" stroke="none" stroke-width="0" stroke-linecap="butt"/><text transform="translate(132.49659,202.26768) scale(1.85564,1.85564)" font-size="40" xml:space="preserve" fill="url(#color-2)" fill-rule="nonzero" stroke="none" stroke-width="1" stroke-linecap="butt" stroke-linejoin="miter" stroke-miterlimit="10" stroke-dasharray="" stroke-dashoffset="0" font-family="Marker" font-weight="normal" text-anchor="start" style="mix-blend-mode: normal"><tspan x="0" dy="0">OOPS!</tspan></text><g><path d="M7.42481,345.80039l-5.88735,14.08329" data-paper-data="{&quot;index&quot;:null}" fill="#000000" fill-rule="nonzero" stroke="#7b3000" stroke-width="3.5" stroke-linecap="round"/><path d="M11.72571,357.19141c-9.19362,-6.60768 -11.28995,-19.41715 -4.68227,-28.61077c6.60768,-9.19362 19.41715,-11.28994 28.61077,-4.68227c9.19362,6.60768 11.28995,19.41715 4.68227,28.61077c-6.60767,9.19362 -19.41715,11.28994 -28.61077,4.68227z" fill="#ff0000" fill-rule="nonzero" stroke="none" stroke-width="0" stroke-linecap="butt"/><path d="M12.80847,339.68156c-0.30217,2.46666 2.51728,6.525 -1.05464,7.79049c-3.53933,1.27236 -8.08592,-3.14996 -6.14931,-10.03161c1.40929,-5.3059 4.82674,-6.0316 6.66898,-5.28189c1.84224,0.74972 2.34123,2.93337 2.34123,2.93337c0.51125,2.6682 -1.55192,2.47439 -1.80627,4.58965z" data-paper-data="{&quot;index&quot;:null}" fill="#ffffff" fill-rule="evenodd" stroke="#000000" stroke-width="0" stroke-linecap="butt"/></g><g stroke-width="0" stroke-linecap="butt"><path d="M251.5629,137.07222c0.09008,-0.42833 0.1837,-0.84601 0.28332,-1.24998c2.73185,-11.07759 5.14784,-22.49667 8.97253,-33.22273c0.46526,-0.88507 0.80461,-1.85552 0.99043,-2.89212c0.18441,-1.02872 0.20439,-2.04887 0.07875,-3.03346c3.17625,-4.02533 8.19177,-6.23388 13.33314,-5.31224c7.6282,1.36743 12.63457,9.08558 11.17496,17.22803c-2.96937,16.56465 -19.40191,18.10157 -33.00467,32.56561c-0.56326,-1.42105 -1.17701,-2.77912 -1.82846,-4.08311z" data-paper-data="{&quot;index&quot;:null}" fill="#ff0000" fill-rule="nonzero" stroke="none"/><path d="M241.44074,136.64041c-0.59008,1.33288 -1.13999,2.71803 -1.63653,4.16375c-14.2609,-13.81559 -30.74714,-14.5864 -34.48388,-30.99498c-1.83682,-8.06573 2.80509,-16.00843 10.36142,-17.72924c5.09293,-1.15981 10.20576,0.81303 13.56583,4.68624c-0.07971,0.98937 -0.01229,2.00748 0.21978,3.02651c0.23384,1.02683 0.61796,1.98044 1.12389,2.84291c4.31952,10.53652 7.2641,21.83085 10.50832,32.76936c0.11831,0.3989 0.23125,0.81177 0.34116,1.23545z" data-paper-data="{&quot;index&quot;:null}" fill="#ff0000" fill-rule="nonzero" stroke="none"/><path d="M217.14015,103.68738c-2.37071,1.29909 -4.16557,6.36611 -7.55112,4.01435c-3.37093,-2.31861 -2.35105,-9.14234 4.9572,-11.80063c5.58157,-2.12369 8.39223,0.43432 8.89957,2.5376c0.50734,2.10328 -1.10476,3.93037 -1.10476,3.93037c-2.03232,2.14556 -3.17096,0.20006 -5.20091,1.31831z" data-paper-data="{&quot;index&quot;:null}" fill="#ffffff" fill-rule="evenodd" stroke="#000000"/></g></g></g></svg>