<svg version="1.1" xmlns="http://www.w3.org/2000/svg" xmlns:xlink="http://www.w3.org/1999/xlink" width="259.85708" height="100.18324" viewBox="0,0,259.85708,100.18324"><g transform="translate(-32.57146,-145.39484)"><g data-paper-data="{&quot;isPaintingLayer&quot;:true}" stroke-linejoin="miter" stroke-miterlimit="10" stroke-dasharray="" stroke-dashoffset="0" style="mix-blend-mode: normal"><path d="M190.07146,240.07808v-92.18324h99.85708v92.18324z" fill="#00f1ff" fill-rule="nonzero" stroke="#ffffff" stroke-width="5" stroke-linecap="butt"/><g><path d="M242.89513,166.92261l-8.70247,14.14152" fill="none" fill-rule="nonzero" stroke="#7b3000" stroke-width="3.5" stroke-linecap="round"/><path d="M215.69991,198.7773c0,-12.316 9.98409,-22.30009 22.30009,-22.30009c12.316,0 22.30009,9.98409 22.30009,22.30009c0,12.316 -9.98409,22.30009 -22.30009,22.30009c-12.316,0 -22.30009,-9.98409 -22.30009,-22.30009z" fill="#ff0000" fill-rule="nonzero" stroke="none" stroke-width="0" stroke-linecap="butt"/><path d="M231.85428,188.61726c-2.37071,1.29909 -4.16557,6.36611 -7.55112,4.01435c-3.37093,-2.31861 -2.35105,-9.14234 4.9572,-11.80063c5.58157,-2.12369 8.39223,0.43432 8.89957,2.5376c0.50734,2.10328 -1.10476,3.93037 -1.10476,3.93037c-2.03232,2.14556 -3.17096,0.20006 -5.20091,1.31831z" data-paper-data="{&quot;index&quot;:null}" fill="#ffffff" fill-rule="evenodd" stroke="#000000" stroke-width="0" stroke-linecap="butt"/></g><path d="M35.07146,243.07808v-92.18324h99.85708v92.18324z" fill="#00f1ff" fill-rule="nonzero" stroke="#ffffff" stroke-width="5" stroke-linecap="butt"/></g></g></svg>