<svg version="1.1" xmlns="http://www.w3.org/2000/svg" xmlns:xlink="http://www.w3.org/1999/xlink" width="522.86493" height="272.39917" viewBox="0,0,522.86493,272.39917"><g transform="translate(21.43247,-27.04458)"><g data-paper-data="{&quot;isPaintingLayer&quot;:true}" fill-rule="nonzero" stroke-linejoin="miter" stroke-miterlimit="10" stroke-dasharray="" stroke-dashoffset="0" style="mix-blend-mode: normal"><path d="M428.42436,189.4246c0,3.67192 12.25435,26.20083 27.42534,29.43216c9.22558,1.965 20.98143,-16.99741 27.5246,-11.85755c20.31077,15.95466 20.42449,47.62817 15.07527,54.39217c-21.68757,27.42356 -90.79271,13.596 -149.36263,23.58661c-35.32361,6.02536 -82.71243,-4.56318 -123.30156,-4.56318c-19.17363,0 -23.07639,21.4101 -41.31727,18.80992c-38.54509,-5.49447 -77.71029,-29.16284 -107.40372,-37.22344c-29.21072,-7.92958 -51.96082,-8.38631 -68.21107,-22.43028c-15.9348,-13.77134 -22.56371,-38.43395 -22.56371,-54.75349c0,-17.92783 -18.01457,-30.19726 0.98618,-44.95405c21.78463,-16.91886 86.62534,-22.98889 126.16637,-32.72472c26.45289,-6.51325 47.95389,-44.46019 79.4732,-46.55579c12.95646,-0.86142 30.85051,19.42307 44.38776,19.42307c12.47638,0 60.57119,-17.55081 72.53539,-10.77984c18.03672,10.20764 -0.59887,46.37412 14.34166,48.04356c43.13236,4.81954 73.15732,-18.66721 90.82107,-0.48931c17.25565,17.75792 13.42313,50.49485 13.42313,72.64418z" fill="#03ff00" stroke="none" stroke-width="0" stroke-linecap="butt"/><path d="M26.59223,79.95385v-52.15928h85.87198v52.15928z" fill="#c77d00" stroke="#000000" stroke-width="1.5" stroke-linecap="butt"/><path d="M27.86441,64.68772l83.32762,1.27218" fill="none" stroke="#000000" stroke-width="1.5" stroke-linecap="round"/><path d="M111.82812,57.69075l-83.96371,-1.27218" fill="none" stroke="#000000" stroke-width="1.5" stroke-linecap="round"/><path d="M27.86441,46.24115l83.96371,1.90827" fill="none" stroke="#000000" stroke-width="1.5" stroke-linecap="round"/><path d="M111.82812,40.51635l-84.5998,-2.54435" fill="none" stroke="#000000" stroke-width="1.5" stroke-linecap="round"/><path d="M27.86441,71.6847l84.5998,1.27218" fill="none" stroke="#000000" stroke-width="1.5" stroke-linecap="round"/></g></g></svg>