<svg version="1.1" xmlns="http://www.w3.org/2000/svg" xmlns:xlink="http://www.w3.org/1999/xlink" width="1304.91413" height="596.1915" viewBox="0,0,1304.91413,596.1915"><g transform="translate(501.13371,150.20409)"><g data-paper-data="{&quot;isPaintingLayer&quot;:true}" stroke-miterlimit="10" stroke-dasharray="" stroke-dashoffset="0" style="mix-blend-mode: normal"><path d="M-121.5,428.00001v-496h723v496z" fill="#006aff" fill-rule="nonzero" stroke="none" stroke-width="0" stroke-linecap="butt" stroke-linejoin="miter"/><path d="M621.5741,171.41268c0,9.16401 30.58321,65.38943 68.44543,73.45385c23.02428,4.90402 52.36333,-42.42043 68.69314,-29.59294c50.68962,39.81806 50.97341,118.86566 37.62336,135.74654c-54.12569,68.44097 -226.5914,33.93153 -372.76435,58.8651c-88.15718,15.03748 -206.42542,-11.38834 -307.72374,-11.38834c-47.85163,0 -57.59176,53.43318 -103.11553,46.94392c-96.19698,-13.71254 -193.94161,-72.78169 -268.0475,-92.89856c-72.90123,-19.78985 -129.67862,-20.92975 -170.23437,-55.97926c-39.76851,-34.36914 -56.31225,-95.91961 -56.31225,-136.64829c0,-44.74247 -44.95895,-75.36332 2.46121,-112.19183c54.3679,-42.22438 216.1909,-57.37337 314.87344,-81.67106c66.01849,-16.2551 119.67855,-110.95934 198.3413,-116.18931c32.33544,-2.14986 76.99364,48.47415 110.77857,48.47415c31.13732,0 151.16755,-43.80155 181.02659,-26.90326c45.01427,25.47519 -1.49457,115.7359 35.79249,119.90232c107.64544,12.02814 182.57874,-46.58776 226.66217,-1.22115c43.06493,44.31843 33.50009,126.02 33.50009,181.2981z" fill="#00ff22" fill-rule="nonzero" stroke="#000000" stroke-width="0" stroke-linecap="butt" stroke-linejoin="miter"/><path d="M316.5,60.52617c0,-12.15027 9.84974,-22 22,-22c12.15026,0 22,9.84972 22,22c0,12.15028 -9.84974,22 -22,22c-12.15026,0 -22,-9.84973 -22,-22z" fill="#ffeaa2" fill-rule="nonzero" stroke="#000000" stroke-width="4" stroke-linecap="butt" stroke-linejoin="miter"/><path d="M242.98396,186.70234v-70.25816h48.1296v70.25816z" fill="#ff0000" fill-rule="nonzero" stroke="#000000" stroke-width="1.2" stroke-linecap="butt" stroke-linejoin="miter"/><path d="M309.36961,94.03902c0,16.34593 -18.08081,29.59694 -40.3846,29.59694c-22.30379,0 -40.38459,-13.25102 -40.38459,-29.59694c0,-16.34593 18.08081,-29.59692 40.38459,-29.59692c22.30379,0 40.3846,13.251 40.3846,29.59693z" fill="#ffeaa2" fill-rule="nonzero" stroke="#000000" stroke-width="1.2" stroke-linecap="butt" stroke-linejoin="miter"/><path d="M269.2093,88.74071c-13.47738,-0.96268 -31.92855,13.63781 -42.67837,-3.5298c-10.74982,-17.00716 7.70137,-40.11126 46.52907,-32.08901c29.8428,5.77602 37.54413,22.30188 35.6188,31.44725c-1.92533,9.14535 -12.99605,12.03336 -12.99605,12.03336c-13.63781,3.04847 -14.92138,-7.05957 -26.47345,-7.86179z" data-paper-data="{&quot;index&quot;:null}" fill="#ffffff" fill-rule="evenodd" stroke="#000000" stroke-width="1.5" stroke-linecap="butt" stroke-linejoin="miter"/><path d="M244.51594,235.39808v-48.27413l29.3781,-0.67046c0,0 -8.18734,6.53141 -8.18734,10.72759c0,2.65821 -4.33448,4.07623 -4.33448,9.38664c0,11.75204 -0.96323,28.83039 -0.96323,28.83039z" fill="#2b00ff" fill-rule="nonzero" stroke="#000000" stroke-width="1.5" stroke-linecap="butt" stroke-linejoin="miter"/><path d="M290.63833,234.15266c0,0 -7.51919,-16.16723 -12.02875,-27.55547c-2.03773,-5.14601 -6.92798,-4.79915 -7.94801,-7.37509c-1.61018,-4.06628 -12.32572,-7.14477 -12.32572,-7.14477l29.71415,-11.01474l18.52404,46.7798z" data-paper-data="{&quot;index&quot;:null}" fill="#2b00ff" fill-rule="nonzero" stroke="#000000" stroke-width="1.5" stroke-linecap="butt" stroke-linejoin="miter"/><path d="M236.93296,250.56402c0,0 0.68937,-3.4468 0.68937,-6.20423c0,-2.75743 2.06808,-4.82554 2.06808,-4.82554c0,0 1.32092,-5.51487 4.13617,-5.51487c4.45126,0 17.23402,0 17.23402,0v16.54467z" fill="#5e341a" fill-rule="nonzero" stroke="#000000" stroke-width="1" stroke-linecap="butt" stroke-linejoin="miter"/><path d="M296.57601,248.98846l-6.44439,-15.23797c0,0 11.77317,-4.97908 15.87287,-6.71291c2.59287,-1.09656 5.95763,3.46822 5.95763,3.46822c0,0 2.71029,1.0992 3.78436,3.63885c1.07407,2.53966 3.05155,5.44571 3.05155,5.44571z" data-paper-data="{&quot;index&quot;:null}" fill="#5e341a" fill-rule="nonzero" stroke="#000000" stroke-width="1" stroke-linecap="butt" stroke-linejoin="miter"/><path d="M298.02727,77.61087c0,4.5498 -3.30894,8.27233 -7.44509,8.27233c-4.13615,0 -7.44509,-3.72254 -7.44509,-8.27233c0,-4.5498 3.30893,-8.27233 7.44509,-8.27233c4.13615,0.41361 7.44509,3.72254 7.44509,8.27233" fill="#008eff" fill-rule="evenodd" stroke="#000000" stroke-width="2" stroke-linecap="butt" stroke-linejoin="miter"/><path d="M280.97836,106.94754c-3.08011,3.03878 -7.12338,5.82133 -12.4108,8.04033c-17.95006,6.4504 -26.41814,-3.13461 -31.03846,-12.73338z" fill="#ffffff" fill-rule="evenodd" stroke="#000000" stroke-width="3" stroke-linecap="round" stroke-linejoin="round"/><path d="M185.5,169.52617c0,-12.15027 9.84975,-22 22,-22c12.15025,0 22,9.84973 22,22c0,12.15027 -9.84975,22 -22,22c-12.15025,0 -22,-9.84973 -22,-22z" fill="#ffeaa2" fill-rule="nonzero" stroke="#000000" stroke-width="4" stroke-linecap="butt" stroke-linejoin="miter"/><g stroke-linejoin="miter"><path d="M211.5,117.71667l-8,13" fill="#000000" fill-rule="nonzero" stroke="#7b3000" stroke-width="3.5" stroke-linecap="round"/><path d="M186.5,147c0,-11.32184 9.17816,-20.5 20.5,-20.5c11.32184,0 20.5,9.17816 20.5,20.5c0,11.32184 -9.17816,20.5 -20.5,20.5c-11.32184,0 -20.5,-9.17816 -20.5,-20.5z" fill="#ff0000" fill-rule="nonzero" stroke="none" stroke-width="0" stroke-linecap="butt"/><path d="M201.35037,137.6601c-2.17934,1.19423 -3.82932,5.85223 -6.94158,3.69031c-3.09882,-2.13145 -2.16127,-8.40436 4.55705,-10.84807c5.13102,-1.95226 7.7148,0.39926 8.18119,2.33276c0.46639,1.9335 -1.01558,3.61311 -1.01558,3.61311c-1.86827,1.97237 -2.915,0.18391 -4.78109,1.21189z" data-paper-data="{&quot;index&quot;:null}" fill="#ffffff" fill-rule="evenodd" stroke="#000000" stroke-width="0" stroke-linecap="butt"/></g><path d="M257.02727,75.61087c0,4.5498 -3.30894,8.27233 -7.44509,8.27233c-4.13615,0 -7.44509,-3.72254 -7.44509,-8.27233c0,-4.5498 3.30893,-8.27233 7.44509,-8.27233c4.13615,0.41361 7.44509,3.72254 7.44509,8.27233" fill="#008eff" fill-rule="evenodd" stroke="#000000" stroke-width="2" stroke-linecap="butt" stroke-linejoin="miter"/><path d="M-18.5,441.21037v-481h140v481z" fill="#000000" fill-rule="nonzero" stroke="none" stroke-width="0" stroke-linecap="butt" stroke-linejoin="miter"/><text transform="translate(51.8136,358.45759) rotate(-89.91036) scale(0.75772,0.75772)" font-size="40" xml:space="preserve" fill="#006aff" fill-rule="nonzero" stroke="none" stroke-width="1" stroke-linecap="butt" stroke-linejoin="miter" stroke-miterlimit="10" stroke-dasharray="" stroke-dashoffset="0" font-family="Pixel" font-weight="normal" text-anchor="start" style="mix-blend-mode: normal"><tspan x="0" dy="0">Survile</tspan><tspan x="0" dy="48px">Version Alpha 0.9.6</tspan></text><text transform="translate(3.60933,28.29053) rotate(0.46607) scale(0.31048,0.53383) skewX(1.40121)" font-size="40" xml:space="preserve" fill="#006aff" fill-rule="nonzero" stroke="none" stroke-width="1" stroke-linecap="butt" stroke-linejoin="miter" stroke-miterlimit="10" stroke-dasharray="" stroke-dashoffset="0" font-family="Pixel" font-weight="normal" text-anchor="start" style="mix-blend-mode: normal"><tspan x="0" dy="0">©2022 Microzeg</tspan></text></g></g></svg>