<svg version="1.1" xmlns="http://www.w3.org/2000/svg" xmlns:xlink="http://www.w3.org/1999/xlink" width="51.69427" height="51.4443" viewBox="0,0,51.69427,51.4443"><defs><linearGradient x1="240.12506" y1="154.87791" x2="240.12506" y2="205.12208" gradientUnits="userSpaceOnUse" id="color-1"><stop offset="0" stop-color="#421b04" stop-opacity="0"/><stop offset="1" stop-color="#421b04"/></linearGradient><linearGradient x1="264.99178" y1="180.51939" x2="214.75834" y2="179.48063" gradientUnits="userSpaceOnUse" id="color-2"><stop offset="0" stop-color="#421b04" stop-opacity="0"/><stop offset="1" stop-color="#421b04"/></linearGradient><linearGradient x1="214.87942" y1="179.72429" x2="265.12057" y2="180.27569" gradientUnits="userSpaceOnUse" id="color-3"><stop offset="0" stop-color="#421b04" stop-opacity="0"/><stop offset="1" stop-color="#421b04"/></linearGradient><linearGradient x1="239.84424" y1="205.12161" x2="240.15574" y2="154.87841" gradientUnits="userSpaceOnUse" id="color-4"><stop offset="0" stop-color="#421b04" stop-opacity="0"/><stop offset="1" stop-color="#421b04"/></linearGradient></defs><g transform="translate(-214.15287,-154.27789)"><g data-paper-data="{&quot;isPaintingLayer&quot;:true}" fill-rule="nonzero" stroke="#000000" stroke-width="1.2" stroke-linecap="butt" stroke-linejoin="miter" stroke-miterlimit="10" stroke-dasharray="" stroke-dashoffset="0" style="mix-blend-mode: normal"><path d="M265.1216,180.15575c-0.08602,13.87428 -11.40307,25.05187 -25.27734,24.96585c-13.87428,-0.08602 -25.05187,-11.40306 -24.96585,-25.27734c0.08602,-13.87428 11.40306,-25.05187 25.27734,-24.96585c13.87428,0.08602 25.05187,11.40306 24.96585,25.27734z" fill="#000000"/><path d="M215.00297,180c0,-13.87454 11.24754,-25.12208 25.12208,-25.12208c13.87454,0 25.12208,11.24754 25.12208,25.12208c0,13.87454 -11.24754,25.12208 -25.12208,25.12208c-13.87454,0 -25.12208,-11.24754 -25.12208,-25.12208z" fill="url(#color-1)"/><path d="M240.39443,154.88329c13.87157,0.28684 24.88418,11.76451 24.59734,25.63609c-0.28684,13.87157 -11.76451,24.88418 -25.63609,24.59734c-13.87157,-0.28684 -24.88418,-11.76451 -24.59734,-25.63609c0.28684,-13.87157 11.76451,-24.88418 25.63609,-24.59734z" fill="url(#color-2)"/><path d="M239.7243,205.12057c-13.8737,-0.15226 -24.99714,-11.52256 -24.84487,-25.39626c0.15226,-13.8737 11.52256,-24.99714 25.39626,-24.84487c13.8737,0.15226 24.99714,11.52256 24.84487,25.39626c-0.15226,13.8737 -11.52256,24.99714 -25.39626,24.84487z" fill="url(#color-3)"/><path d="M265.1216,180.15575c-0.08602,13.87427 -11.40307,25.05187 -25.27734,24.96585c-13.87427,-0.08602 -25.05187,-11.40307 -24.96585,-25.27734c0.08602,-13.87427 11.40307,-25.05187 25.27734,-24.96585c13.87427,0.08602 25.05187,11.40307 24.96585,25.27734z" fill="url(#color-4)"/></g></g></svg>