<svg version="1.1" xmlns="http://www.w3.org/2000/svg" xmlns:xlink="http://www.w3.org/1999/xlink" width="138" height="76" viewBox="0,0,138,76"><g transform="translate(-171,-142)"><g data-paper-data="{&quot;isPaintingLayer&quot;:true}" stroke-linejoin="miter" stroke-miterlimit="10" stroke-dasharray="" stroke-dashoffset="0" style="mix-blend-mode: normal"><path d="M174.66667,214.66667v-69.33333h130.66667v69.33333z" fill="#11ff00" fill-rule="nonzero" stroke="none" stroke-width="0" stroke-linecap="butt"/><path d="M173.5,215.5v-71h133v71z" fill="none" fill-rule="nonzero" stroke="#000000" stroke-width="5" stroke-linecap="butt"/><g><path d="M227.31301,165.41177l9.95122,-16.17073" fill="none" fill-rule="nonzero" stroke="#7b3000" stroke-width="3.5" stroke-linecap="round"/><path d="M206.16667,185.66666c0,-14.08326 11.41674,-25.5 25.5,-25.5c14.08326,0 25.5,11.41674 25.5,25.5c0,14.08326 -11.41674,25.5 -25.5,25.5c-14.08326,0 -25.5,-11.41674 -25.5,-25.5z" fill="#ff0000" fill-rule="nonzero" stroke="none" stroke-width="0" stroke-linecap="butt"/><path d="M224.63908,174.04872c-2.71089,1.48551 -4.7633,7.2796 -8.63465,4.59039c-3.85463,-2.65132 -2.68841,-10.4542 5.66853,-13.49394c6.38249,-2.42842 9.59646,0.49664 10.1766,2.90173c0.58014,2.40509 -1.26328,4.49436 -1.26328,4.49436c-2.32395,2.45344 -3.62598,0.22877 -5.94721,1.50747z" data-paper-data="{&quot;index&quot;:null}" fill="#ffffff" fill-rule="evenodd" stroke="#000000" stroke-width="0" stroke-linecap="butt"/></g><text transform="translate(193.60021,193.84859) scale(0.68589,0.68589)" font-size="40" xml:space="preserve" fill="#000000" fill-rule="nonzero" stroke="none" stroke-width="1" stroke-linecap="butt" stroke-linejoin="miter" stroke-miterlimit="10" stroke-dasharray="" stroke-dashoffset="0" font-family="&quot;Microsoft YaHei&quot;, &quot;微软雅黑&quot;, STXihei, &quot;华文细黑&quot;" font-weight="normal" text-anchor="start" style="mix-blend-mode: normal"><tspan x="0" dy="0">START</tspan></text></g></g></svg>