<svg version="1.1" xmlns="http://www.w3.org/2000/svg" xmlns:xlink="http://www.w3.org/1999/xlink" width="36.69647" height="12.25759" viewBox="0,0,36.69647,12.25759"><g transform="translate(-217.57722,-172.28945)"><g data-paper-data="{&quot;isPaintingLayer&quot;:true}" fill="#1f00ff" fill-rule="nonzero" stroke="none" stroke-width="0.5" stroke-linecap="butt" stroke-linejoin="miter" stroke-miterlimit="10" stroke-dasharray="" stroke-dashoffset="0" style="mix-blend-mode: normal"><path d="M217.92547,173.745c-0.07662,-0.49205 -0.19541,-0.97723 -0.34824,-1.45555c1.72358,0.40034 3.46943,0.54633 5.24643,0.60214c0.34213,1.55713 0.56623,3.0303 0.68791,4.25911c0.17158,1.73283 1.0899,4.34291 -0.42197,5.20684c-0.43488,0.73685 -1.23698,1.23117 -2.15454,1.23117c-1.38071,0 -2.5,-1.11929 -2.5,-2.5c0,-0.24791 0.03609,-0.4874 0.10329,-0.71349c-0.51218,-1.97277 -0.25872,-4.35582 -0.61288,-6.63022z"/><path d="M238.05118,183.29704c-1.04981,-1.86629 -0.02401,-4.31556 -0.35194,-6.33633c-0.18967,-1.16879 -0.25324,-2.34669 -0.29939,-3.52739c1.76411,0.14262 3.53236,0.30978 5.30196,0.49381c0.02487,1.11066 0.02086,2.15809 0.03687,3.05442c0.03777,2.11424 1.49051,5.2852 -0.34546,6.33432c-0.43488,0.73685 -1.23698,1.23117 -2.15454,1.23117c-0.81357,0 -1.53638,-0.38862 -1.99291,-0.99036c-0.07451,-0.07697 -0.14011,-0.16278 -0.19459,-0.25964z"/><path d="M253.51587,176.13872c-1.59267,2.02647 -2.37536,5.71147 -4.20436,7.3752c-0.10601,0.09643 -0.23575,0.18373 -0.38305,0.26012c-0.37812,0.22989 -0.82205,0.36228 -1.29691,0.36228c-0.09965,0 -0.19794,-0.00583 -0.29454,-0.01717c-1.15102,-0.01743 -2.28389,-0.58601 -2.1703,-2.06265c-0.02312,-0.13661 -0.03516,-0.27699 -0.03516,-0.42018c0,-0.37282 0.08161,-0.72657 0.22793,-1.04438c0.54243,-2.07081 1.61238,-4.14743 2.96609,-6.03246c1.98603,0.23701 3.97005,0.48505 5.94813,0.73327c-0.25452,0.24796 -0.50764,0.52763 -0.75783,0.84597z"/><path d="M232.02437,183.31489c-0.63268,-0.36153 -1.50434,-0.48569 -1.99291,-0.99036c-0.07451,-0.07697 -0.14011,-0.16278 -0.19459,-0.25964c-0.69428,-1.23426 -1.31839,-5.76807 -1.62272,-9.1134c1.9005,0.03668 3.81173,0.11854 5.73005,0.2356c0.12622,1.35904 0.22708,2.68491 0.30636,3.89059c0.04524,0.68809 0.87207,4.46677 -0.07165,5.00604z"/></g></g></svg>