<svg version="1.1" xmlns="http://www.w3.org/2000/svg" xmlns:xlink="http://www.w3.org/1999/xlink" width="135.52556" height="126.94413" viewBox="0,0,135.52556,126.94413"><g transform="translate(-163.27727,-158.26442)"><g data-paper-data="{&quot;isPaintingLayer&quot;:true}" stroke="#000000" stroke-miterlimit="10" stroke-dasharray="" stroke-dashoffset="0" style="mix-blend-mode: normal"><g><path d="M165.27727,263.69867c0,-10.77501 8.73489,-19.50988 19.50988,-19.50988c10.77499,0 19.50988,8.73487 19.50988,19.50988c0,10.77501 -8.73489,19.50988 -19.50988,19.50988c-10.77499,0 -19.50988,-8.73486 -19.50988,-19.50988z" fill="#ffeaa2" fill-rule="nonzero" stroke-width="4" stroke-linecap="butt" stroke-linejoin="miter"/><path d="M257.78307,192.36947c0,-10.77501 8.73487,-19.50988 19.50988,-19.50988c10.77501,0 19.50988,8.73486 19.50988,19.50988c0,10.77503 -8.73487,19.50988 -19.50988,19.50988c-10.77501,0 -19.50988,-8.73486 -19.50988,-19.50988z" fill="#ffeaa2" fill-rule="nonzero" stroke-width="4" stroke-linecap="butt" stroke-linejoin="miter"/><path d="M192.25477,278.93075v-62.30583h42.68194v62.30583z" fill="#ff0000" fill-rule="nonzero" stroke-width="1.2" stroke-linecap="butt" stroke-linejoin="miter"/><path d="M251.12641,196.75575c0,14.49578 -16.03429,26.24694 -35.81358,26.24694c-19.77929,0 -35.81357,-11.75117 -35.81357,-26.24694c0,-14.49578 16.03429,-26.24693 35.81357,-26.24693c19.77929,0 35.81358,11.75115 35.81358,26.24693z" fill="#ffeaa2" fill-rule="nonzero" stroke-width="1.2" stroke-linecap="butt" stroke-linejoin="miter"/><path d="M215.51174,192.05716c-11.95191,-0.85372 -28.31464,12.09419 -37.84772,-3.13027c-9.53307,-15.08217 6.82968,-35.57117 41.26257,-28.45694c26.46497,5.12224 33.29461,19.77759 31.5872,27.88782c-1.70741,8.11021 -11.52506,10.67134 -11.52506,10.67134c-12.09418,2.70342 -13.23247,-6.26051 -23.47699,-6.97194z" data-paper-data="{&quot;index&quot;:null}" fill="#ffffff" fill-rule="evenodd" stroke-width="1.5" stroke-linecap="butt" stroke-linejoin="miter"/><path d="M241.06788,182.18705c0,4.03483 -2.93441,7.33601 -6.6024,7.33601c-3.66799,0 -6.6024,-3.30119 -6.6024,-7.336c0,-4.03483 2.9344,-7.336 6.6024,-7.336c3.66799,0.36679 6.6024,3.30119 6.6024,7.33601" fill="#008eff" fill-rule="evenodd" stroke-width="2" stroke-linecap="butt" stroke-linejoin="miter"/><path d="M214.47986,211.50534c0,0 -12.17811,2.32637 -16.83623,0.50766c-4.71921,-1.84256 -11.29814,-11.4924 -11.29814,-11.4924c0,0 7.04172,9.46343 11.68908,11.27794c4.72934,1.84651 16.4453,-0.2932 16.4453,-0.2932z" fill="#ffffff" fill-rule="evenodd" stroke-width="3" stroke-linecap="round" stroke-linejoin="round"/><path d="M204.70856,180.41341c0,4.03483 -2.93441,7.33601 -6.6024,7.33601c-3.66799,0 -6.6024,-3.30119 -6.6024,-7.336c0,-4.03483 2.9344,-7.336 6.6024,-7.336c3.66799,0.36679 6.6024,3.30119 6.6024,7.33601" fill="#008eff" fill-rule="evenodd" stroke-width="2" stroke-linecap="butt" stroke-linejoin="miter"/></g></g></g></svg>