<svg version="1.1" xmlns="http://www.w3.org/2000/svg" xmlns:xlink="http://www.w3.org/1999/xlink" width="48.36494" height="23.65716" viewBox="0,0,48.36494,23.65716"><g transform="translate(-212.71901,-160.88987)"><g data-paper-data="{&quot;isPaintingLayer&quot;:true}" fill="#1f00ff" fill-rule="nonzero" stroke="none" stroke-width="0.5" stroke-linecap="butt" stroke-linejoin="miter" stroke-miterlimit="10" stroke-dasharray="" stroke-dashoffset="0" style="mix-blend-mode: normal"><path d="M217.92546,173.74499c-0.51944,-3.33577 -2.97689,-6.35561 -4.83959,-9.06211c-1.4071,-2.04452 1.55173,-4.69981 3.49671,-3.48816c4.44998,2.77218 6.45773,11.19675 6.92898,15.95597c0.17158,1.73283 1.0899,4.34291 -0.42197,5.20684c-0.43488,0.73685 -1.23698,1.23117 -2.15454,1.23117c-1.38071,0 -2.5,-1.11929 -2.5,-2.5c0,-0.24791 0.03609,-0.4874 0.10329,-0.71349c-0.51218,-1.97277 -0.25872,-4.35582 -0.61288,-6.63022z"/><path d="M238.05117,183.29703c-1.04981,-1.86629 -0.02401,-4.31556 -0.35194,-6.33633c-0.28691,-1.76802 -0.28529,-3.55688 -0.37128,-5.34472c-0.09261,-1.9256 -0.95759,-3.32458 -1.36905,-5.17613c-0.584,-2.62801 3.44877,-3.11634 4.6875,-1.52381c2.2663,2.91361 2.03055,8.61142 2.09227,12.0655c0.03777,2.11424 1.49051,5.2852 -0.34546,6.33432c-0.43488,0.73685 -1.23698,1.23117 -2.15454,1.23117c-0.81357,0 -1.53638,-0.38862 -1.99291,-0.99036c-0.07451,-0.07697 -0.14011,-0.16278 -0.19459,-0.25964z"/><path d="M254.05609,168.90679c1.12416,-0.75588 4.41522,-2.73136 5.77786,-1.36872c1.66667,1.66667 1.66667,2.70833 0,4.375c-1.62314,1.62314 -4.08677,1.38658 -6.31809,4.22564c-1.59267,2.02647 -2.37536,5.71147 -4.20436,7.3752c-0.10601,0.09643 -0.23575,0.18373 -0.38305,0.26012c-0.37812,0.22989 -0.82205,0.36228 -1.29691,0.36228c-0.09965,0 -0.19794,-0.00583 -0.29454,-0.01717c-1.15102,-0.01743 -2.28389,-0.58601 -2.1703,-2.06265c-0.02312,-0.13661 -0.03516,-0.27699 -0.03516,-0.42018c0,-0.37282 0.08161,-0.72657 0.22793,-1.04438c1.19898,-4.57728 4.97526,-9.18291 8.69662,-11.68515z"/><path d="M232.02436,183.31488c-0.63268,-0.36153 -1.50434,-0.48569 -1.99291,-0.99036c-0.07451,-0.07697 -0.14011,-0.16278 -0.19459,-0.25964c-0.98565,-1.75224 -1.82988,-10.15464 -1.81846,-12.36553c0.00877,-1.69773 -0.78829,-5.3919 1.57253,-6.17884c1.65947,-0.55316 3.00531,0.5702 3.29918,1.99185c0.70562,3.41356 1.12677,8.01156 1.36044,11.56531c0.04524,0.68809 0.87207,4.46677 -0.07165,5.00604z"/></g></g></svg>