<svg version="1.1" xmlns="http://www.w3.org/2000/svg" xmlns:xlink="http://www.w3.org/1999/xlink" width="53.48155" height="52.86417" viewBox="0,0,53.48155,52.86417"><g transform="translate(-213.25923,-153.56793)"><g data-paper-data="{&quot;isPaintingLayer&quot;:true}" stroke-width="0" stroke-linecap="butt" stroke-miterlimit="10" stroke-dasharray="" stroke-dashoffset="0" style="mix-blend-mode: normal"><path d="" fill="#ff0000" fill-rule="nonzero" stroke="none" stroke-linejoin="miter"/><path d="M239.99997,162.20832c2.24176,-5.09746 7.07999,-8.64038 12.70136,-8.64038c7.74979,0 14.03946,6.7137 14.03946,14.98594c0,16.29158 -16.49495,21.34333 -26.74082,37.87823c-10.8372,-16.63727 -26.74073,-21.04954 -26.74073,-37.87823c0,-8.27224 6.28967,-14.98594 14.03946,-14.98594c5.62142,0 10.45965,3.54292 12.70128,8.64038z" fill="#000000" fill-rule="nonzero" stroke="none" stroke-linejoin="round"/><path d="" fill="#000000" fill-rule="nonzero" stroke="none" stroke-linejoin="miter"/><path d="M226.62484,165.818c-2.37071,1.29909 -4.16557,6.36611 -7.55112,4.01435c-3.37093,-2.31861 -2.35105,-9.14234 4.9572,-11.80063c5.58157,-2.12369 8.39223,0.43432 8.89957,2.5376c0.50734,2.10328 -1.10476,3.93037 -1.10476,3.93037c-2.03232,2.14556 -3.17096,0.20006 -5.20091,1.31831z" data-paper-data="{&quot;index&quot;:null}" fill="#ffffff" fill-rule="evenodd" stroke="#000000" stroke-linejoin="miter"/><path d="M240.125,185.86958c-2.45779,-3.7732 -6.06458,-4.77387 -6.06458,-8.59048c0,-1.87608 1.42645,-3.39869 3.18404,-3.39869c1.27488,0 2.37215,0.8035 2.88054,1.95955c0.11495,-0.26139 0.26001,-0.50475 0.43042,-0.72488c-0.63622,1.31508 -0.99291,2.79064 -0.99291,4.3495c0,1.89315 0.52607,3.66342 1.44,5.17262c-0.30669,0.37992 -0.60206,0.78786 -0.87751,1.23239z" fill="#ff0000" fill-rule="nonzero" stroke="none" stroke-linejoin="round"/></g></g></svg>