<svg version="1.1" xmlns="http://www.w3.org/2000/svg" xmlns:xlink="http://www.w3.org/1999/xlink" width="144.67053" height="213.99065" viewBox="0,0,144.67053,213.99065"><g transform="translate(-200.85251,-113.51551)"><g data-paper-data="{&quot;isPaintingLayer&quot;:true}" fill-rule="nonzero" stroke-linejoin="miter" stroke-miterlimit="10" stroke-dasharray="" stroke-dashoffset="0" style="mix-blend-mode: normal"><path d="M249.24042,151.29211l58.24284,-36.05582l36.31901,58.66797l-58.24284,36.05582z" fill="#000000" stroke="#2b005d" stroke-width="2.5" stroke-linecap="butt"/><path d="M310.92071,193.55687l-28.77598,-47.27386l32.06064,-19.35809" fill="none" stroke="#2b005d" stroke-width="2.5" stroke-linecap="round"/><path d="M294.5443,124.41482l20.75645,35.11002l-17.68979,10.95104" fill="none" stroke="#2b005d" stroke-width="2.5" stroke-linecap="round"/><path d="M291.25937,160.21582l-25.47328,15.7695" fill="none" stroke="#2b005d" stroke-width="2.5" stroke-linecap="round"/><path d="M275.28792,161.2942l15.41571,25.69231" fill="none" stroke="#2b005d" stroke-width="2.5" stroke-linecap="round"/><path d="M306.21799,177.1773c-9.07277,5.6166 -20.61069,3.41276 -25.77064,-4.92238c-5.15996,-8.33514 -1.98799,-19.64528 7.08477,-25.26186c9.07277,-5.6166 20.61069,-3.41276 25.77064,4.92238c5.15996,8.33514 1.98799,19.64528 -7.08477,25.26186z" fill="#000000" stroke="#000000" stroke-width="2.5" stroke-linecap="butt"/><path d="M302.15321,170.29564c-5.19869,3.2183 -11.8099,1.95552 -14.76655,-2.82051c-2.95665,-4.77603 -1.13913,-11.25672 4.05957,-14.47502c5.19869,-3.2183 11.8099,-1.95552 14.76655,2.82051c2.95665,4.77603 1.13912,11.25672 -4.05957,14.47502z" fill="#000000" stroke="#000000" stroke-width="0" stroke-linecap="butt"/><path d="M300.83203,166.97567c-3.34243,2.06916 -7.59302,1.25727 -9.49396,-1.81342c-1.90094,-3.07069 -0.73239,-7.23736 2.61005,-9.30653c3.34243,-2.06916 7.59302,-1.25727 9.49396,1.81342c1.90094,3.07069 0.73238,7.23736 -2.61005,9.30653z" fill="#000000" stroke="#000000" stroke-width="0" stroke-linecap="butt"/><path d="M210.00848,326.25616v-68.5h69v68.5z" fill="#000000" stroke="#2b005d" stroke-width="2.5" stroke-linecap="butt"/><path d="M278.4107,296.05843l-55.34168,-0.4161l0.41611,-37.44926" fill="none" stroke="#2b005d" stroke-width="2.5" stroke-linecap="round"/><path d="M211.00205,273.58888l40.77808,0.8322v20.80514" fill="none" stroke="#2b005d" stroke-width="2.5" stroke-linecap="round"/><path d="M239.71315,325.18562v-29.9594" fill="none" stroke="#2b005d" stroke-width="2.5" stroke-linecap="round"/><path d="M262.18269,309.78982l-29.9594,-0.4161" fill="none" stroke="#2b005d" stroke-width="2.5" stroke-linecap="round"/><path d="M262.00847,291.43537c0,10.67058 -7.94695,19.3208 -17.75,19.3208c-9.80305,0 -17.75,-8.65022 -17.75,-19.3208c0,-10.67058 7.94695,-19.3208 17.75,-19.3208c9.80305,0 17.75,8.65022 17.75,19.3208z" fill="#000000" stroke="#000000" stroke-width="2.5" stroke-linecap="butt"/><path d="M202.10252,257.5992v-68.5h69v68.5z" fill="#000000" stroke="#2b005d" stroke-width="2.5" stroke-linecap="butt"/><path d="M270.50475,227.40145l-55.34168,-0.4161l0.41611,-37.44925" fill="none" stroke="#2b005d" stroke-width="2.5" stroke-linecap="round"/><path d="M203.09609,204.9319l40.77808,0.83221v20.80515" fill="none" stroke="#2b005d" stroke-width="2.5" stroke-linecap="round"/><path d="M231.80719,256.52867v-29.95941" fill="none" stroke="#2b005d" stroke-width="2.5" stroke-linecap="round"/><path d="M224.31734,240.71675l29.95941,0.4161" fill="none" stroke="#2b005d" stroke-width="2.5" stroke-linecap="round"/><path d="M252.25002,223.03754c0,10.67058 -7.94694,19.3208 -17.75,19.3208c-9.80305,0 -17.75,-8.65022 -17.75,-19.3208c0,-10.67058 7.94695,-19.3208 17.75,-19.3208c9.80306,0 17.75,8.65022 17.75,19.3208z" fill="#000000" stroke="#000000" stroke-width="2.5" stroke-linecap="butt"/></g></g></svg>